{"glyphs":{"0":{"ha":559,"x_min":41,"x_max":519,"o":"m 41 366 q 100 112 41 217 q 276 -13 170 -13 q 387 28 330 -13 q 482 158 445 68 q 519 377 519 248 q 435 669 519 562 q 281 755 367 755 q 180 720 229 755 q 79 584 117 675 q 41 366 41 492 m 147 352 q 161 544 147 446 q 215 686 176 641 q 281 720 244 720 q 335 701 313 720 q 386 612 366 675 q 412 401 412 528 q 387 136 412 231 q 339 47 371 74 q 278 21 307 21 q 185 102 216 21 q 147 352 147 199 "},"1":{"ha":559,"x_min":131,"x_max":422,"o":"m 131 668 l 139 651 q 195 668 175 668 q 220 660 210 668 q 234 634 230 651 q 239 530 239 611 l 239 130 q 233 51 239 64 q 212 29 227 37 q 144 20 197 21 l 144 0 l 422 0 l 422 20 q 356 30 372 21 q 334 53 340 38 q 329 130 329 68 l 329 755 l 311 755 l 131 668 "},"2":{"ha":559,"x_min":24,"x_max":513,"o":"m 513 142 l 492 142 q 459 104 478 118 q 416 87 440 91 q 334 83 393 83 l 140 83 q 310 262 174 113 q 441 449 401 360 q 467 562 467 505 q 407 697 467 640 q 256 755 347 755 q 116 702 172 755 q 45 547 59 648 l 66 547 q 130 640 86 608 q 228 672 173 672 q 331 627 288 672 q 374 511 374 581 q 295 307 374 418 q 24 20 217 196 l 24 0 l 460 0 l 513 142 "},"3":{"ha":559,"x_min":45,"x_max":466,"o":"m 57 600 l 75 591 q 216 682 132 682 q 304 647 269 682 q 339 555 339 612 q 319 477 339 513 q 256 415 300 441 q 170 384 213 389 l 170 368 l 187 368 q 271 350 230 368 q 335 310 312 332 q 366 264 352 294 q 385 180 385 222 q 344 78 385 121 q 248 35 303 35 q 204 41 224 35 q 159 61 192 43 q 117 81 126 78 q 89 85 102 85 q 58 73 71 85 q 45 45 45 61 q 73 5 45 24 q 174 -13 100 -13 q 405 79 326 -13 q 466 245 466 149 q 431 362 466 312 q 328 438 396 412 q 430 606 430 525 q 393 698 430 654 q 257 755 346 755 q 137 715 185 755 q 57 600 88 674 "},"4":{"ha":559,"x_min":18,"x_max":520,"o":"m 520 273 l 421 273 l 421 755 l 361 755 l 18 265 l 18 195 l 331 195 l 331 0 l 421 0 l 421 195 l 520 195 l 520 273 m 331 273 l 71 273 l 331 640 l 331 273 "},"5":{"ha":559,"x_min":54,"x_max":486,"o":"m 486 741 l 220 741 l 78 452 q 240 424 180 449 q 359 334 316 393 q 402 209 402 276 q 354 92 402 140 q 242 43 306 43 q 159 71 200 43 q 122 94 133 90 q 98 98 112 98 q 66 86 79 98 q 54 60 54 75 q 84 9 54 32 q 180 -13 114 -13 q 309 17 247 -13 q 390 73 354 38 q 450 158 426 108 q 473 266 473 208 q 401 441 473 366 q 172 548 316 527 l 220 648 l 443 648 l 486 741 "},"6":{"ha":559,"x_min":48,"x_max":516,"o":"m 501 755 l 469 755 q 343 731 411 755 q 202 638 276 707 q 88 479 127 569 q 48 290 48 390 q 152 37 48 135 q 281 -13 205 -13 q 460 80 392 -13 q 516 249 516 156 q 460 406 516 345 q 329 467 405 467 q 171 413 250 467 q 220 543 191 488 q 293 641 249 597 q 384 707 338 685 q 501 735 429 728 l 501 755 m 161 374 q 232 411 208 402 q 276 420 256 420 q 381 352 345 420 q 418 190 418 283 q 381 62 418 107 q 296 18 344 18 q 229 43 256 18 q 171 141 191 79 q 152 254 152 202 q 161 374 152 300 "},"7":{"ha":559,"x_min":41,"x_max":509,"o":"m 113 741 l 41 565 l 58 559 q 131 637 85 612 q 219 651 157 651 l 422 651 l 201 -16 l 262 -16 l 509 720 l 509 741 l 113 741 "},"8":{"ha":559,"x_min":68,"x_max":494,"o":"m 214 373 q 101 266 134 315 q 68 169 68 218 q 115 53 68 106 q 279 -13 174 -13 q 435 42 376 -13 q 494 176 494 98 q 453 293 494 237 q 326 410 422 336 q 449 512 419 469 q 478 596 478 555 q 424 707 478 659 q 279 755 369 755 q 132 703 187 755 q 76 579 76 651 q 101 489 76 532 q 214 373 127 445 m 300 431 l 211 505 q 170 559 184 531 q 155 616 155 588 q 190 691 155 659 q 281 724 225 724 q 369 691 336 724 q 401 602 401 659 q 383 525 401 559 q 300 431 366 490 m 240 352 q 397 201 358 259 q 418 130 418 170 q 382 50 418 83 q 288 16 347 16 q 190 59 228 16 q 151 172 151 101 q 173 269 151 224 q 240 352 195 314 "},"9":{"ha":559,"x_min":44,"x_max":511,"o":"m 59 -16 l 90 -16 q 281 43 194 -16 q 450 220 390 113 q 511 450 511 326 q 431 680 511 587 q 275 755 366 755 q 100 663 167 755 q 44 490 44 587 q 100 330 44 391 q 234 270 155 270 q 389 325 303 270 q 309 150 366 229 q 191 38 252 70 q 59 5 130 6 l 59 -16 m 397 366 q 337 331 371 343 q 277 319 302 319 q 190 366 225 319 q 141 547 141 431 q 178 676 141 633 q 263 720 214 720 q 338 687 305 720 q 389 593 371 654 q 408 479 408 532 q 397 366 408 436 "}," ":{"ha":279,"x_min":0,"x_max":0,"o":""},"!":{"ha":372,"x_min":125,"x_max":248,"o":"m 197 196 l 245 638 q 248 675 248 662 q 230 736 248 715 q 186 758 212 758 q 143 736 161 758 q 125 682 125 715 q 127 638 125 667 l 176 196 l 197 196 m 186 105 q 143 87 161 105 q 125 45 125 70 q 143 2 125 20 q 186 -16 161 -16 q 229 2 211 -16 q 246 45 246 20 q 229 87 246 70 q 186 105 211 105 "},"\"":{"ha":456,"x_min":73,"x_max":382,"o":"m 315 438 l 340 438 l 372 598 q 382 699 382 652 q 367 742 382 726 q 328 758 351 758 q 287 742 302 758 q 272 691 272 726 q 273 664 272 677 l 285 597 l 315 438 m 115 438 l 138 438 l 168 600 q 182 699 182 677 q 166 741 182 725 q 126 758 150 758 q 87 742 102 758 q 73 690 73 726 q 85 600 73 667 l 115 438 "},"#":{"ha":559,"x_min":20,"x_max":539,"o":"m 63 -16 l 108 -16 l 160 233 l 345 233 l 296 -16 l 340 -16 l 391 233 l 539 233 l 539 278 l 399 278 l 438 465 l 539 465 l 539 509 l 446 509 l 498 758 l 452 758 l 399 509 l 216 509 l 265 758 l 220 758 l 170 509 l 20 509 l 20 465 l 160 465 l 122 278 l 20 278 l 20 233 l 113 233 l 63 -16 m 168 278 l 206 465 l 393 465 l 353 278 l 168 278 "},"$":{"ha":559,"x_min":59,"x_max":503,"o":"m 59 182 l 59 28 q 157 -3 113 6 q 252 -16 201 -13 l 252 -85 l 287 -85 l 287 -16 q 446 51 389 -7 q 503 183 503 108 q 464 297 503 251 q 287 438 425 342 l 287 715 q 401 668 363 708 q 446 541 439 628 l 467 541 l 467 704 q 363 742 378 738 q 287 752 332 749 l 287 802 l 252 802 l 252 752 q 110 692 159 742 q 60 574 60 642 q 88 473 60 515 q 252 339 130 415 l 252 20 q 130 68 171 28 q 83 182 89 108 l 59 182 m 252 461 q 169 535 193 500 q 144 610 144 570 q 171 681 144 652 q 252 715 197 709 l 252 461 m 287 20 l 287 315 q 394 224 373 256 q 416 156 416 192 q 398 91 416 121 q 350 41 380 60 q 287 20 328 27 "},"%":{"ha":931,"x_min":39,"x_max":892,"o":"m 760 758 l 711 758 l 172 -31 l 220 -31 l 760 758 m 199 758 q 121 734 159 758 q 61 662 83 710 q 39 555 39 613 q 61 452 39 498 q 119 381 83 405 q 197 357 155 357 q 308 409 262 357 q 354 555 354 460 q 313 696 354 635 q 199 758 273 758 m 197 726 q 241 699 223 726 q 267 553 267 656 q 240 413 267 455 q 195 385 222 385 q 167 394 178 385 q 138 441 147 410 q 126 556 126 480 q 148 694 126 661 q 197 726 170 726 m 735 368 q 659 344 696 368 q 600 273 622 321 q 578 168 578 225 q 600 64 578 110 q 659 -6 622 18 q 736 -31 696 -31 q 846 20 800 -31 q 892 168 892 71 q 871 271 892 224 q 812 343 850 318 q 735 368 774 368 m 735 338 q 780 311 762 338 q 806 167 806 270 q 780 30 806 70 q 735 0 760 0 q 690 28 709 0 q 665 164 665 66 q 690 309 665 271 q 735 338 709 338 "},"&":{"ha":869,"x_min":41,"x_max":836,"o":"m 570 477 l 570 456 q 605 439 593 454 q 621 394 621 419 q 525 201 621 315 q 380 427 450 304 q 520 523 481 479 q 560 624 560 566 q 519 719 560 680 q 413 758 478 758 q 292 719 345 758 q 222 576 222 670 q 232 507 222 543 q 267 414 241 471 q 88 277 136 343 q 41 146 41 212 q 94 31 41 79 q 237 -17 147 -17 q 353 6 298 -17 q 475 90 408 29 q 576 7 530 32 q 667 -17 622 -17 q 771 20 726 -17 q 836 133 816 56 l 816 148 q 779 87 805 108 q 715 67 752 67 q 638 90 676 67 q 551 170 600 113 q 659 332 611 245 q 729 435 707 418 q 800 456 752 452 l 800 477 l 570 477 m 362 463 q 325 560 334 527 q 316 620 316 593 q 340 684 316 651 q 412 718 365 718 q 473 692 448 718 q 497 627 497 666 q 464 535 497 576 q 362 463 430 494 m 446 121 q 359 63 391 77 q 293 49 328 49 q 192 93 229 49 q 154 196 154 138 q 187 294 154 249 q 286 377 220 340 q 347 265 319 310 q 446 121 374 220 "},"'":{"ha":201,"x_min":44,"x_max":154,"o":"m 86 438 l 111 438 l 140 600 q 154 699 154 679 q 138 741 154 725 q 97 758 122 758 q 58 742 73 758 q 44 690 44 726 q 57 600 44 667 l 86 438 "},"(":{"ha":372,"x_min":46,"x_max":347,"o":"m 347 -219 q 258 -138 292 -180 q 203 -51 224 -96 q 170 70 183 -5 q 151 282 151 165 q 173 489 151 390 q 237 652 194 587 q 347 753 280 716 l 347 777 q 130 577 213 716 q 46 268 46 437 q 89 45 46 153 q 210 -142 131 -63 q 347 -239 264 -197 l 347 -219 "},")":{"ha":372,"x_min":25,"x_max":326,"o":"m 25 753 q 115 673 81 715 q 169 586 149 631 q 203 465 189 541 q 221 253 221 369 q 200 46 221 145 q 136 -117 179 -53 q 25 -219 92 -181 l 25 -239 q 243 -40 160 -179 q 326 269 326 100 q 284 493 326 385 q 163 680 241 600 q 25 777 108 735 l 25 753 "},"*":{"ha":559,"x_min":79,"x_max":480,"o":"m 270 570 q 209 624 239 589 q 158 670 178 659 q 120 682 138 682 q 92 669 104 682 q 79 642 79 656 q 104 598 79 616 q 186 572 119 587 q 257 550 228 564 q 191 529 225 536 q 124 511 138 518 q 91 487 102 502 q 79 458 79 472 q 92 430 79 443 q 124 418 105 418 q 153 427 139 418 q 214 483 174 438 q 270 530 237 509 q 264 489 267 503 q 248 438 260 475 q 235 376 235 401 q 247 339 235 351 q 283 323 263 323 q 311 338 298 323 q 324 375 324 353 q 304 463 324 399 q 292 530 293 500 q 348 480 326 507 q 401 429 382 441 q 438 418 421 418 q 467 430 454 418 q 479 458 479 441 q 458 497 479 479 q 372 528 438 515 q 302 550 331 535 q 372 571 330 562 q 462 603 444 587 q 480 639 480 618 q 468 668 480 656 q 438 680 456 680 q 401 670 419 680 q 346 616 383 659 q 292 570 322 589 q 310 651 296 607 q 324 720 324 695 q 312 762 324 747 q 282 777 299 777 q 249 762 262 777 q 236 718 236 747 q 254 645 236 699 q 270 570 267 608 "},"+":{"ha":631,"x_min":20,"x_max":609,"o":"m 292 77 l 336 77 l 336 349 l 609 349 l 609 394 l 336 394 l 336 665 l 292 665 l 292 394 l 20 394 l 20 349 l 292 349 l 292 77 "},",":{"ha":279,"x_min":60,"x_max":222,"o":"m 60 -186 q 183 -110 144 -158 q 222 -5 222 -62 q 195 78 222 46 q 130 109 167 109 q 81 90 101 109 q 60 44 60 71 q 76 0 60 16 q 119 -16 92 -16 q 139 -10 130 -16 q 165 1 159 1 q 173 -4 170 1 q 178 -22 178 -12 q 147 -105 178 -66 q 60 -162 116 -144 l 60 -186 "},"-":{"ha":372,"x_min":45,"x_max":328,"o":"m 45 292 l 45 210 l 328 210 l 328 292 l 45 292 "},".":{"ha":279,"x_min":79,"x_max":200,"o":"m 140 106 q 97 89 115 106 q 79 45 79 71 q 97 2 79 20 q 140 -16 115 -16 q 182 2 165 -16 q 200 45 200 20 q 183 88 200 71 q 140 106 165 106 "},"/":{"ha":311,"x_min":1,"x_max":313,"o":"m 313 777 l 270 777 l 1 -16 l 45 -16 l 313 777 "},":":{"ha":311,"x_min":96,"x_max":218,"o":"m 158 515 q 115 498 133 515 q 97 455 97 480 q 115 412 97 430 q 158 394 133 394 q 201 412 183 394 q 218 455 218 430 q 201 498 218 480 q 158 515 183 515 m 157 106 q 114 89 132 106 q 96 45 96 71 q 114 2 96 20 q 157 -16 132 -16 q 200 2 182 -16 q 218 45 218 20 q 200 89 218 71 q 157 106 182 106 "},";":{"ha":311,"x_min":77,"x_max":240,"o":"m 154 516 q 111 498 129 516 q 94 456 94 481 q 111 413 94 431 q 154 395 129 395 q 197 413 179 395 q 214 456 214 431 q 197 498 214 481 q 154 516 179 516 m 77 -186 q 201 -110 162 -158 q 240 -5 240 -62 q 212 78 240 46 q 148 109 184 109 q 98 90 119 109 q 77 44 77 71 q 93 0 77 16 q 136 -16 109 -16 q 157 -10 147 -16 q 183 1 177 1 q 191 -4 186 1 q 195 -22 195 -12 q 164 -105 195 -66 q 77 -162 134 -144 l 77 -186 "},"<":{"ha":631,"x_min":20,"x_max":608,"o":"m 20 385 l 20 359 l 608 102 l 608 151 l 102 373 l 608 592 l 608 640 l 20 385 "},"=":{"ha":631,"x_min":20,"x_max":609,"o":"m 20 482 l 20 437 l 609 437 l 609 482 l 20 482 m 20 304 l 20 259 l 609 259 l 609 304 l 20 304 "},">":{"ha":631,"x_min":20,"x_max":608,"o":"m 608 357 l 608 383 l 20 640 l 20 590 l 526 368 l 20 149 l 20 102 l 608 357 "},"?":{"ha":496,"x_min":50,"x_max":452,"o":"m 248 175 q 269 277 252 240 q 366 405 287 315 q 434 503 416 461 q 452 585 452 545 q 412 692 452 644 q 247 758 359 758 q 103 710 156 758 q 50 601 50 662 q 69 537 50 560 q 111 515 88 515 q 141 528 129 515 q 154 562 154 542 q 138 606 154 576 q 121 656 121 635 q 149 704 121 682 q 223 726 176 726 q 314 686 277 726 q 351 575 351 645 q 341 509 351 542 q 298 414 331 475 q 243 289 256 334 q 225 175 229 243 l 248 175 m 240 107 q 197 89 215 107 q 180 46 180 71 q 197 3 180 21 q 240 -15 215 -15 q 283 3 265 -15 q 301 46 301 21 q 283 89 301 71 q 240 107 266 107 "},"@":{"ha":1029,"x_min":53,"x_max":1002,"o":"m 768 523 l 683 511 l 665 451 q 632 507 656 488 q 571 526 608 526 q 458 481 522 526 q 322 321 374 419 q 270 144 270 222 q 300 51 270 85 q 369 16 330 16 q 455 45 406 16 q 584 172 503 74 q 574 92 574 122 q 595 37 574 56 q 658 17 616 17 q 801 62 732 17 q 915 204 870 106 q 959 402 959 302 q 911 593 959 503 q 773 730 864 683 q 570 777 682 777 q 311 706 433 777 q 121 511 189 636 q 53 242 53 387 q 115 -6 53 107 q 288 -180 176 -119 q 529 -241 399 -241 q 824 -149 694 -241 q 1002 94 954 -56 l 970 94 q 791 -131 907 -54 q 532 -208 675 -208 q 315 -155 416 -208 q 160 0 215 -102 q 104 228 104 102 q 168 489 104 363 q 338 682 231 614 q 572 749 446 749 q 754 706 672 749 q 881 585 836 664 q 926 412 926 505 q 887 225 926 315 q 791 96 847 136 q 695 56 735 56 q 666 68 677 56 q 654 98 654 80 q 662 150 654 117 q 705 305 669 183 l 768 523 m 577 500 q 626 479 606 500 q 646 422 646 458 q 614 281 646 368 q 559 180 597 231 q 486 106 521 130 q 419 83 451 83 q 376 104 395 83 q 357 160 357 125 q 389 287 357 208 q 494 458 433 394 q 577 500 536 500 "},"[":{"ha":372,"x_min":92,"x_max":332,"o":"m 332 -222 l 332 -179 l 174 -179 l 174 714 l 332 714 l 332 758 l 92 758 l 92 -222 l 332 -222 "},"\\":{"ha":311,"x_min":1,"x_max":313,"o":"m 45 777 l 1 777 l 269 -16 l 313 -16 l 45 777 "},"]":{"ha":372,"x_min":41,"x_max":281,"o":"m 41 758 l 41 714 l 199 714 l 199 -179 l 41 -179 l 41 -222 l 281 -222 l 281 758 l 41 758 "},"^":{"ha":525,"x_min":20,"x_max":504,"o":"m 272 755 l 256 755 l 20 364 l 71 364 l 262 684 l 454 364 l 504 364 l 272 755 "},"_":{"ha":559,"x_min":-9,"x_max":569,"o":"m 569 -241 l 569 -195 l -9 -195 l -9 -241 l 569 -241 "},"`":{"ha":372,"x_min":64,"x_max":244,"o":"m 64 759 l 225 570 l 244 570 l 186 759 l 64 759 "},"{":{"ha":536,"x_min":155,"x_max":459,"o":"m 459 -222 q 366 -172 395 -206 q 336 -96 336 -137 q 348 -11 336 -63 q 360 79 360 42 q 319 187 360 134 q 199 269 278 240 q 320 350 279 298 q 360 456 360 401 q 348 546 360 494 q 336 631 336 599 q 366 707 336 673 q 459 758 395 742 l 459 777 q 311 703 368 764 q 254 567 254 641 q 266 475 254 527 q 279 394 279 423 q 246 320 279 354 q 155 279 213 287 l 155 256 q 246 215 213 249 q 279 141 279 180 q 266 60 279 113 q 254 -31 254 8 q 311 -167 254 -106 q 459 -241 368 -229 l 459 -222 "},"|":{"ha":224,"x_min":88,"x_max":133,"o":"m 133 777 l 88 777 l 88 -241 l 133 -241 l 133 777 "},"}":{"ha":536,"x_min":96,"x_max":401,"o":"m 96 758 q 190 707 161 742 q 220 631 220 673 q 207 546 220 599 q 195 456 195 494 q 236 349 195 401 q 357 267 278 296 q 235 186 276 238 q 195 79 195 134 q 207 -11 195 42 q 220 -96 220 -63 q 190 -172 220 -138 q 96 -222 161 -206 l 96 -241 q 245 -167 188 -229 q 302 -31 302 -105 q 289 60 302 8 q 277 141 277 113 q 310 215 277 180 q 401 256 343 249 l 401 279 q 310 321 343 287 q 277 394 277 355 q 289 475 277 423 q 302 566 302 527 q 245 703 302 642 q 96 777 188 764 l 96 758 "},"~":{"ha":605,"x_min":11,"x_max":593,"o":"m 569 368 q 536 293 564 319 q 467 267 508 267 q 337 307 430 267 q 188 363 245 346 q 138 370 163 370 q 51 331 88 370 q 11 218 14 292 l 35 218 q 72 295 46 271 q 136 318 98 318 q 256 283 172 318 q 406 225 376 234 q 460 217 435 217 q 553 257 515 217 q 593 368 591 298 l 569 368 "},"¢":{"ha":559,"x_min":71,"x_max":492,"o":"m 492 191 l 475 197 q 430 118 446 136 q 383 85 414 99 q 319 71 353 71 q 281 77 297 71 q 231 104 261 83 l 355 449 q 364 413 362 430 q 378 368 368 380 q 425 348 395 348 q 464 360 450 348 q 477 394 477 373 q 450 457 477 427 q 375 505 430 480 l 454 724 l 415 724 l 338 515 q 305 517 316 517 q 156 460 222 517 q 71 247 71 385 q 98 111 71 170 q 162 26 118 68 l 77 -207 l 116 -207 l 193 6 q 281 -13 237 -13 q 402 31 353 -13 q 492 191 466 88 m 202 136 q 168 217 177 182 q 158 292 158 251 q 203 438 158 384 q 291 479 235 479 q 323 472 309 479 l 202 136 "},"×":{"ha":631,"x_min":90,"x_max":538,"o":"m 90 179 l 121 148 l 314 340 l 507 147 l 538 179 l 345 372 l 537 564 l 507 595 l 315 404 l 122 595 l 91 564 l 283 372 l 90 179 "},"÷":{"ha":614,"x_min":13,"x_max":601,"o":"m 307 587 q 273 573 287 587 q 259 539 259 559 q 273 506 259 519 q 307 492 287 492 q 340 506 326 492 q 354 539 354 519 q 340 573 354 559 q 307 587 326 587 m 601 349 l 601 394 l 13 394 l 13 349 l 601 349 m 307 248 q 273 234 287 248 q 259 200 259 220 q 273 166 259 180 q 307 153 287 153 q 340 166 326 153 q 355 200 355 180 q 341 234 355 220 q 307 248 327 248 "},"ँ":{"ha":0,"x_min":-439,"x_max":130,"o":"m -155 882 q -107 901 -127 882 q -87 949 -87 920 q -106 998 -87 979 q -155 1017 -125 1017 q -203 997 -184 1017 q -222 949 -222 977 q -202 902 -222 922 q -155 882 -182 882 m 130 983 l -5 983 q -49 864 -5 913 q -155 814 -93 814 q -260 864 -216 814 q -304 983 -304 913 l -439 983 q -356 830 -439 895 q -155 766 -272 766 q 47 830 -36 766 q 130 983 130 893 "},"ं":{"ha":0,"x_min":-214,"x_max":-95,"o":"m -155 869 q -113 887 -130 869 q -95 929 -95 905 q -113 971 -95 954 q -155 989 -130 989 q -197 971 -179 989 q -214 929 -214 954 q -197 887 -214 905 q -155 869 -179 869 "},"ः":{"ha":326,"x_min":95,"x_max":231,"o":"m 231 393 l 231 529 l 95 529 l 95 393 l 231 393 m 231 68 l 231 203 l 95 203 l 95 68 l 231 68 "},"अ":{"ha":846,"x_min":26,"x_max":894,"o":"m 26 298 q 102 88 26 176 q 283 0 178 0 q 465 57 389 0 q 541 197 541 115 q 499 308 541 260 q 392 366 458 355 l 392 373 q 479 422 444 382 q 514 515 514 462 q 450 640 514 589 q 297 692 387 692 q 171 654 227 692 q 94 556 115 616 l 127 536 q 180 609 143 581 q 263 637 217 637 q 354 601 317 637 q 392 511 392 565 q 354 422 392 458 q 263 387 316 387 l 216 387 l 216 346 l 263 346 q 364 306 322 346 q 406 206 406 265 q 363 108 406 148 q 263 68 321 68 q 124 136 182 68 q 66 298 66 204 l 26 298 m 745 651 l 894 651 l 894 705 l 541 705 l 541 651 l 623 651 l 623 393 l 541 393 l 541 346 l 623 346 l 623 95 q 594 47 623 66 q 528 27 566 27 l 528 0 l 840 0 l 840 27 q 773 47 802 27 q 745 95 745 67 l 745 651 "},"आ":{"ha":1177,"x_min":26,"x_max":1225,"o":"m 26 298 q 102 88 26 176 q 283 0 178 0 q 465 57 389 0 q 541 197 541 115 q 499 308 541 260 q 392 366 458 355 l 392 373 q 479 422 444 382 q 514 515 514 462 q 450 640 514 589 q 297 692 387 692 q 171 654 227 692 q 94 556 115 616 l 127 536 q 180 609 143 581 q 263 637 217 637 q 354 601 317 637 q 392 511 392 565 q 354 422 392 458 q 263 387 316 387 l 216 387 l 216 346 l 263 346 q 364 306 322 346 q 406 206 406 265 q 363 108 406 148 q 263 68 321 68 q 124 136 182 68 q 66 298 66 204 l 26 298 m 745 651 l 955 651 l 955 81 q 926 43 955 58 q 860 27 898 27 l 860 0 l 1172 0 l 1172 27 q 1106 43 1135 27 q 1077 81 1077 59 l 1077 651 l 1225 651 l 1225 705 l 541 705 l 541 651 l 623 651 l 623 393 l 541 393 l 541 346 l 623 346 l 623 95 q 594 47 623 66 q 528 27 566 27 l 528 0 l 840 0 l 840 27 q 773 47 802 27 q 745 95 745 67 l 745 651 m 846 0 "},"इ":{"ha":583,"x_min":-4,"x_max":631,"o":"m 631 651 l 631 705 l -4 705 l -4 651 l 350 651 l 350 570 l 241 570 q 106 530 161 570 q 52 434 52 490 q 95 339 52 379 q 201 298 139 298 l 309 298 q 368 271 345 298 q 391 203 391 244 q 348 108 391 149 q 248 68 306 68 q 153 149 178 109 l 24 149 l 24 115 q 174 9 56 115 q 275 -62 225 -37 q 363 -88 326 -88 q 560 14 503 -88 l 540 41 q 411 -20 496 -20 q 282 41 345 -20 q 455 88 385 41 q 526 203 526 135 q 495 310 526 267 q 418 353 463 353 l 316 353 q 225 381 264 353 q 187 448 187 409 q 207 495 187 475 q 255 515 226 515 l 472 515 l 472 651 l 631 651 "},"ई":{"ha":583,"x_min":-4,"x_max":631,"o":"m 631 651 l 631 705 l -4 705 l -4 651 l 350 651 l 350 570 l 241 570 q 106 530 161 570 q 52 434 52 490 q 95 339 52 379 q 201 298 139 298 l 309 298 q 368 271 345 298 q 391 203 391 244 q 348 108 391 149 q 248 68 306 68 q 153 149 178 109 l 24 149 l 24 115 q 174 9 56 115 q 275 -62 225 -37 q 363 -88 326 -88 q 560 14 503 -88 l 540 41 q 411 -20 496 -20 q 282 41 345 -20 q 455 88 385 41 q 526 203 526 135 q 495 310 526 267 q 418 353 463 353 l 316 353 q 225 381 264 353 q 187 448 187 409 q 207 495 187 475 q 255 515 226 515 l 472 515 l 472 651 l 631 651 m 559 954 l 559 1005 l 410 1005 q 294 968 340 1005 q 248 875 248 932 q 275 795 248 839 q 342 719 302 752 l 478 719 q 410 795 437 752 q 383 875 383 839 q 409 931 383 909 q 478 954 435 954 l 559 954 "},"उ":{"ha":635,"x_min":-4,"x_max":682,"o":"m 682 651 l 682 705 l -4 705 l -4 651 l 311 651 q 399 607 366 641 q 433 529 433 574 q 392 443 433 478 q 297 407 352 407 l 229 407 l 229 353 l 283 353 q 394 310 349 353 q 439 203 439 267 q 396 118 439 154 q 290 81 352 81 q 133 157 199 81 q 66 339 66 233 l 26 339 q 114 99 26 199 q 324 0 201 0 q 511 58 433 0 q 589 197 589 115 q 545 316 589 265 q 433 380 501 368 l 433 387 q 520 432 486 396 q 555 515 555 469 q 516 602 555 564 q 412 651 477 640 l 682 651 "},"ऊ":{"ha":959,"x_min":-4,"x_max":1006,"o":"m 1006 651 l 1006 705 l -4 705 l -4 651 l 311 651 q 399 607 366 641 q 433 529 433 574 q 392 443 433 478 q 297 407 352 407 l 229 407 l 229 353 l 283 353 q 394 310 349 353 q 439 203 439 267 q 396 118 439 154 q 290 81 352 81 q 133 157 199 81 q 66 339 66 233 l 26 339 q 114 99 26 199 q 324 0 201 0 q 511 58 433 0 q 589 197 589 115 q 545 316 589 265 q 433 380 501 368 l 433 387 q 520 432 486 396 q 555 515 555 469 q 516 602 555 564 q 412 651 477 640 l 1006 651 m 623 20 q 704 7 651 7 q 858 75 795 7 q 921 237 921 143 q 853 391 921 328 q 690 454 785 454 q 602 427 638 454 l 602 400 q 650 414 627 414 q 758 352 716 414 q 799 210 799 290 q 749 90 799 139 q 629 41 699 41 l 623 20 m 635 0 "},"ऋ":{"ha":921,"x_min":-4,"x_max":968,"o":"m 968 651 l 968 705 l -4 705 l -4 651 l 439 651 l 439 346 l 406 326 l 331 475 q 260 566 300 536 q 168 597 219 597 q 84 570 125 597 q 19 502 44 544 l 46 475 q 90 495 69 488 q 127 502 110 502 q 180 478 153 502 q 236 407 208 454 l 317 271 l 39 75 l 60 34 l 439 292 l 439 81 q 411 43 439 58 q 345 27 382 27 l 345 0 l 656 0 l 656 27 q 590 43 619 27 q 562 81 562 59 l 562 373 l 661 444 q 744 300 716 366 q 772 183 772 235 q 751 95 772 135 q 697 54 731 54 l 697 27 q 830 69 772 27 q 887 176 887 111 q 831 332 887 249 q 701 477 775 416 q 754 522 736 498 q 772 570 772 545 q 756 610 772 597 q 711 624 741 624 q 651 603 677 624 q 625 549 625 581 q 642 487 625 525 l 562 434 l 562 651 l 968 651 "},"ऌ":{"ha":922,"x_min":-4,"x_max":970,"o":"m 764 319 q 721 193 764 245 q 617 141 677 141 q 492 96 543 141 q 441 -14 441 51 q 504 -132 441 -87 q 671 -176 568 -176 l 814 -176 l 814 -136 l 671 -136 q 595 -99 628 -136 q 563 -14 563 -62 q 595 67 563 33 q 673 102 627 102 q 822 167 760 102 q 884 326 884 233 q 836 462 884 404 q 711 536 787 521 l 711 651 l 970 651 l 970 705 l -4 705 l -4 651 l 604 651 l 604 529 q 473 420 503 500 q 397 510 451 477 q 275 543 344 543 q 109 467 177 543 q 41 285 41 391 q 110 118 41 188 q 277 47 180 47 q 396 109 352 47 l 377 136 q 301 102 342 102 q 210 160 244 102 q 175 292 175 218 q 215 424 175 366 q 317 481 255 481 q 415 437 376 481 q 454 326 454 392 l 492 326 q 534 436 492 391 q 635 481 576 481 q 727 432 691 481 q 764 319 764 383 "},"ऍ":{"ha":674,"x_min":-4,"x_max":722,"o":"m 722 651 l 722 705 l -4 705 l -4 651 l 71 651 l 71 312 q 151 111 71 195 q 342 27 231 27 q 415 17 387 27 q 444 -7 444 7 q 425 -30 444 -20 q 382 -41 407 -41 l 382 -68 l 532 -68 q 608 -48 575 -68 q 640 0 640 -28 q 613 49 640 30 q 545 68 587 68 l 342 68 q 235 116 278 68 q 193 231 193 163 l 193 651 l 382 651 q 491 448 491 559 q 455 327 491 376 q 369 278 419 278 q 281 332 327 278 l 247 298 q 323 244 276 264 q 423 224 371 224 q 557 290 501 224 q 613 448 613 356 q 518 651 613 570 l 722 651 m 600 985 l 464 985 q 422 861 464 913 q 315 808 380 808 q 208 861 250 808 q 165 985 165 913 l 30 985 q 114 832 30 896 q 315 768 197 768 q 516 831 433 768 q 600 985 600 895 "},"ऎ":{"ha":674,"x_min":-18,"x_max":722,"o":"m 722 651 l 722 705 l -4 705 l -4 651 l 71 651 l 71 312 q 151 111 71 195 q 342 27 231 27 q 415 17 387 27 q 444 -7 444 7 q 425 -30 444 -20 q 382 -41 407 -41 l 382 -68 l 532 -68 q 608 -48 575 -68 q 640 0 640 -28 q 613 49 640 30 q 545 68 587 68 l 342 68 q 235 116 278 68 q 193 231 193 163 l 193 651 l 382 651 q 491 448 491 559 q 455 327 491 376 q 369 278 419 278 q 281 332 327 278 l 247 298 q 323 244 276 264 q 423 224 371 224 q 557 290 501 224 q 613 448 613 356 q 518 651 613 570 l 722 651 m 545 719 q 471 837 545 792 q 304 882 397 882 q 173 931 227 882 q 118 1051 118 981 l -18 1051 q 57 903 -18 964 q 236 842 131 842 q 378 806 319 842 q 437 719 437 770 l 545 719 "},"ए":{"ha":674,"x_min":-4,"x_max":722,"o":"m 722 651 l 722 705 l -4 705 l -4 651 l 71 651 l 71 312 q 151 111 71 195 q 342 27 231 27 q 415 17 387 27 q 444 -7 444 7 q 425 -30 444 -20 q 382 -41 407 -41 l 382 -68 l 532 -68 q 608 -48 575 -68 q 640 0 640 -28 q 613 49 640 30 q 545 68 587 68 l 342 68 q 235 116 278 68 q 193 231 193 163 l 193 651 l 382 651 q 491 448 491 559 q 455 327 491 376 q 369 278 419 278 q 281 332 327 278 l 247 298 q 323 244 276 264 q 423 224 371 224 q 557 290 501 224 q 613 448 613 356 q 518 651 613 570 l 722 651 "},"ऐ":{"ha":674,"x_min":-22,"x_max":722,"o":"m 722 651 l 722 705 l -4 705 l -4 651 l 71 651 l 71 312 q 151 111 71 195 q 342 27 231 27 q 415 17 387 27 q 444 -7 444 7 q 425 -30 444 -20 q 382 -41 407 -41 l 382 -68 l 532 -68 q 608 -48 575 -68 q 640 0 640 -28 q 613 49 640 30 q 545 68 587 68 l 342 68 q 235 116 278 68 q 193 231 193 163 l 193 651 l 382 651 q 491 448 491 559 q 455 327 491 376 q 369 278 419 278 q 281 332 327 278 l 247 298 q 323 244 276 264 q 423 224 371 224 q 557 290 501 224 q 613 448 613 356 q 518 651 613 570 l 722 651 m 507 719 l 507 751 l 494 751 q 426 777 454 751 l 222 964 q 127 1004 180 1004 l -22 1004 l -22 964 l 5 964 q 52 959 35 964 q 87 939 69 954 l 304 745 q 372 719 333 719 l 507 719 "},"ऑ":{"ha":1177,"x_min":26,"x_max":1225,"o":"m 26 298 q 102 88 26 176 q 283 0 178 0 q 465 57 389 0 q 541 197 541 115 q 499 308 541 260 q 392 366 458 355 l 392 373 q 479 422 444 382 q 514 515 514 462 q 450 640 514 589 q 297 692 387 692 q 171 654 227 692 q 94 556 115 616 l 127 536 q 180 609 143 581 q 263 637 217 637 q 354 601 317 637 q 392 511 392 565 q 354 422 392 458 q 263 387 316 387 l 216 387 l 216 346 l 263 346 q 364 306 322 346 q 406 206 406 265 q 363 108 406 148 q 263 68 321 68 q 124 136 182 68 q 66 298 66 204 l 26 298 m 745 651 l 955 651 l 955 81 q 926 43 955 58 q 860 27 898 27 l 860 0 l 1172 0 l 1172 27 q 1106 43 1135 27 q 1077 81 1077 59 l 1077 651 l 1225 651 l 1225 705 l 541 705 l 541 651 l 623 651 l 623 393 l 541 393 l 541 346 l 623 346 l 623 95 q 594 47 623 66 q 528 27 566 27 l 528 0 l 840 0 l 840 27 q 773 47 802 27 q 745 95 745 67 l 745 651 m 846 0 m 1130 990 l 994 990 q 952 866 994 918 q 845 814 910 814 q 738 866 780 814 q 696 990 696 918 l 560 990 q 644 837 560 901 q 845 773 728 773 q 1047 837 964 773 q 1130 990 1130 900 "},"ऒ":{"ha":1177,"x_min":26,"x_max":1225,"o":"m 26 298 q 102 88 26 176 q 283 0 178 0 q 465 57 389 0 q 541 197 541 115 q 499 308 541 260 q 392 366 458 355 l 392 373 q 479 422 444 382 q 514 515 514 462 q 450 640 514 589 q 297 692 387 692 q 171 654 227 692 q 94 556 115 616 l 127 536 q 180 609 143 581 q 263 637 217 637 q 354 601 317 637 q 392 511 392 565 q 354 422 392 458 q 263 387 316 387 l 216 387 l 216 346 l 263 346 q 364 306 322 346 q 406 206 406 265 q 363 108 406 148 q 263 68 321 68 q 124 136 182 68 q 66 298 66 204 l 26 298 m 745 651 l 955 651 l 955 81 q 926 43 955 58 q 860 27 898 27 l 860 0 l 1172 0 l 1172 27 q 1106 43 1135 27 q 1077 81 1077 59 l 1077 651 l 1225 651 l 1225 705 l 541 705 l 541 651 l 623 651 l 623 393 l 541 393 l 541 346 l 623 346 l 623 95 q 594 47 623 66 q 528 27 566 27 l 528 0 l 840 0 l 840 27 q 773 47 802 27 q 745 95 745 67 l 745 651 m 846 0 m 1071 719 q 997 837 1071 792 q 829 882 923 882 q 698 931 753 882 q 644 1051 644 981 l 508 1051 q 582 903 508 964 q 762 842 656 842 q 903 806 844 842 q 962 719 962 770 l 1071 719 "},"ओ":{"ha":1177,"x_min":26,"x_max":1225,"o":"m 26 298 q 102 88 26 176 q 283 0 178 0 q 465 57 389 0 q 541 197 541 115 q 499 308 541 260 q 392 366 458 355 l 392 373 q 479 422 444 382 q 514 515 514 462 q 450 640 514 589 q 297 692 387 692 q 171 654 227 692 q 94 556 115 616 l 127 536 q 180 609 143 581 q 263 637 217 637 q 354 601 317 637 q 392 511 392 565 q 354 422 392 458 q 263 387 316 387 l 216 387 l 216 346 l 263 346 q 364 306 322 346 q 406 206 406 265 q 363 108 406 148 q 263 68 321 68 q 124 136 182 68 q 66 298 66 204 l 26 298 m 745 651 l 955 651 l 955 81 q 926 43 955 58 q 860 27 898 27 l 860 0 l 1172 0 l 1172 27 q 1106 43 1135 27 q 1077 81 1077 59 l 1077 651 l 1225 651 l 1225 705 l 541 705 l 541 651 l 623 651 l 623 393 l 541 393 l 541 346 l 623 346 l 623 95 q 594 47 623 66 q 528 27 566 27 l 528 0 l 840 0 l 840 27 q 773 47 802 27 q 745 95 745 67 l 745 651 m 846 0 m 1090 719 l 1090 751 l 1077 751 q 1009 777 1037 751 l 806 964 q 711 1004 764 1004 l 562 1004 l 562 964 l 589 964 q 635 959 618 964 q 670 939 652 954 l 887 745 q 955 719 916 719 l 1090 719 "},"औ":{"ha":1177,"x_min":26,"x_max":1225,"o":"m 26 298 q 102 88 26 176 q 283 0 178 0 q 465 57 389 0 q 541 197 541 115 q 499 308 541 260 q 392 366 458 355 l 392 373 q 479 422 444 382 q 514 515 514 462 q 450 640 514 589 q 297 692 387 692 q 171 654 227 692 q 94 556 115 616 l 127 536 q 180 609 143 581 q 263 637 217 637 q 354 601 317 637 q 392 511 392 565 q 354 422 392 458 q 263 387 316 387 l 216 387 l 216 346 l 263 346 q 364 306 322 346 q 406 206 406 265 q 363 108 406 148 q 263 68 321 68 q 124 136 182 68 q 66 298 66 204 l 26 298 m 745 651 l 955 651 l 955 81 q 926 43 955 58 q 860 27 898 27 l 860 0 l 1172 0 l 1172 27 q 1106 43 1135 27 q 1077 81 1077 59 l 1077 651 l 1225 651 l 1225 705 l 541 705 l 541 651 l 623 651 l 623 393 l 541 393 l 541 346 l 623 346 l 623 95 q 594 47 623 66 q 528 27 566 27 l 528 0 l 840 0 l 840 27 q 773 47 802 27 q 745 95 745 67 l 745 651 m 846 0 m 1091 773 l 1091 814 l 1078 814 q 1023 841 1044 814 l 913 981 q 843 1017 885 1017 l 644 1017 l 644 977 l 739 977 q 812 943 784 977 l 923 806 q 983 773 949 773 l 1091 773 m 956 719 l 956 760 l 913 760 q 842 787 876 760 l 671 922 q 589 949 637 949 l 440 949 l 440 909 l 494 909 q 562 882 528 909 l 725 753 q 806 719 768 719 l 956 719 "},"क":{"ha":1069,"x_min":-4,"x_max":1116,"o":"m 473 203 q 324 142 401 142 q 208 201 255 142 q 161 339 161 259 q 207 478 161 421 q 324 536 253 536 q 473 468 417 536 l 473 203 m 595 475 q 745 536 648 536 q 860 478 813 536 q 907 339 907 421 q 860 200 907 258 q 745 142 812 142 q 636 183 683 142 l 623 149 q 772 95 691 95 q 954 166 878 95 q 1029 339 1029 237 q 955 513 1029 442 q 772 583 880 583 q 595 529 662 583 l 595 651 l 1116 651 l 1116 705 l -4 705 l -4 651 l 473 651 l 473 515 q 297 583 391 583 q 114 512 189 583 q 39 339 39 440 q 115 167 39 239 q 297 95 191 95 q 473 156 401 95 l 473 81 q 445 43 473 58 q 378 27 416 27 l 378 0 l 690 0 l 690 27 q 624 43 653 27 q 595 81 595 59 l 595 475 "},"ख":{"ha":1166,"x_min":-4,"x_max":1214,"o":"m 944 203 q 880 139 921 163 q 795 115 840 115 q 670 181 722 115 q 618 339 618 248 q 670 488 618 427 q 795 549 721 549 q 944 461 911 549 l 944 203 m 944 142 l 944 81 q 916 43 944 58 q 849 27 887 27 l 849 0 l 1161 0 l 1161 27 q 1095 43 1124 27 q 1066 81 1066 59 l 1066 651 l 1214 651 l 1214 705 l -4 705 l -4 651 l 212 651 q 311 581 274 629 q 347 475 347 532 q 289 313 347 382 q 144 244 231 244 q 22 271 96 244 l 8 231 q 198 88 56 231 q 401 0 286 0 q 520 27 463 0 q 618 102 578 54 q 768 68 680 68 q 862 88 814 68 q 944 142 909 108 m 944 529 q 768 597 861 597 q 575 521 654 597 q 496 339 496 446 q 522 218 496 276 q 591 122 547 159 q 483 68 525 68 q 350 106 419 68 q 225 210 281 144 q 398 280 326 210 q 469 448 469 349 q 419 575 469 519 q 293 651 370 631 l 944 651 l 944 529 "},"ग":{"ha":856,"x_min":-4,"x_max":903,"o":"m 233 420 q 292 386 269 420 q 315 298 315 351 q 291 212 315 247 q 233 176 267 176 q 176 213 200 176 q 152 298 152 250 q 176 384 152 347 q 233 420 199 420 m 633 651 l 633 81 q 605 43 633 58 q 538 27 576 27 l 538 0 l 850 0 l 850 27 q 784 43 813 27 q 755 81 755 59 l 755 651 l 903 651 l 903 705 l -4 705 l -4 651 l 179 651 q 343 566 277 633 q 410 407 410 498 q 382 298 410 332 l 376 298 q 329 419 376 370 q 213 468 281 468 q 84 419 138 468 q 30 301 30 370 q 90 184 30 233 q 233 136 150 136 q 444 215 356 136 q 532 407 532 294 q 461 565 532 497 q 288 651 391 633 l 633 651 m 571 7 "},"घ":{"ha":749,"x_min":-4,"x_max":796,"o":"m 526 651 l 526 224 q 445 158 489 180 q 350 136 401 136 q 228 172 281 136 q 174 264 174 208 q 214 355 174 317 q 309 393 254 393 l 350 393 l 350 434 l 309 434 q 252 464 276 434 q 228 536 228 494 q 261 618 228 585 q 330 651 295 651 l 526 651 m 526 176 l 526 81 q 498 43 526 58 q 431 27 469 27 l 431 0 l 743 0 l 743 27 q 677 43 706 27 q 648 81 648 59 l 648 651 l 796 651 l 796 705 l -4 705 l -4 651 l 201 651 q 123 601 155 635 q 92 529 92 568 q 124 455 92 486 q 201 420 155 425 l 201 414 q 84 354 130 401 q 38 244 38 306 q 103 118 38 168 q 255 68 169 68 q 412 95 344 68 q 526 176 479 122 "},"ङ":{"ha":834,"x_min":-4,"x_max":882,"o":"m 882 651 l 882 705 l -4 705 l -4 651 l 513 651 l 513 556 l 343 556 q 213 524 266 556 q 160 448 160 492 q 214 357 160 395 q 343 319 268 319 l 458 319 q 535 285 504 319 q 567 203 567 252 q 518 103 567 144 q 397 61 469 61 q 174 153 270 61 q 65 380 77 245 l 24 373 q 141 109 38 217 q 391 0 245 0 q 601 62 513 0 q 689 210 689 123 q 634 321 689 276 q 499 366 578 366 l 418 366 q 323 386 364 366 q 282 434 282 406 q 321 482 282 463 q 418 502 360 502 l 635 502 l 635 651 l 882 651 m 735 357 q 777 374 760 357 q 795 416 795 392 q 777 458 795 441 q 735 476 760 476 q 693 458 711 476 q 675 416 675 441 q 693 374 675 392 q 735 357 711 357 m 766 0 "},"च":{"ha":808,"x_min":-4,"x_max":856,"o":"m 586 149 l 586 81 q 557 43 586 58 q 491 27 529 27 l 491 0 l 803 0 l 803 27 q 737 43 766 27 q 708 81 708 59 l 708 651 l 856 651 l 856 705 l -4 705 l -4 651 l 586 651 l 586 197 q 505 131 549 153 q 410 109 460 109 q 266 166 326 109 q 206 305 206 224 q 270 445 206 387 q 423 502 333 502 l 532 502 l 532 543 l 16 543 l 16 502 l 267 502 q 126 411 181 470 q 71 285 71 353 q 150 122 71 191 q 342 54 230 54 q 477 78 416 54 q 586 149 538 102 "},"छ":{"ha":829,"x_min":-4,"x_max":876,"o":"m 644 203 q 563 253 597 203 q 529 373 529 303 q 549 463 529 424 q 597 502 568 502 q 645 456 625 502 q 665 339 665 410 q 644 203 665 259 m 665 529 l 665 651 l 876 651 l 876 705 l -4 705 l -4 651 l 543 651 l 543 529 q 455 473 490 519 q 420 366 420 426 q 485 231 420 285 q 637 176 550 176 q 551 78 616 116 q 407 41 487 41 q 237 80 304 41 q 170 190 170 119 q 213 286 170 246 q 319 326 256 326 l 319 353 q 224 385 264 353 q 183 461 183 418 q 207 523 183 496 q 264 549 230 549 q 319 529 291 549 l 339 556 q 231 597 293 597 q 110 556 159 597 q 61 461 61 516 q 104 380 61 416 q 210 339 147 345 l 212 332 q 94 286 141 327 q 47 190 47 244 q 146 52 47 104 q 407 0 245 0 q 674 97 562 0 q 787 339 787 194 q 753 467 787 414 q 665 529 719 519 m 595 540 "},"ज":{"ha":905,"x_min":-4,"x_max":952,"o":"m 682 448 l 682 81 q 654 43 682 58 q 587 27 625 27 l 587 0 l 899 0 l 899 27 q 833 43 862 27 q 804 81 804 59 l 804 651 l 952 651 l 952 705 l -4 705 l -4 651 l 682 651 l 682 489 l 275 489 l 275 448 l 302 448 q 418 399 371 448 q 465 278 465 349 q 422 172 465 216 q 316 129 379 129 q 151 227 218 129 q 72 454 83 325 l 31 454 q 125 153 31 279 q 350 27 218 27 q 518 95 448 27 q 587 258 587 162 q 551 374 587 323 q 452 448 515 425 l 682 448 "},"झ":{"ha":926,"x_min":-4,"x_max":974,"o":"m 974 651 l 974 705 l -4 705 l -4 651 l 406 651 l 406 543 l 229 543 q 118 506 163 543 q 73 420 73 470 q 115 341 73 370 q 229 312 157 312 l 372 312 q 445 290 417 312 q 473 231 473 268 q 439 144 473 179 q 351 109 404 109 q 275 127 311 109 q 222 176 239 146 l 12 176 l 12 149 q 168 47 96 119 q 272 -17 210 6 q 406 -41 334 -41 q 555 27 473 -41 l 541 41 q 460 14 495 14 q 391 27 425 14 q 324 68 357 41 l 365 68 q 525 113 454 68 q 595 231 595 158 q 589 271 595 252 l 704 271 l 704 81 q 675 43 704 58 q 609 27 647 27 l 609 0 l 921 0 l 921 27 q 855 43 884 27 q 826 81 826 59 l 826 651 l 974 651 m 704 312 l 582 312 q 543 356 572 340 q 473 373 514 373 q 406 366 451 373 q 338 359 361 359 q 246 375 277 359 q 216 420 216 390 q 250 476 216 458 q 351 495 283 495 l 528 495 l 528 651 l 704 651 l 704 312 "},"ञ":{"ha":689,"x_min":-4,"x_max":736,"o":"m 467 339 l 467 82 q 438 43 467 58 q 372 28 410 28 l 372 0 l 684 0 l 684 28 q 618 42 647 28 q 589 82 589 57 l 589 652 l 736 652 l 736 705 l -4 705 l -4 652 l 467 652 l 467 379 l 357 379 q 298 510 347 464 q 172 555 250 555 q 20 485 81 555 l 32 457 q 118 489 71 489 q 204 455 172 489 q 236 367 236 421 q 202 279 236 314 q 115 244 169 244 q 32 285 69 244 l 16 260 q 168 176 75 176 q 293 221 241 176 q 357 339 345 265 l 467 339 "},"ट":{"ha":662,"x_min":-4,"x_max":709,"o":"m 709 651 l 709 705 l -4 705 l -4 651 l 445 651 l 445 529 q 357 536 407 536 q 131 461 224 536 q 38 278 38 386 q 140 79 38 157 q 377 0 242 0 q 528 32 456 0 q 648 122 600 64 l 628 142 q 418 54 520 54 q 236 118 311 54 q 160 271 160 182 q 228 425 160 362 q 391 488 296 488 q 567 461 465 488 l 567 651 l 709 651 "},"ठ":{"ha":758,"x_min":-4,"x_max":806,"o":"m 806 651 l 806 705 l -4 705 l -4 651 l 461 651 l 461 543 l 353 543 q 132 463 223 543 q 41 271 41 383 q 133 80 41 160 q 353 0 225 0 l 407 0 q 627 79 535 0 q 719 271 719 158 q 665 415 719 349 q 522 515 612 482 l 583 515 l 583 651 l 806 651 m 407 502 q 543 432 489 502 q 597 271 597 363 q 543 110 597 180 q 407 41 489 41 l 353 41 q 217 110 271 41 q 163 271 163 180 q 217 432 163 363 q 353 502 271 502 l 407 502 "},"ड":{"ha":766,"x_min":-4,"x_max":814,"o":"m 814 651 l 814 705 l -4 705 l -4 651 l 513 651 l 513 556 l 343 556 q 211 527 261 556 q 160 448 160 497 q 212 354 160 389 q 343 319 263 319 l 450 319 q 534 286 501 319 q 567 203 567 252 q 518 102 567 143 q 397 61 469 61 q 174 153 270 61 q 65 380 77 245 l 24 373 q 141 109 38 217 q 391 0 245 0 q 601 62 513 0 q 689 210 689 123 q 634 321 689 276 q 499 366 578 366 l 418 366 q 316 383 350 366 q 282 434 282 400 q 313 485 282 468 q 404 502 343 502 l 635 502 l 635 651 l 814 651 "},"ढ":{"ha":781,"x_min":-4,"x_max":829,"o":"m 829 651 l 829 705 l -4 705 l -4 651 l 514 651 l 514 543 l 378 543 q 138 464 237 543 q 39 271 39 385 q 136 80 39 160 q 365 0 232 0 l 514 0 q 676 63 608 0 q 745 217 745 126 q 685 361 745 302 q 541 420 626 420 q 397 363 456 420 q 338 224 338 306 q 360 116 338 164 q 419 41 382 67 l 365 41 q 220 110 278 41 q 161 271 161 178 q 245 434 161 366 q 446 502 329 502 l 636 502 l 636 651 l 829 651 m 514 366 q 591 322 560 366 q 623 210 623 277 q 591 90 623 138 q 514 41 559 41 q 428 91 465 41 q 392 210 392 141 q 428 320 392 274 q 514 366 463 366 "},"ण":{"ha":871,"x_min":-4,"x_max":918,"o":"m 377 651 l 377 312 q 349 205 377 248 q 282 163 321 163 q 215 207 243 163 q 187 312 187 250 l 187 651 l 377 651 m 648 651 l 648 81 q 620 43 648 58 q 553 27 591 27 l 553 0 l 865 0 l 865 27 q 799 43 828 27 q 770 81 770 59 l 770 651 l 918 651 l 918 705 l -4 705 l -4 651 l 65 651 l 65 312 q 130 176 65 231 q 282 122 195 122 q 434 176 370 122 q 499 312 499 231 l 499 651 l 648 651 m 564 7 "},"त":{"ha":783,"x_min":-4,"x_max":830,"o":"m 560 454 l 560 81 q 532 43 560 58 q 465 27 503 27 l 465 0 l 777 0 l 777 27 q 711 43 740 27 q 682 81 682 59 l 682 651 l 830 651 l 830 705 l -4 705 l -4 651 l 560 651 l 560 502 q 370 556 494 556 q 141 474 237 556 q 45 278 45 393 q 80 126 45 199 q 180 0 116 54 l 275 95 q 196 191 225 137 q 167 298 167 245 q 226 447 167 386 q 370 509 286 509 q 560 454 494 509 "},"थ":{"ha":822,"x_min":30,"x_max":869,"o":"m 382 515 q 301 475 337 475 q 244 503 269 475 q 220 570 220 532 q 244 660 220 621 q 301 699 268 699 q 359 661 336 699 q 382 570 382 624 l 382 515 m 600 170 l 600 81 q 571 43 600 58 q 505 27 543 27 l 505 0 l 817 0 l 817 27 q 750 43 779 27 q 722 81 722 59 l 722 651 l 869 651 l 869 705 l 559 705 l 559 651 l 600 651 l 600 217 q 410 136 530 136 q 237 196 309 136 q 165 339 165 256 q 231 334 199 334 q 421 396 337 333 q 505 556 505 458 q 444 682 505 632 q 301 732 383 732 q 159 687 220 732 q 98 570 98 641 q 150 474 98 515 q 274 434 201 434 q 355 454 300 434 q 283 399 335 419 q 165 380 231 380 q 30 407 104 380 q 122 168 30 268 q 349 68 214 68 q 492 94 425 68 q 600 170 558 121 "},"द":{"ha":708,"x_min":-4,"x_max":755,"o":"m 302 27 q 434 48 374 27 q 526 109 494 70 q 465 -54 508 -3 l 486 -75 q 615 55 568 -26 q 662 231 662 136 q 642 339 662 302 l 513 339 q 540 203 540 307 q 533 156 540 194 q 449 105 492 122 q 363 88 407 88 q 220 145 280 88 q 160 281 160 201 q 220 418 160 362 q 363 475 280 475 l 594 475 l 594 651 l 755 651 l 755 705 l -4 705 l -4 651 l 472 651 l 472 522 l 363 522 q 133 449 228 522 q 38 274 38 376 q 116 100 38 173 q 302 27 193 27 m 521 543 "},"ध":{"ha":770,"x_min":53,"x_max":818,"o":"m 548 163 l 548 81 q 519 43 548 58 q 453 27 491 27 l 453 0 l 765 0 l 765 27 q 699 43 728 27 q 670 81 670 59 l 670 651 l 818 651 l 818 705 l 467 705 l 467 651 l 548 651 l 548 217 q 455 147 509 172 q 345 122 401 122 q 234 164 280 122 q 189 264 189 207 q 225 365 189 322 q 311 407 261 407 l 351 407 l 351 448 l 311 448 q 225 484 262 448 q 189 570 189 521 q 218 647 189 615 q 290 678 248 678 q 333 667 314 678 q 351 637 351 656 q 324 644 343 644 q 276 626 296 644 q 256 583 256 608 q 278 539 256 557 q 331 522 300 522 q 384 544 363 522 q 406 597 406 566 q 361 684 406 648 q 250 719 317 719 q 115 674 170 719 q 60 563 60 629 q 100 477 60 517 q 202 427 141 438 l 202 420 q 95 360 137 410 q 53 244 53 310 q 123 110 53 166 q 290 54 193 54 q 429 81 364 54 q 548 163 493 109 "},"न":{"ha":869,"x_min":-4,"x_max":917,"o":"m 294 95 q 199 151 239 95 q 159 285 159 207 q 199 418 159 362 q 294 475 239 475 q 390 420 351 475 q 430 285 430 365 q 390 150 430 205 q 294 95 350 95 m 647 366 l 647 81 q 618 43 647 58 q 552 27 590 27 l 552 0 l 864 0 l 864 27 q 798 43 827 27 q 769 81 769 59 l 769 651 l 917 651 l 917 705 l -4 705 l -4 651 l 647 651 l 647 420 q 503 492 591 468 q 294 515 415 515 q 112 447 188 515 q 37 285 37 379 q 112 122 37 191 q 294 54 188 54 q 477 122 402 54 q 552 285 552 189 q 524 385 552 340 q 444 454 495 431 q 555 421 505 444 q 647 366 606 399 m 351 543 "},"ऩ":{"ha":869,"x_min":-4,"x_max":917,"o":"m 294 149 q 199 197 239 149 q 159 312 159 245 q 199 427 159 379 q 294 475 239 475 q 390 428 351 475 q 430 312 430 380 q 390 196 430 243 q 294 149 351 149 m 647 366 l 647 81 q 618 43 647 58 q 552 27 590 27 l 552 0 l 864 0 l 864 27 q 798 43 827 27 q 769 81 769 59 l 769 651 l 917 651 l 917 705 l -4 705 l -4 651 l 647 651 l 647 420 q 503 492 591 468 q 294 515 415 515 q 112 455 188 515 q 37 312 37 395 q 112 169 37 229 q 294 109 188 109 q 477 168 402 109 q 552 312 552 227 q 524 393 552 355 q 444 454 496 431 q 555 421 505 444 q 647 366 606 399 m 292 -75 q 334 -57 316 -75 q 351 -15 351 -39 q 334 27 351 9 q 292 45 316 45 q 250 27 267 45 q 232 -15 232 9 q 250 -57 232 -39 q 292 -75 267 -75 m 351 543 "},"प":{"ha":681,"x_min":-4,"x_max":728,"o":"m 458 651 l 458 312 q 418 216 458 256 q 323 176 378 176 q 228 217 269 176 q 187 312 187 258 l 187 651 l 458 651 m 458 197 l 458 81 q 430 43 458 58 q 363 27 401 27 l 363 0 l 675 0 l 675 27 q 609 43 638 27 q 581 81 581 59 l 581 651 l 728 651 l 728 705 l -4 705 l -4 651 l 65 651 l 65 326 q 129 172 65 235 q 282 109 192 109 q 384 131 340 109 q 458 197 428 153 "},"फ":{"ha":910,"x_min":-4,"x_max":958,"o":"m 393 651 l 393 285 q 364 213 393 243 q 292 183 334 183 q 220 213 250 183 q 190 285 190 243 l 190 651 l 393 651 m 393 176 l 393 81 q 365 43 393 58 q 298 27 336 27 l 298 0 l 610 0 l 610 27 q 544 43 573 27 q 515 81 515 59 l 515 475 q 610 522 556 522 q 697 470 662 522 q 732 339 732 417 q 696 204 732 259 q 610 149 661 149 q 549 163 575 149 l 543 136 q 637 109 575 109 q 805 171 741 109 q 868 339 868 234 q 806 507 868 445 q 637 570 743 570 q 515 529 562 570 l 515 651 l 958 651 l 958 705 l -4 705 l -4 651 l 68 651 l 68 285 q 120 169 68 215 q 244 122 172 122 q 393 176 327 122 "},"ब":{"ha":696,"x_min":-4,"x_max":743,"o":"m 412 156 q 333 133 373 133 q 217 183 273 133 q 161 319 161 234 q 209 461 161 421 l 412 156 m 473 488 l 473 183 l 460 176 l 250 495 q 362 525 299 525 q 473 488 420 525 m 473 149 l 473 81 q 445 43 473 58 q 378 27 416 27 l 378 0 l 690 0 l 690 27 q 624 43 653 27 q 595 81 595 59 l 595 651 l 743 651 l 743 705 l -4 705 l -4 651 l 473 651 l 473 515 q 297 570 408 570 q 114 498 189 570 q 39 326 39 427 q 115 153 39 225 q 297 81 191 81 q 473 149 391 81 "},"भ":{"ha":806,"x_min":54,"x_max":853,"o":"m 312 570 q 290 493 312 526 q 237 461 269 461 q 184 493 206 461 q 163 570 163 526 q 184 656 163 621 q 237 692 206 692 q 290 656 269 692 q 312 570 312 621 m 312 339 l 312 183 q 292 106 312 137 q 244 75 273 75 q 195 113 214 75 q 176 209 176 151 q 202 302 176 265 q 271 339 229 339 l 312 339 m 583 339 l 583 81 q 555 43 583 58 q 488 27 526 27 l 488 0 l 800 0 l 800 27 q 734 43 763 27 q 705 81 705 59 l 705 651 l 853 651 l 853 705 l 461 705 l 461 651 l 583 651 l 583 380 l 434 380 l 434 556 q 378 682 434 631 q 244 732 322 732 q 115 685 169 732 q 61 570 61 637 q 107 464 61 508 q 217 420 153 420 q 312 461 277 420 l 312 380 l 231 380 q 106 333 158 380 q 54 217 54 287 q 110 88 54 142 q 244 34 166 34 q 378 92 322 34 q 434 231 434 150 l 434 339 l 583 339 "},"म":{"ha":796,"x_min":-4,"x_max":844,"o":"m 844 651 l 844 705 l -4 705 l -4 651 l 275 651 l 275 393 l 235 393 q 87 347 142 393 q 31 221 31 300 q 82 97 31 147 q 208 47 132 47 q 340 107 283 47 q 397 244 397 168 l 397 346 l 574 346 l 574 81 q 545 43 574 58 q 479 27 517 27 l 479 0 l 791 0 l 791 27 q 725 43 753 27 q 696 81 696 59 l 696 651 l 844 651 m 574 393 l 397 393 l 397 651 l 574 651 l 574 393 m 275 190 q 256 119 275 149 q 208 88 237 88 q 153 213 153 88 q 174 309 153 270 q 228 347 194 347 l 275 347 l 275 190 "},"य":{"ha":773,"x_min":-4,"x_max":821,"o":"m 551 651 l 551 210 q 395 149 479 149 q 217 216 283 149 q 151 393 151 282 l 245 393 q 375 435 322 393 q 429 536 429 477 q 396 604 429 572 q 307 651 363 635 l 551 651 m 551 163 l 551 81 q 522 43 551 58 q 456 27 494 27 l 456 0 l 768 0 l 768 27 q 702 43 730 27 q 673 81 673 59 l 673 651 l 821 651 l 821 705 l -4 705 l -4 651 l 212 651 q 278 607 256 634 q 300 543 300 580 q 257 463 300 492 q 151 434 214 434 q 35 461 93 434 q 33 416 33 448 q 113 182 33 269 q 334 95 194 95 q 551 163 469 95 "},"र":{"ha":581,"x_min":-4,"x_max":628,"o":"m 628 651 l 628 705 l -4 705 l -4 651 l 184 651 q 311 580 261 637 q 361 448 361 523 q 297 294 361 357 q 144 231 234 231 q 75 237 119 231 q 8 244 24 243 l 8 217 q 65 180 24 214 q 171 81 106 146 q 260 22 209 43 q 361 0 311 0 q 477 33 425 0 q 551 122 530 66 l 524 142 q 474 87 503 107 q 415 68 444 68 q 319 104 373 68 q 212 203 265 140 q 427 269 336 203 q 517 427 517 335 q 457 572 517 509 q 307 651 398 635 l 628 651 "},"ऱ":{"ha":581,"x_min":-4,"x_max":628,"o":"m 628 651 l 628 705 l -4 705 l -4 651 l 184 651 q 311 580 261 637 q 361 448 361 523 q 297 294 361 357 q 144 231 234 231 q 75 237 119 231 q 8 244 24 243 l 8 217 q 65 180 24 214 q 171 81 106 146 q 260 22 209 43 q 361 0 311 0 q 477 33 425 0 q 551 122 530 66 l 524 142 q 474 87 503 107 q 415 68 444 68 q 319 104 373 68 q 212 203 265 140 q 427 269 336 203 q 517 427 517 335 q 457 572 517 509 q 307 651 398 635 l 628 651 m 102 -94 q 144 -77 126 -94 q 161 -35 161 -59 q 144 7 161 -10 q 102 25 126 25 q 60 7 77 25 q 42 -35 42 -10 q 60 -77 42 -59 q 102 -94 77 -94 "},"ल":{"ha":891,"x_min":-4,"x_max":939,"o":"m 669 488 l 669 81 q 640 43 669 58 q 574 27 612 27 l 574 0 l 886 0 l 886 27 q 820 43 848 27 q 791 81 791 59 l 791 651 l 939 651 l 939 705 l -4 705 l -4 651 l 669 651 l 669 536 q 566 501 609 530 q 506 427 522 471 q 421 521 479 486 q 296 556 364 556 q 118 477 191 556 q 45 285 45 398 q 118 93 45 173 q 296 14 192 14 q 438 61 398 14 l 418 81 q 336 54 385 54 q 217 118 267 54 q 167 271 167 182 q 216 424 167 359 q 336 488 266 488 q 443 440 400 488 q 486 326 486 393 l 519 326 q 556 439 519 389 q 648 490 593 490 q 669 488 658 490 "},"ळ":{"ha":894,"x_min":-4,"x_max":941,"o":"m 411 437 q 385 285 385 380 q 357 106 385 178 q 290 34 330 34 q 205 105 241 34 q 168 271 168 176 q 208 444 168 372 q 304 515 248 515 q 411 437 366 515 m 467 113 q 507 273 507 170 q 533 445 507 374 q 602 515 558 515 q 689 445 653 515 q 724 271 724 375 q 684 113 724 178 q 589 47 644 47 q 467 113 514 47 m 442 76 q 595 0 499 0 q 778 84 710 0 q 846 285 846 168 q 799 453 846 379 q 670 556 751 527 l 670 651 l 941 651 l 941 705 l -4 705 l -4 651 l 548 651 l 548 556 q 430 472 468 536 q 277 556 382 556 q 114 477 181 556 q 46 285 46 398 q 118 84 46 168 q 290 0 190 0 q 442 76 394 0 m 612 563 "},"ऴ":{"ha":894,"x_min":-4,"x_max":941,"o":"m 411 437 q 385 285 385 380 q 357 106 385 178 q 290 34 330 34 q 205 105 241 34 q 168 271 168 176 q 208 444 168 372 q 304 515 248 515 q 411 437 366 515 m 467 113 q 507 273 507 170 q 533 445 507 374 q 602 515 558 515 q 689 445 653 515 q 724 271 724 375 q 684 113 724 178 q 589 47 644 47 q 467 113 514 47 m 442 76 q 595 0 499 0 q 778 84 710 0 q 846 285 846 168 q 799 453 846 379 q 670 556 751 527 l 670 651 l 941 651 l 941 705 l -4 705 l -4 651 l 548 651 l 548 556 q 430 472 468 536 q 277 556 382 556 q 114 477 181 556 q 46 285 46 398 q 118 84 46 168 q 290 0 190 0 q 442 76 394 0 m 612 563 m 427 -148 q 469 -130 451 -148 q 486 -88 486 -113 q 469 -46 486 -64 q 427 -28 451 -28 q 385 -46 402 -28 q 367 -88 367 -64 q 385 -130 367 -113 q 427 -148 402 -148 "},"व":{"ha":696,"x_min":-4,"x_max":743,"o":"m 473 203 q 324 142 401 142 q 208 201 255 142 q 161 339 161 259 q 207 478 161 421 q 324 536 253 536 q 473 468 417 536 l 473 203 m 595 651 l 743 651 l 743 705 l -4 705 l -4 651 l 473 651 l 473 515 q 297 583 391 583 q 114 512 189 583 q 39 339 39 440 q 115 167 39 239 q 297 95 191 95 q 473 156 401 95 l 473 81 q 445 43 473 58 q 378 27 416 27 l 378 0 l 690 0 l 690 27 q 624 43 653 27 q 595 81 595 59 l 595 651 "},"श":{"ha":903,"x_min":30,"x_max":951,"o":"m 328 353 q 222 396 266 353 q 179 502 179 439 q 222 608 179 565 q 328 651 266 651 q 432 609 393 651 q 472 500 472 567 q 431 396 472 439 q 328 353 391 353 m 464 377 q 419 208 464 273 q 301 142 374 142 q 206 203 258 142 l 30 203 l 30 176 q 109 137 72 169 q 179 47 146 104 q 262 -29 208 -3 q 396 -54 317 -54 l 477 -54 l 477 -20 q 353 12 397 -20 q 247 122 309 44 q 342 95 293 95 q 524 182 448 95 q 600 393 600 269 q 520 609 600 520 q 328 699 441 699 q 131 641 212 699 q 50 502 50 583 q 121 363 50 422 q 288 305 191 305 q 464 377 379 305 m 951 651 l 951 705 l 559 705 l 559 651 l 681 651 l 681 81 q 652 43 681 58 q 586 27 624 27 l 586 0 l 898 0 l 898 27 q 832 43 861 27 q 803 81 803 59 l 803 651 l 951 651 m 648 7 "},"ष":{"ha":724,"x_min":-4,"x_max":772,"o":"m 495 197 q 353 136 441 136 q 237 183 285 136 q 190 298 190 231 l 190 617 l 495 197 m 502 651 l 502 271 l 224 651 l 502 651 m 502 163 l 502 81 q 473 43 502 58 q 407 27 445 27 l 407 0 l 719 0 l 719 27 q 653 43 682 27 q 624 81 624 59 l 624 651 l 772 651 l 772 705 l -4 705 l -4 651 l 68 651 l 68 298 q 139 145 68 210 q 312 81 211 81 q 502 163 433 81 "},"स":{"ha":901,"x_min":-4,"x_max":949,"o":"m 679 346 l 679 82 q 649 41 679 55 q 585 28 619 28 l 585 0 l 897 0 l 897 28 q 830 44 858 28 q 802 82 802 60 l 802 652 l 949 652 l 949 705 l -4 705 l -4 652 l 193 652 q 237 639 205 652 q 294 606 269 627 q 337 559 319 585 q 365 504 355 533 q 374 444 374 475 q 307 300 374 356 q 139 244 240 244 q 14 267 85 244 l 3 231 q 144 109 49 219 q 250 24 200 47 q 358 0 300 0 q 550 122 494 0 l 524 143 q 415 68 479 68 q 332 94 375 68 q 211 214 290 120 q 399 251 326 214 q 504 363 473 288 q 611 339 555 339 q 679 346 638 339 m 679 400 q 611 386 640 386 q 517 415 557 386 q 460 568 517 507 q 300 652 404 630 l 679 652 l 679 400 "},"ह":{"ha":682,"x_min":-4,"x_max":730,"o":"m 730 651 l 730 705 l -4 705 l -4 651 l 441 651 l 441 543 l 278 543 q 177 515 218 543 q 136 448 136 487 q 203 359 136 393 q 81 288 127 338 q 34 176 34 237 q 131 3 34 61 q 420 -54 227 -54 l 604 -54 l 644 41 q 427 -14 576 -14 q 236 46 315 -14 q 156 190 156 106 q 217 307 156 261 q 359 353 278 353 q 475 313 428 353 q 522 217 522 273 q 488 141 522 173 q 407 109 454 109 q 332 129 360 109 l 332 95 q 454 54 382 54 q 588 100 531 54 q 644 217 644 146 q 571 346 644 298 q 373 393 498 393 q 298 387 336 393 q 264 441 264 414 q 288 479 264 464 q 351 495 312 495 l 563 495 l 563 651 l 730 651 "},"़":{"ha":0,"x_min":-640,"x_max":-521,"o":"m -581 -100 q -538 -83 -556 -100 q -521 -41 -521 -65 q -538 1 -521 -16 q -581 19 -556 19 q -623 1 -605 19 q -640 -41 -640 -16 q -623 -83 -640 -65 q -581 -100 -605 -100 "},"ऽ":{"ha":594,"x_min":22,"x_max":564,"o":"m 22 229 q 102 75 22 140 q 293 9 182 9 q 484 63 404 9 q 564 193 564 117 q 547 260 564 229 q 496 316 530 291 l 288 468 q 240 519 256 491 q 224 581 224 547 q 244 627 224 609 q 293 646 264 646 l 496 646 l 496 694 l 198 694 q 122 666 154 694 q 90 597 90 637 q 106 539 90 566 q 157 487 123 511 l 361 340 q 422 275 401 311 q 442 197 442 239 q 402 88 442 130 q 293 46 363 46 q 198 100 238 46 q 157 229 157 155 l 22 229 m 361 705 "},"ा":{"ha":323,"x_min":-4,"x_max":370,"o":"m 370 651 l 370 705 l -4 705 l -4 651 l 100 651 l 100 81 q 72 43 100 58 q 5 27 43 27 l 5 0 l 317 0 l 317 27 q 251 43 280 27 q 222 81 222 59 l 222 651 l 370 651 "},"ि":{"ha":323,"x_min":-4,"x_max":819,"o":"m 370 651 l 370 705 l -4 705 l -4 651 l 100 651 l 100 81 q 72 43 100 58 q 5 27 43 27 l 5 0 l 317 0 l 317 27 q 251 43 280 27 q 222 81 222 59 l 222 651 l 370 651 m 819 719 q 696 919 819 836 q 392 1001 573 1001 q 155 948 251 1001 q 60 822 60 896 q 100 719 60 764 l 222 719 q 182 822 182 764 q 243 922 182 880 q 392 963 304 963 q 609 892 520 963 q 697 719 697 821 l 819 719 "},"ी":{"ha":323,"x_min":-266,"x_max":370,"o":"m 370 651 l 370 705 l -4 705 l -4 651 l 100 651 l 100 81 q 72 43 100 58 q 5 27 43 27 l 5 0 l 317 0 l 317 27 q 251 43 280 27 q 222 81 222 59 l 222 651 l 370 651 m 222 719 l 222 758 q 140 933 222 862 q -62 1005 57 1005 q -208 958 -149 1005 q -266 842 -266 911 q -251 772 -266 806 q -212 719 -235 738 l -90 719 q -144 849 -144 783 q -112 931 -144 896 q -35 966 -81 966 q 61 905 21 966 q 100 758 100 845 l 100 719 l 222 719 "},"ु":{"ha":0,"x_min":-656,"x_max":22,"o":"m -656 -102 q -516 -258 -631 -197 q -250 -319 -402 -319 q -58 -265 -138 -319 q 22 -136 22 -212 q -29 -40 22 -79 q -155 0 -80 0 q -266 -33 -217 0 q -331 -122 -315 -66 l -209 -122 q -193 -65 -209 -90 q -155 -41 -178 -41 q -116 -67 -131 -41 q -100 -136 -100 -94 q -150 -227 -100 -189 q -270 -264 -199 -264 q -452 -217 -374 -264 q -534 -102 -529 -170 l -656 -102 "},"ू":{"ha":0,"x_min":-412,"x_max":252,"o":"m 252 -312 q 134 -91 252 -182 q -155 0 15 0 q -338 -54 -263 0 q -412 -183 -412 -107 q -360 -278 -412 -238 q -236 -319 -309 -319 q -121 -280 -171 -319 q -60 -183 -71 -242 l -182 -183 q -197 -251 -182 -224 q -236 -278 -213 -278 q -274 -249 -258 -278 q -290 -183 -290 -220 q -250 -83 -290 -125 q -155 -41 -210 -41 q 47 -119 -35 -41 q 130 -312 130 -198 l 252 -312 "},"ृ":{"ha":0,"x_min":-446,"x_max":-53,"o":"m -53 -326 l -53 -285 l -175 -285 q -280 -249 -237 -285 q -324 -163 -324 -212 q -281 -76 -324 -112 q -175 -41 -238 -41 l -53 -41 l -53 0 l -175 0 q -372 -45 -298 0 q -446 -163 -446 -90 q -372 -280 -446 -235 q -175 -326 -298 -326 l -53 -326 "},"ॄ":{"ha":0,"x_min":-426,"x_max":-53,"o":"m -53 -332 l -53 -297 l -202 -297 q -269 -281 -241 -297 q -297 -241 -297 -264 q -270 -197 -297 -214 q -209 -180 -243 -180 l -141 -180 l -141 -142 l -222 -142 q -275 -128 -253 -142 q -297 -94 -297 -113 q -269 -52 -297 -69 q -202 -34 -241 -34 l -94 -34 l -94 4 l -283 4 q -381 -19 -336 4 q -426 -80 -426 -41 q -398 -133 -426 -110 q -331 -161 -370 -155 q -400 -198 -374 -175 q -426 -241 -426 -220 q -388 -306 -426 -279 q -297 -332 -349 -332 l -53 -332 "},"ॅ":{"ha":0,"x_min":-439,"x_max":130,"o":"m 130 990 l -5 990 q -47 866 -5 918 q -155 814 -90 814 q -262 866 -220 814 q -304 990 -304 918 l -439 990 q -356 837 -439 901 q -155 773 -272 773 q 47 837 -36 773 q 130 990 130 900 "},"ॆ":{"ha":0,"x_min":-670,"x_max":-107,"o":"m -107 719 q -181 837 -107 792 q -349 882 -255 882 q -480 931 -425 882 q -534 1051 -534 981 l -670 1051 q -596 903 -670 964 q -416 842 -522 842 q -275 806 -334 842 q -216 719 -216 770 l -107 719 "},"े":{"ha":0,"x_min":-602,"x_max":-73,"o":"m -73 719 l -73 751 l -87 751 q -155 777 -127 751 l -358 964 q -453 1004 -400 1004 l -602 1004 l -602 964 l -575 964 q -529 959 -546 964 q -494 939 -511 954 l -277 745 q -209 719 -248 719 l -73 719 "},"ै":{"ha":0,"x_min":-670,"x_max":-19,"o":"m -19 773 l -19 814 l -33 814 q -87 841 -66 814 l -197 981 q -267 1017 -225 1017 l -467 1017 l -467 977 l -372 977 q -298 943 -326 977 l -187 806 q -127 773 -161 773 l -19 773 m -155 719 l -155 760 l -197 760 q -269 787 -235 760 l -439 922 q -521 949 -473 949 l -670 949 l -670 909 l -616 909 q -548 882 -583 909 l -385 753 q -304 719 -342 719 l -155 719 "},"ॉ":{"ha":323,"x_min":-290,"x_max":370,"o":"m 370 651 l 370 705 l -4 705 l -4 651 l 100 651 l 100 81 q 72 43 100 58 q 5 27 43 27 l 5 0 l 317 0 l 317 27 q 251 43 280 27 q 222 81 222 59 l 222 651 l 370 651 m 279 983 l 144 983 q 102 859 144 911 q -5 807 60 807 q -113 859 -71 807 q -155 983 -155 911 l -290 983 q -207 830 -290 895 q -5 766 -123 766 q 196 830 113 766 q 279 983 279 893 "},"ॊ":{"ha":323,"x_min":-349,"x_max":370,"o":"m 370 651 l 370 705 l -4 705 l -4 651 l 100 651 l 100 81 q 72 43 100 58 q 5 27 43 27 l 5 0 l 317 0 l 317 27 q 251 43 280 27 q 222 81 222 59 l 222 651 l 370 651 m 214 719 q 140 837 214 792 q -28 882 66 882 q -159 931 -104 882 q -214 1051 -214 981 l -349 1051 q -275 903 -349 964 q -96 842 -201 842 q 46 806 -13 842 q 105 719 105 770 l 214 719 "},"ो":{"ha":323,"x_min":-272,"x_max":370,"o":"m 370 651 l 370 705 l -4 705 l -4 651 l 100 651 l 100 81 q 72 43 100 58 q 5 27 43 27 l 5 0 l 317 0 l 317 27 q 251 43 280 27 q 222 81 222 59 l 222 651 l 370 651 m 257 719 l 257 751 l 243 751 q 176 777 203 751 l -28 964 q -123 1004 -70 1004 l -272 1004 l -272 964 l -245 964 q -198 959 -216 964 q -163 939 -181 954 l 54 745 q 121 719 83 719 l 257 719 "},"ौ":{"ha":323,"x_min":-271,"x_max":380,"o":"m 370 651 l 370 705 l -4 705 l -4 651 l 100 651 l 100 81 q 72 43 100 58 q 5 27 43 27 l 5 0 l 317 0 l 317 27 q 251 43 280 27 q 222 81 222 59 l 222 651 l 370 651 m 380 773 l 380 814 l 366 814 q 312 841 333 814 l 202 981 q 132 1017 174 1017 l -68 1017 l -68 977 l 27 977 q 100 943 73 977 l 212 806 q 271 773 238 773 l 380 773 m 244 719 l 244 760 l 202 760 q 130 787 164 760 l -41 922 q -122 949 -75 949 l -271 949 l -271 909 l -217 909 q -149 882 -184 909 l 14 753 q 95 719 56 719 l 244 719 "},"्":{"ha":0,"x_min":-304,"x_max":252,"o":"m 252 -292 l -87 -20 l -222 -20 l -304 -88 l -222 -88 l -182 -61 l 117 -292 l 252 -292 "},"ॐ":{"ha":1150,"x_min":26,"x_max":1111,"o":"m 26 339 q 109 101 26 202 q 317 0 192 0 q 510 59 431 0 q 589 203 589 119 q 546 318 589 270 q 433 380 503 367 l 433 387 q 520 436 485 396 q 555 529 555 475 q 489 646 555 601 q 338 692 423 692 q 213 668 264 692 q 134 597 162 644 l 168 576 q 229 627 197 610 q 297 644 261 644 q 393 611 353 644 q 433 529 433 577 q 393 438 433 475 q 297 400 353 400 l 229 400 l 229 359 l 283 359 q 399 314 352 359 q 446 203 446 269 q 402 111 446 148 q 297 75 357 75 q 132 154 198 75 q 66 339 66 233 l 26 339 m 636 876 q 678 894 661 876 q 696 936 696 911 q 678 978 696 960 q 636 996 661 996 q 594 978 612 996 q 576 936 576 960 q 594 894 576 911 q 636 876 612 876 m 867 882 l 745 882 q 713 775 745 818 q 636 732 681 732 q 560 776 592 732 q 528 882 528 820 l 406 882 q 475 746 406 800 q 636 692 545 692 q 797 746 728 692 q 867 882 867 800 m 704 109 q 873 68 777 68 q 1041 135 972 68 q 1111 298 1111 203 q 1036 476 1111 404 q 853 549 961 549 q 711 479 797 549 q 568 407 623 407 l 568 359 q 693 414 609 353 q 840 475 777 475 q 947 422 905 475 q 989 298 989 370 q 945 169 989 223 q 840 115 901 115 q 718 142 755 115 l 704 109 "},"॑":{"ha":0,"x_min":-195,"x_max":-114,"o":"m -114 793 l -114 1010 l -195 1010 l -195 793 l -114 793 "},"॒":{"ha":0,"x_min":-655,"x_max":-107,"o":"m -107 -68 l -107 -14 l -655 -14 l -655 -68 l -107 -68 "},"॓":{"ha":0,"x_min":-274,"x_max":-38,"o":"m -38 789 l -142 981 l -274 981 l -77 789 l -38 789 "},"॔":{"ha":0,"x_min":-270,"x_max":-34,"o":"m -34 981 l -165 981 l -270 789 l -231 789 l -34 981 "},"क़":{"ha":1069,"x_min":-4,"x_max":1116,"o":"m 473 203 q 324 142 401 142 q 208 201 255 142 q 161 339 161 259 q 207 478 161 421 q 324 536 253 536 q 473 468 417 536 l 473 203 m 595 475 q 745 536 648 536 q 860 478 813 536 q 907 339 907 421 q 860 200 907 258 q 745 142 812 142 q 636 183 683 142 l 623 149 q 772 95 691 95 q 954 166 878 95 q 1029 339 1029 237 q 955 513 1029 442 q 772 583 880 583 q 595 529 662 583 l 595 651 l 1116 651 l 1116 705 l -4 705 l -4 651 l 473 651 l 473 515 q 297 583 391 583 q 114 512 189 583 q 39 339 39 440 q 115 167 39 239 q 297 95 191 95 q 473 156 401 95 l 473 81 q 445 43 473 58 q 378 27 416 27 l 378 0 l 690 0 l 690 27 q 624 43 653 27 q 595 81 595 59 l 595 475 m 293 -182 q 335 -164 317 -182 q 353 -122 353 -146 q 335 -80 353 -98 q 293 -62 317 -62 q 251 -80 269 -62 q 233 -122 233 -98 q 251 -164 233 -146 q 293 -182 269 -182 "},"ख़":{"ha":1166,"x_min":-4,"x_max":1214,"o":"m 944 203 q 880 139 921 163 q 795 115 840 115 q 670 181 722 115 q 618 339 618 248 q 670 488 618 427 q 795 549 721 549 q 944 461 911 549 l 944 203 m 944 142 l 944 81 q 916 43 944 58 q 849 27 887 27 l 849 0 l 1161 0 l 1161 27 q 1095 43 1124 27 q 1066 81 1066 59 l 1066 651 l 1214 651 l 1214 705 l -4 705 l -4 651 l 212 651 q 311 581 274 629 q 347 475 347 532 q 289 313 347 382 q 144 244 231 244 q 22 271 96 244 l 8 231 q 198 88 56 231 q 401 0 286 0 q 520 27 463 0 q 618 102 578 54 q 768 68 680 68 q 862 88 814 68 q 944 142 909 108 m 944 529 q 768 597 861 597 q 575 521 654 597 q 496 339 496 446 q 522 218 496 276 q 591 122 547 159 q 483 68 525 68 q 350 106 419 68 q 225 210 281 144 q 398 280 326 210 q 469 448 469 349 q 419 575 469 519 q 293 651 370 631 l 944 651 l 944 529 m 92 -75 q 134 -58 116 -75 q 151 -16 151 -40 q 134 26 151 9 q 92 44 116 44 q 50 26 67 44 q 32 -16 32 9 q 50 -58 32 -40 q 92 -75 67 -75 "},"ग़":{"ha":856,"x_min":-4,"x_max":903,"o":"m 233 420 q 292 386 269 420 q 315 298 315 351 q 291 212 315 247 q 233 176 267 176 q 176 213 200 176 q 152 298 152 250 q 176 384 152 347 q 233 420 199 420 m 633 651 l 633 81 q 605 43 633 58 q 538 27 576 27 l 538 0 l 850 0 l 850 27 q 784 43 813 27 q 755 81 755 59 l 755 651 l 903 651 l 903 705 l -4 705 l -4 651 l 179 651 q 343 566 277 633 q 410 407 410 498 q 382 298 410 332 l 376 298 q 329 419 376 370 q 213 468 281 468 q 84 419 138 468 q 30 301 30 370 q 90 184 30 233 q 233 136 150 136 q 444 215 356 136 q 532 407 532 294 q 461 565 532 497 q 288 651 391 633 l 633 651 m 571 7 m 252 -134 q 294 -117 277 -134 q 312 -75 312 -99 q 294 -33 312 -50 q 252 -15 277 -15 q 210 -33 228 -15 q 193 -75 193 -50 q 210 -117 193 -99 q 252 -134 228 -134 "},"ज़":{"ha":905,"x_min":-4,"x_max":952,"o":"m 682 448 l 682 81 q 654 43 682 58 q 587 27 625 27 l 587 0 l 899 0 l 899 27 q 833 43 862 27 q 804 81 804 59 l 804 651 l 952 651 l 952 705 l -4 705 l -4 651 l 682 651 l 682 489 l 275 489 l 275 448 l 302 448 q 418 399 371 448 q 465 278 465 349 q 422 172 465 216 q 316 129 379 129 q 151 227 218 129 q 72 454 83 325 l 31 454 q 125 153 31 279 q 350 27 218 27 q 518 95 448 27 q 587 258 587 162 q 551 374 587 323 q 452 448 515 425 l 682 448 m 355 -163 q 397 -146 379 -163 q 414 -104 414 -128 q 397 -62 414 -79 q 355 -44 379 -44 q 313 -62 330 -44 q 295 -104 295 -79 q 313 -146 295 -128 q 355 -163 330 -163 "},"ड़":{"ha":766,"x_min":-4,"x_max":814,"o":"m 814 651 l 814 705 l -4 705 l -4 651 l 513 651 l 513 556 l 343 556 q 211 527 261 556 q 160 448 160 497 q 212 354 160 389 q 343 319 263 319 l 450 319 q 534 286 501 319 q 567 203 567 252 q 518 102 567 143 q 397 61 469 61 q 174 153 270 61 q 65 380 77 245 l 24 373 q 141 109 38 217 q 391 0 245 0 q 601 62 513 0 q 689 210 689 123 q 634 321 689 276 q 499 366 578 366 l 418 366 q 316 383 350 366 q 282 434 282 400 q 313 485 282 468 q 404 502 343 502 l 635 502 l 635 651 l 814 651 m 388 -182 q 430 -165 412 -182 q 448 -123 448 -147 q 430 -81 448 -98 q 388 -63 412 -63 q 346 -81 363 -63 q 328 -123 328 -98 q 346 -165 328 -147 q 388 -182 363 -182 "},"ढ़":{"ha":781,"x_min":-4,"x_max":829,"o":"m 829 651 l 829 705 l -4 705 l -4 651 l 514 651 l 514 543 l 378 543 q 138 464 237 543 q 39 271 39 385 q 136 80 39 160 q 365 0 232 0 l 514 0 q 676 63 608 0 q 745 217 745 126 q 685 361 745 302 q 541 420 626 420 q 397 363 456 420 q 338 224 338 306 q 360 116 338 164 q 419 41 382 67 l 365 41 q 220 110 278 41 q 161 271 161 178 q 245 434 161 366 q 446 502 329 502 l 636 502 l 636 651 l 829 651 m 514 366 q 591 322 560 366 q 623 210 623 277 q 591 90 623 138 q 514 41 559 41 q 428 91 465 41 q 392 210 392 141 q 428 320 392 274 q 514 366 463 366 m 408 -182 q 450 -164 433 -182 q 468 -122 468 -146 q 450 -80 468 -98 q 408 -62 433 -62 q 366 -80 384 -62 q 349 -122 349 -98 q 366 -164 349 -146 q 408 -182 384 -182 "},"फ़":{"ha":910,"x_min":-4,"x_max":958,"o":"m 393 651 l 393 285 q 364 213 393 243 q 292 183 334 183 q 220 213 250 183 q 190 285 190 243 l 190 651 l 393 651 m 393 176 l 393 81 q 365 43 393 58 q 298 27 336 27 l 298 0 l 610 0 l 610 27 q 544 43 573 27 q 515 81 515 59 l 515 475 q 610 522 556 522 q 697 470 662 522 q 732 339 732 417 q 696 204 732 259 q 610 149 661 149 q 549 163 575 149 l 543 136 q 637 109 575 109 q 805 171 741 109 q 868 339 868 234 q 806 507 868 445 q 637 570 743 570 q 515 529 562 570 l 515 651 l 958 651 l 958 705 l -4 705 l -4 651 l 68 651 l 68 285 q 120 169 68 215 q 244 122 172 122 q 393 176 327 122 m 239 -182 q 281 -164 263 -182 q 298 -122 298 -146 q 281 -80 298 -98 q 239 -62 263 -62 q 197 -80 214 -62 q 179 -122 179 -98 q 197 -164 179 -146 q 239 -182 214 -182 "},"य़":{"ha":773,"x_min":-4,"x_max":821,"o":"m 551 651 l 551 210 q 395 149 479 149 q 217 216 283 149 q 151 393 151 282 l 245 393 q 375 435 322 393 q 429 536 429 477 q 396 604 429 572 q 307 651 363 635 l 551 651 m 551 163 l 551 81 q 522 43 551 58 q 456 27 494 27 l 456 0 l 768 0 l 768 27 q 702 43 730 27 q 673 81 673 59 l 673 651 l 821 651 l 821 705 l -4 705 l -4 651 l 212 651 q 278 607 256 634 q 300 543 300 580 q 257 463 300 492 q 151 434 214 434 q 35 461 93 434 q 33 416 33 448 q 113 182 33 269 q 334 95 194 95 q 551 163 469 95 m 240 -81 q 282 -64 264 -81 q 300 -22 300 -46 q 282 20 300 3 q 240 38 264 38 q 198 20 216 38 q 180 -22 180 3 q 198 -64 180 -46 q 240 -81 216 -81 "},"ॠ":{"ha":987,"x_min":-4,"x_max":1035,"o":"m 1035 651 l 1035 705 l -4 705 l -4 651 l 422 651 l 422 298 l 415 292 l 381 372 q 288 510 342 464 q 164 556 233 556 q 15 495 87 556 l 42 461 q 144 502 88 502 q 197 462 168 502 q 263 342 227 422 l 313 231 l 42 95 l 62 54 l 422 237 l 422 95 q 402 46 422 66 q 354 27 382 27 l 354 0 l 612 0 l 612 27 q 564 47 585 27 q 544 95 544 68 l 544 278 l 753 393 q 829 298 762 339 q 726 236 766 282 q 686 136 686 191 q 748 19 686 67 q 895 -30 809 -30 q 985 -14 941 -30 l 971 27 q 930 19 955 19 q 854 56 887 19 q 822 142 822 92 q 849 228 822 191 q 917 264 877 264 l 910 312 q 828 342 861 312 q 795 407 795 373 q 861 451 839 431 q 883 488 883 471 q 868 528 883 513 q 829 543 853 543 q 771 512 795 543 q 747 441 747 481 l 544 326 l 544 651 l 1035 651 "},"ॡ":{"ha":922,"x_min":-4,"x_max":970,"o":"m 764 326 q 716 186 764 243 q 604 129 669 129 q 491 101 542 129 q 441 27 441 73 q 469 -25 441 -3 q 536 -54 497 -48 q 441 -142 441 -87 q 503 -214 441 -184 q 651 -244 565 -244 l 814 -244 l 814 -203 l 665 -203 q 598 -186 626 -203 q 570 -142 570 -168 q 595 -94 570 -114 q 658 -75 620 -75 l 726 -75 l 726 -34 l 644 -34 q 592 -18 614 -34 q 570 20 570 -2 q 603 68 570 49 q 686 88 635 88 q 826 158 767 88 q 884 326 884 229 q 836 462 884 404 q 711 536 787 521 l 711 651 l 970 651 l 970 705 l -4 705 l -4 651 l 604 651 l 604 529 q 473 420 503 500 q 397 510 451 477 q 275 543 344 543 q 109 467 177 543 q 41 285 41 391 q 110 118 41 188 q 277 47 180 47 q 396 109 352 47 l 377 136 q 301 102 342 102 q 210 160 244 102 q 175 292 175 218 q 215 424 175 366 q 317 481 255 481 q 415 437 376 481 q 454 326 454 392 l 492 326 q 534 436 492 391 q 635 481 576 481 q 726 434 688 481 q 764 326 764 387 "},"ॢ":{"ha":0,"x_min":-471,"x_max":151,"o":"m 57 -160 q 27 -250 57 -212 q -50 -289 -3 -289 q -141 -322 -104 -289 q -178 -403 -178 -356 q -121 -491 -178 -460 q 20 -522 -64 -522 l 94 -522 l 94 -492 l 20 -492 q -57 -465 -24 -492 q -90 -403 -90 -438 q -65 -343 -90 -368 q -9 -319 -41 -319 q 104 -272 58 -319 q 151 -156 151 -224 q 106 -43 151 -90 q -5 3 61 3 q -155 -87 -125 3 q -298 3 -191 3 q -421 -51 -372 3 q -471 -179 -471 -104 q -419 -305 -471 -252 q -297 -358 -368 -358 q -250 -346 -274 -358 q -212 -313 -226 -334 l -225 -294 q -281 -319 -250 -319 q -352 -276 -325 -319 q -378 -179 -378 -234 q -347 -83 -378 -123 q -269 -42 -315 -42 q -197 -75 -225 -42 q -168 -156 -168 -107 l -141 -156 q -111 -76 -141 -109 q -38 -42 -81 -42 q 30 -76 3 -42 q 57 -160 57 -110 "},"ॣ":{"ha":0,"x_min":-471,"x_max":151,"o":"m 57 -160 q 26 -267 57 -225 q -50 -309 -5 -309 q -140 -334 -102 -309 q -178 -393 -178 -358 q -157 -423 -178 -408 q -109 -444 -136 -438 q -160 -473 -142 -455 q -178 -509 -178 -491 q -147 -560 -178 -538 q -73 -582 -116 -582 l 94 -582 l 94 -552 l -16 -552 q -65 -539 -44 -552 q -85 -509 -85 -526 q -65 -472 -85 -486 q -20 -458 -45 -458 l 30 -458 l 30 -429 l -30 -429 q -85 -387 -85 -429 q -60 -353 -85 -368 q 1 -338 -35 -338 q 107 -287 64 -336 q 151 -159 151 -237 q 106 -43 151 -90 q -5 3 61 3 q -155 -87 -125 3 q -298 3 -191 3 q -421 -51 -372 3 q -471 -179 -471 -104 q -419 -305 -471 -252 q -297 -358 -368 -358 q -250 -346 -274 -358 q -212 -313 -226 -334 l -225 -294 q -281 -319 -250 -319 q -352 -276 -325 -319 q -378 -179 -378 -234 q -347 -83 -378 -123 q -269 -42 -315 -42 q -197 -75 -225 -42 q -168 -156 -168 -107 l -141 -156 q -111 -76 -141 -109 q -38 -42 -81 -42 q 30 -76 3 -42 q 57 -160 57 -110 "},"।":{"ha":326,"x_min":95,"x_max":231,"o":"m 231 -68 l 231 746 l 95 746 l 95 -68 l 231 -68 "},"॥":{"ha":624,"x_min":95,"x_max":529,"o":"m 529 -68 l 529 746 l 393 746 l 393 -68 l 529 -68 m 231 -68 l 231 746 l 95 746 l 95 -68 l 231 -68 "},"०":{"ha":678,"x_min":68,"x_max":610,"o":"m 339 81 q 531 156 451 81 q 610 339 610 231 q 532 522 610 448 q 339 597 453 597 q 147 521 226 597 q 68 339 68 446 q 148 157 68 233 q 339 81 228 81 m 339 543 q 435 484 395 543 q 475 339 475 425 q 435 195 475 254 q 339 136 395 136 q 244 196 284 136 q 203 339 203 256 q 243 482 203 422 q 339 543 283 543 m 393 -68 m 393 746 "},"१":{"ha":678,"x_min":149,"x_max":529,"o":"m 285 285 q 463 407 396 326 q 529 583 529 488 q 469 718 529 663 q 326 773 409 773 q 201 727 253 773 q 149 610 149 680 q 204 476 149 531 q 339 420 260 420 q 266 351 313 385 q 149 285 218 317 l 339 81 q 359 43 353 66 q 366 -14 366 19 q 353 -54 366 -44 l 488 -54 q 502 -14 502 -44 q 485 51 502 17 q 434 122 468 85 l 285 285 m 407 583 q 395 509 407 543 q 359 448 383 475 q 296 511 320 466 q 271 610 271 557 q 287 695 271 659 q 326 732 302 732 q 383 690 359 732 q 407 583 407 648 m 170 -68 m 170 746 "},"२":{"ha":678,"x_min":68,"x_max":610,"o":"m 312 224 q 522 289 434 224 q 610 448 610 355 q 524 631 610 556 q 312 705 437 705 q 68 583 172 705 l 88 549 q 292 631 187 631 q 431 578 374 631 q 488 448 488 525 q 420 318 488 372 q 258 264 351 264 q 170 289 229 264 q 81 312 115 312 l 68 285 q 203 149 140 260 q 302 40 243 80 q 420 0 361 0 q 570 68 513 0 l 543 102 q 461 61 507 61 q 378 107 418 61 q 312 224 338 153 m 393 -68 m 393 746 "},"३":{"ha":678,"x_min":68,"x_max":610,"o":"m 610 -27 l 583 0 q 488 -54 536 -54 q 406 -34 450 -54 q 312 27 362 -14 q 522 77 434 27 q 610 197 610 126 q 543 314 610 267 q 380 362 476 362 l 380 372 q 538 411 467 372 q 610 515 610 450 q 525 653 610 600 q 332 705 439 705 q 68 583 191 705 l 95 549 q 213 606 143 588 q 312 624 282 624 q 425 592 375 624 q 475 509 475 560 q 394 427 475 460 q 258 393 313 393 l 203 393 l 203 339 l 258 339 q 408 295 340 332 q 475 203 475 258 q 412 117 475 153 q 264 81 350 81 q 174 102 234 81 q 81 122 113 122 l 68 95 q 176 27 128 84 q 300 -85 239 -47 q 420 -122 361 -122 q 529 -97 477 -122 q 610 -27 580 -71 m 156 -68 m 156 746 "},"४":{"ha":677,"x_min":64,"x_max":613,"o":"m 613 665 l 484 665 q 434 468 484 555 q 301 353 383 382 q 217 467 249 383 q 186 665 186 551 l 64 665 q 116 458 64 550 q 260 332 169 366 q 166 264 201 310 q 132 163 132 219 q 193 46 132 92 q 335 0 254 0 q 477 46 416 0 q 538 163 538 92 q 500 250 538 212 q 403 298 462 288 q 555 432 497 332 q 613 665 613 532 m 362 278 q 423 163 423 243 q 397 67 423 108 q 335 27 372 27 q 278 60 302 27 q 254 136 254 92 l 254 163 q 283 218 254 186 q 362 278 313 250 m 393 -68 m 393 746 "},"५":{"ha":678,"x_min":41,"x_max":637,"o":"m 495 244 q 599 349 561 281 q 637 495 637 416 q 586 644 637 583 q 461 705 535 705 q 326 645 381 705 q 271 502 271 585 q 298 354 271 418 q 380 244 326 290 q 339 231 357 231 q 213 291 263 231 q 163 434 163 352 l 163 705 l 41 705 l 41 434 q 126 261 41 333 q 332 190 212 190 q 400 210 364 190 q 420 109 420 155 q 397 55 420 77 q 339 34 374 34 l 271 34 l 271 0 l 380 0 q 491 34 446 0 q 536 115 536 67 q 495 244 536 174 m 461 298 q 410 391 427 340 q 393 502 393 442 q 413 596 393 555 q 461 637 433 637 q 510 598 490 637 q 529 502 529 559 q 512 391 529 442 q 461 298 495 340 m 393 -68 m 393 746 "},"६":{"ha":678,"x_min":41,"x_max":637,"o":"m 637 170 l 502 170 q 481 88 490 103 q 339 54 420 54 q 225 95 273 54 q 176 197 176 136 q 228 293 176 254 q 380 332 279 332 l 448 332 l 448 387 l 393 387 q 269 423 321 387 q 217 509 217 459 q 268 595 217 559 q 393 631 319 631 q 549 583 493 631 l 576 617 q 326 699 478 699 q 155 652 229 699 q 81 536 81 606 q 129 433 81 477 q 244 377 176 389 l 245 369 q 98 304 155 352 q 41 197 41 256 q 125 67 41 121 q 326 14 209 14 q 407 27 362 14 q 464 47 452 40 q 374 -39 439 3 q 237 -81 309 -81 l 237 -122 q 503 -40 390 -122 q 637 170 616 43 m 136 -68 m 136 746 "},"७":{"ha":678,"x_min":34,"x_max":644,"o":"m 644 271 l 644 543 q 605 658 644 611 q 509 705 565 705 l 441 705 q 346 657 386 705 q 305 543 305 610 l 305 407 q 346 312 305 353 q 441 271 387 271 l 536 271 q 495 112 536 183 q 387 41 454 41 q 260 111 309 41 q 210 271 210 181 l 210 570 q 179 666 210 627 q 102 705 148 705 l 34 705 l 34 644 l 47 644 q 76 632 64 644 q 88 604 88 620 l 88 271 q 168 80 88 160 q 359 0 248 0 l 387 0 q 569 79 493 0 q 644 271 644 158 m 522 353 q 510 324 522 336 q 481 312 498 312 l 468 312 q 439 324 452 312 q 427 353 427 336 l 427 597 q 439 625 427 613 q 468 637 452 637 l 481 637 q 510 625 498 637 q 522 597 522 613 l 522 353 m 393 -68 m 393 746 "},"८":{"ha":678,"x_min":68,"x_max":610,"o":"m 610 203 l 610 244 l 488 244 l 488 203 q 446 89 488 136 q 339 41 403 41 q 233 89 275 41 q 190 203 190 136 q 238 334 190 267 q 373 454 286 400 q 506 574 456 506 q 556 705 556 642 l 434 705 q 384 574 434 642 q 251 454 334 506 q 116 334 163 400 q 68 203 68 267 q 148 60 68 120 q 339 0 227 0 q 531 59 452 0 q 610 203 610 119 m 393 -68 m 393 746 "},"९":{"ha":677,"x_min":77,"x_max":600,"o":"m 349 278 q 525 338 450 278 q 600 491 600 399 q 525 643 600 581 q 342 705 450 705 q 157 644 236 705 q 77 488 77 583 q 133 339 77 412 q 281 224 188 267 q 408 152 366 184 q 450 95 450 119 q 426 46 450 66 q 369 27 402 27 q 312 47 336 27 q 288 95 288 68 l 179 95 q 237 23 179 54 q 376 -7 295 -7 q 505 21 445 -7 q 566 95 566 48 q 509 181 566 134 q 349 278 452 229 m 342 651 q 448 603 406 651 q 491 488 491 555 q 447 369 491 418 q 342 319 404 319 q 232 369 278 319 q 186 488 186 419 q 232 603 186 555 q 342 651 277 651 m 393 -68 m 393 746 "},"॰":{"ha":629,"x_min":95,"x_max":534,"o":"m 315 -1 q 469 44 404 -1 q 534 153 534 90 q 470 262 534 218 q 315 307 406 307 q 160 262 224 307 q 95 153 95 217 q 160 44 95 90 q 315 -1 225 -1 m 315 263 q 393 232 362 263 q 425 153 425 201 q 393 74 425 106 q 315 42 361 42 q 237 75 269 42 q 205 153 205 108 q 236 231 205 199 q 315 263 268 263 "},"‌":{"ha":0,"x_min":0,"x_max":61,"o":"m 61 -332 l 61 1017 l 0 1017 l 0 -332 l 61 -332 "},"‍":{"ha":0,"x_min":-124,"x_max":173,"o":"m 173 754 l 57 869 l 173 983 l 140 1016 l 24 900 l -91 1016 l -124 983 l -8 869 l -124 754 l -91 721 l 0 813 l 0 -334 l 49 -334 l 49 813 l 140 721 l 173 754 "},"–":{"ha":559,"x_min":-9,"x_max":568,"o":"m 568 248 l 568 287 l -9 287 l -9 248 l 568 248 "},"—":{"ha":1118,"x_min":-10,"x_max":1128,"o":"m 1128 248 l 1128 288 l -10 288 l -10 248 l 1128 248 "},"‘":{"ha":372,"x_min":101,"x_max":267,"o":"m 242 758 q 149 700 181 735 q 101 583 101 647 q 130 506 101 536 q 196 475 159 475 q 250 495 227 475 q 267 538 267 511 q 251 579 267 563 q 212 595 234 595 q 188 591 203 595 q 172 587 178 587 q 158 595 164 587 q 152 621 152 604 q 167 671 152 650 q 242 734 186 700 l 242 758 "},"’":{"ha":372,"x_min":105,"x_max":272,"o":"m 130 475 q 223 532 191 497 q 272 650 272 585 q 243 727 272 696 q 177 758 214 758 q 122 736 145 758 q 105 694 105 721 q 122 653 105 669 q 161 637 139 637 q 184 642 170 637 q 200 646 195 646 q 214 637 208 646 q 220 612 220 629 q 206 562 220 583 q 130 500 186 533 l 130 475 "},"“":{"ha":496,"x_min":37,"x_max":465,"o":"m 178 758 q 73 688 109 735 q 37 586 37 640 q 66 508 37 539 q 132 476 96 476 q 182 495 162 476 q 203 540 203 514 q 186 581 203 564 q 147 597 170 597 q 125 593 137 597 q 106 589 113 589 q 94 597 99 589 q 88 623 88 604 q 109 683 88 655 q 178 735 130 710 l 178 758 m 438 755 q 335 689 371 736 q 298 584 298 642 q 327 507 298 538 q 392 475 356 475 q 444 495 422 475 q 465 542 465 515 q 448 581 465 565 q 409 597 431 597 q 385 593 397 597 q 367 589 373 589 q 354 596 360 589 q 349 619 349 604 q 366 678 349 653 q 438 735 383 703 l 438 755 "},"”":{"ha":496,"x_min":37,"x_max":465,"o":"m 63 476 q 166 543 130 496 q 203 648 203 591 q 174 726 203 695 q 109 758 144 758 q 58 738 79 758 q 37 692 37 718 q 53 652 37 669 q 92 635 69 635 q 116 640 104 635 q 134 644 128 644 q 147 637 141 644 q 153 614 153 629 q 135 555 153 581 q 63 498 118 530 l 63 476 m 323 476 q 428 546 392 498 q 465 647 465 593 q 435 726 465 694 q 368 758 406 758 q 319 739 339 758 q 298 693 298 720 q 315 652 298 669 q 354 635 332 635 q 376 640 363 635 q 395 644 388 644 q 408 637 401 644 q 413 610 413 630 q 392 551 413 578 q 323 498 371 524 l 323 476 "},"…":{"ha":1118,"x_min":125,"x_max":992,"o":"m 186 106 q 143 89 161 106 q 125 45 125 71 q 143 2 125 20 q 186 -16 161 -16 q 229 2 212 -16 q 247 45 247 20 q 229 88 247 71 q 186 106 212 106 m 559 106 q 516 89 534 106 q 498 45 498 71 q 516 2 498 20 q 559 -16 534 -16 q 602 2 584 -16 q 620 45 620 20 q 602 88 620 71 q 559 106 584 106 m 932 106 q 889 89 906 106 q 871 45 871 71 q 889 2 871 20 q 932 -16 907 -16 q 975 2 957 -16 q 992 45 992 20 q 975 88 992 71 q 932 106 957 106 "},"−":{"ha":631,"x_min":20,"x_max":609,"o":"m 20 349 l 609 349 l 609 394 l 20 394 l 20 349 "},"◌":{"ha":922,"x_min":95,"x_max":827,"o":"m 461 621 q 495 635 481 621 q 510 670 510 649 q 496 705 510 692 q 461 719 483 719 q 426 704 440 719 q 412 670 412 690 q 427 636 412 651 q 461 621 442 621 m 620 579 q 654 593 640 579 q 669 628 669 607 q 655 663 669 650 q 620 677 642 677 q 585 662 599 677 q 571 628 571 648 q 586 594 571 609 q 620 579 601 579 m 302 579 q 337 593 322 579 q 351 628 351 607 q 338 663 351 650 q 302 677 324 677 q 268 662 281 677 q 254 628 254 648 q 269 594 254 609 q 302 579 283 579 m 736 463 q 771 476 756 463 q 785 511 785 490 q 772 547 785 533 q 736 560 758 560 q 702 546 715 560 q 688 511 688 531 q 703 477 688 492 q 736 463 718 463 m 187 463 q 221 476 207 463 q 236 511 236 490 q 222 547 236 533 q 187 560 209 560 q 152 546 166 560 q 138 511 138 531 q 153 477 138 492 q 187 463 168 463 m 779 304 q 813 318 798 304 q 827 353 827 332 q 814 388 827 374 q 779 401 800 401 q 744 387 758 401 q 730 353 730 372 q 745 319 730 334 q 779 304 760 304 m 144 304 q 178 318 163 304 q 193 353 193 332 q 179 388 193 374 q 144 401 165 401 q 109 387 123 401 q 95 353 95 372 q 110 319 95 334 q 144 304 125 304 m 736 145 q 771 159 756 145 q 785 194 785 173 q 772 229 785 216 q 736 243 758 243 q 702 228 715 243 q 688 194 688 214 q 703 160 688 175 q 736 145 718 145 m 187 145 q 221 159 207 145 q 236 194 236 173 q 222 229 236 216 q 187 243 209 243 q 152 228 166 243 q 138 194 138 214 q 153 160 138 175 q 187 145 168 145 m 620 28 q 655 43 641 28 q 669 79 669 58 q 655 114 669 100 q 620 127 642 127 q 585 113 599 127 q 571 79 571 98 q 586 44 571 59 q 620 28 600 28 m 302 28 q 337 43 323 28 q 351 79 351 58 q 338 114 351 100 q 302 127 324 127 q 268 113 281 127 q 254 79 254 98 q 268 44 254 59 q 302 28 283 28 m 461 -14 q 495 0 481 -14 q 510 35 510 14 q 496 71 510 57 q 461 84 483 84 q 426 70 440 84 q 412 35 412 55 q 427 1 412 16 q 461 -14 442 -14 "},"¤":{"ha":559,"x_min":15,"x_max":543,"o":"m 433 556 q 360 598 401 584 q 281 612 318 612 q 197 596 241 612 q 125 556 153 581 l 45 634 l 15 603 l 94 526 q 38 371 38 457 q 94 217 38 281 l 15 138 l 45 108 l 125 186 q 193 147 147 163 q 286 130 238 130 q 433 186 360 130 l 511 108 l 543 138 l 465 217 q 521 372 521 288 q 465 526 521 454 l 543 603 l 511 634 l 433 556 m 279 568 q 377 542 330 568 q 451 469 424 517 q 477 371 477 420 q 419 232 477 290 q 279 174 360 174 q 140 232 197 174 q 82 370 82 290 q 140 510 82 452 q 279 568 197 568 "},"·":{"ha":279,"x_min":79,"x_max":200,"o":"m 140 431 q 97 413 115 431 q 79 370 79 395 q 97 327 79 345 q 140 309 115 309 q 182 327 165 309 q 200 370 200 345 q 183 413 200 395 q 140 431 165 431 "},"∙":{"ha":486,"x_min":115,"x_max":370,"o":"m 243 233 q 334 270 297 233 q 370 361 370 307 q 334 452 370 415 q 243 488 297 488 q 152 450 189 488 q 115 361 115 412 q 152 271 115 309 q 243 233 189 233 "},"§":{"ha":559,"x_min":85,"x_max":474,"o":"m 205 460 q 115 374 144 423 q 85 275 85 326 q 113 181 85 225 q 253 46 150 123 q 348 -46 321 -5 q 365 -107 365 -73 q 335 -169 365 -140 q 269 -197 305 -197 q 217 -180 238 -197 q 203 -155 203 -170 q 207 -127 203 -145 q 212 -95 212 -110 q 200 -60 212 -73 q 171 -47 188 -47 q 141 -61 154 -47 q 128 -96 128 -75 q 167 -181 128 -144 q 265 -218 206 -218 q 376 -174 331 -218 q 420 -62 420 -129 q 406 4 420 -26 q 353 77 391 35 q 445 164 416 114 q 474 263 474 214 q 446 357 474 312 q 296 499 405 420 q 213 579 237 541 q 198 637 198 602 q 226 705 198 677 q 293 732 254 732 q 337 718 321 732 q 353 681 353 703 q 350 657 353 670 q 346 629 346 637 q 358 599 346 612 q 388 587 370 587 q 417 597 407 587 q 431 635 431 614 q 392 719 431 682 q 293 755 353 755 q 183 710 228 755 q 138 602 138 665 q 154 534 138 567 q 205 460 170 500 m 223 444 q 296 383 251 418 q 395 286 371 325 q 418 212 418 248 q 335 92 418 143 q 269 147 307 119 q 161 252 189 208 q 141 322 141 284 q 223 444 141 393 "},"¬":{"ha":631,"x_min":20,"x_max":609,"o":"m 20 479 l 20 435 l 566 435 l 566 258 l 609 258 l 609 479 l 20 479 "},"°":{"ha":447,"x_min":54,"x_max":389,"o":"m 221 757 q 102 708 151 757 q 54 589 54 659 q 103 470 54 519 q 221 421 152 421 q 340 470 291 421 q 389 589 389 519 q 340 708 389 659 q 221 757 292 757 m 221 711 q 308 675 272 711 q 343 589 343 640 q 307 503 343 539 q 221 467 271 467 q 135 503 170 467 q 100 589 100 539 q 135 675 100 640 q 221 711 170 711 "},"¶":{"ha":507,"x_min":-7,"x_max":508,"o":"m 435 710 l 508 710 l 508 741 l 238 741 q 100 713 153 741 q 16 634 47 686 q -7 536 -7 595 q 20 427 -7 475 q 98 356 47 379 q 254 328 150 332 l 254 -241 l 294 -241 l 294 710 l 396 710 l 396 -241 l 435 -241 l 435 710 "},"•":{"ha":391,"x_min":61,"x_max":335,"o":"m 198 507 q 101 467 141 507 q 61 370 61 427 q 101 273 61 313 q 198 233 141 233 q 295 273 255 233 q 335 370 335 313 q 295 467 335 427 q 198 507 255 507 "},"ऄ":{"ha":846,"x_min":26,"x_max":894,"o":"m 26 298 q 102 88 26 176 q 283 0 178 0 q 465 57 389 0 q 541 197 541 115 q 499 308 541 260 q 392 366 458 355 l 392 373 q 479 422 444 382 q 514 515 514 462 q 450 640 514 589 q 297 692 387 692 q 171 654 227 692 q 94 556 115 616 l 127 536 q 180 609 143 581 q 263 637 217 637 q 354 601 317 637 q 392 511 392 565 q 354 422 392 458 q 263 387 316 387 l 216 387 l 216 346 l 263 346 q 364 306 322 346 q 406 206 406 265 q 363 108 406 148 q 263 68 321 68 q 124 136 182 68 q 66 298 66 204 l 26 298 m 745 651 l 894 651 l 894 705 l 541 705 l 541 651 l 623 651 l 623 393 l 541 393 l 541 346 l 623 346 l 623 95 q 594 47 623 66 q 528 27 566 27 l 528 0 l 840 0 l 840 27 q 773 47 802 27 q 745 95 745 67 l 745 651 m 738 719 q 664 837 738 792 q 496 882 590 882 q 365 931 420 882 q 311 1051 311 981 l 175 1051 q 249 903 175 964 q 429 842 323 842 q 570 806 511 842 q 629 719 629 770 l 738 719 "},"ॽ":{"ha":732,"x_min":95,"x_max":637,"o":"m 434 203 q 460 317 434 267 q 529 393 486 368 q 609 477 580 422 q 637 597 637 531 q 558 750 637 687 q 366 814 479 814 q 175 750 254 814 q 95 597 95 686 q 136 475 95 522 l 271 475 q 231 597 231 522 q 271 721 231 669 q 366 773 311 773 q 473 721 431 773 q 515 597 515 669 q 483 481 515 536 q 393 393 450 427 q 324 317 350 368 q 298 203 298 267 l 434 203 "},"ˇ":{"ha":372,"x_min":33,"x_max":340,"o":"m 237 575 l 340 756 l 323 756 l 199 640 l 50 756 l 33 756 l 136 575 l 237 575 "},"˚":{"ha":372,"x_min":82,"x_max":291,"o":"m 186 777 q 112 747 142 777 q 82 673 82 716 q 113 599 82 629 q 186 568 143 568 q 260 599 230 568 q 291 673 291 629 q 260 747 291 716 q 186 777 230 777 m 186 740 q 234 721 214 740 q 253 673 253 701 q 234 626 253 646 q 186 606 214 606 q 139 626 158 606 q 119 673 119 646 q 139 721 119 701 q 186 740 158 740 "},"ı":{"ha":311,"x_min":33,"x_max":283,"o":"m 207 515 l 183 515 l 33 454 l 41 434 q 77 442 62 442 q 100 435 92 442 q 112 411 108 429 q 117 306 117 387 l 117 113 q 110 50 117 66 q 90 27 102 34 q 41 20 77 20 l 41 0 l 283 0 l 283 20 q 234 27 248 20 q 214 51 221 35 q 207 113 207 66 l 207 515 "},"A":{"ha":808,"x_min":9,"x_max":795,"o":"m 511 248 l 556 141 q 578 66 578 90 q 563 35 578 47 q 503 20 547 22 l 503 0 l 795 0 l 795 20 q 724 45 749 23 q 668 141 699 67 l 410 758 l 391 758 l 130 148 q 68 41 96 68 q 9 20 55 28 l 9 0 l 242 0 l 242 20 q 172 37 189 24 q 156 66 156 50 q 175 131 156 88 l 225 248 l 511 248 m 496 288 l 242 288 l 371 587 l 496 288 "},"B":{"ha":746,"x_min":18,"x_max":684,"o":"m 517 378 q 616 443 583 399 q 650 543 650 487 q 607 657 650 608 q 482 727 564 707 q 338 741 428 741 l 18 741 l 18 720 l 46 720 q 110 696 88 720 q 125 609 125 678 l 125 131 q 113 50 125 68 q 46 20 93 20 l 18 20 l 18 0 l 368 0 q 554 23 493 0 q 649 97 614 46 q 684 203 684 147 q 631 326 684 275 q 517 378 593 361 m 231 408 l 231 692 q 329 704 274 704 q 483 658 430 704 q 536 547 536 612 q 515 470 536 505 q 453 417 494 434 q 334 399 413 399 q 276 401 302 399 q 231 408 250 404 m 231 54 l 231 357 q 269 361 245 359 q 327 362 293 362 q 458 339 405 362 q 534 276 511 316 q 558 193 558 237 q 506 83 558 127 q 355 39 454 39 q 231 54 294 39 "},"C":{"ha":746,"x_min":41,"x_max":707,"o":"m 673 758 l 654 758 q 634 716 648 731 q 608 706 623 706 q 575 718 598 706 q 417 758 497 758 q 227 706 314 758 q 90 562 140 655 q 41 359 41 469 q 116 119 41 221 q 401 -17 217 -17 q 577 29 503 -17 q 707 174 651 75 l 690 184 q 569 62 624 93 q 441 31 514 31 q 294 71 359 31 q 197 183 229 110 q 165 357 165 257 q 199 561 165 479 q 293 681 233 643 q 426 718 352 718 q 577 668 514 718 q 673 505 640 618 l 690 505 l 673 758 "},"D":{"ha":808,"x_min":19,"x_max":765,"o":"m 19 0 l 350 0 q 671 116 566 0 q 765 374 765 220 q 712 577 765 489 q 573 703 659 665 q 321 741 486 741 l 19 741 l 19 720 l 47 720 q 111 696 89 720 q 125 609 125 679 l 125 131 q 113 50 125 68 q 47 20 94 20 l 19 20 l 19 0 m 231 54 l 231 683 q 342 699 293 699 q 557 610 473 699 q 640 368 640 522 q 557 127 640 216 q 347 38 473 38 q 231 54 300 38 "},"E":{"ha":683,"x_min":23,"x_max":657,"o":"m 234 700 l 437 700 q 514 692 492 700 q 555 659 541 680 q 581 578 569 637 l 602 578 l 593 741 l 23 741 l 23 720 l 49 720 q 115 699 95 720 q 129 612 129 682 l 129 130 q 122 59 129 77 q 99 33 116 41 q 49 20 75 20 l 23 20 l 23 0 l 593 0 l 657 186 l 635 186 q 566 83 600 117 q 511 49 540 58 q 420 41 483 41 l 295 41 q 253 47 264 41 q 238 63 242 53 q 234 123 234 74 l 234 368 l 396 368 q 465 357 443 368 q 497 326 488 346 q 513 257 505 311 l 533 257 l 533 515 l 513 515 q 481 427 509 452 q 396 408 460 408 l 234 408 l 234 700 "},"F":{"ha":622,"x_min":18,"x_max":576,"o":"m 229 700 l 392 700 q 477 689 450 700 q 524 654 505 678 q 557 578 543 629 l 576 578 l 569 741 l 18 741 l 18 720 l 44 720 q 94 707 71 720 q 117 684 111 697 q 124 609 124 665 l 124 131 q 111 47 124 64 q 44 20 90 20 l 18 20 l 18 0 l 336 0 l 336 20 l 309 20 q 259 33 283 20 q 236 57 241 43 q 229 131 229 75 l 229 363 l 363 363 q 419 353 401 363 q 449 323 438 343 q 460 260 460 303 l 480 260 l 480 511 l 460 511 q 432 429 453 450 q 363 409 410 409 l 229 409 l 229 700 "},"G":{"ha":808,"x_min":39,"x_max":791,"o":"m 686 758 l 666 758 q 657 720 665 729 q 640 710 650 710 q 598 722 629 710 q 505 751 538 744 q 431 758 472 758 q 239 710 321 758 q 86 546 142 652 q 39 359 39 456 q 123 121 39 224 q 449 -17 234 -17 q 585 -1 524 -17 q 709 49 646 15 l 709 275 q 720 355 709 334 q 778 383 735 383 l 791 383 l 791 404 l 505 404 l 505 383 q 568 374 550 383 q 594 348 585 366 q 602 275 602 331 l 602 61 q 529 31 567 41 q 450 20 490 20 q 313 61 379 20 q 206 189 247 102 q 165 382 165 276 q 227 607 165 513 q 441 719 300 719 q 612 655 545 719 q 686 524 657 611 l 705 524 l 686 758 "},"H":{"ha":808,"x_min":19,"x_max":785,"o":"m 230 397 l 230 609 q 236 681 230 663 q 260 707 243 699 q 309 720 283 720 l 336 720 l 336 741 l 19 741 l 19 720 l 45 720 q 96 707 71 720 q 118 684 113 697 q 125 609 125 665 l 125 131 q 112 47 125 64 q 45 20 91 20 l 19 20 l 19 0 l 336 0 l 336 20 l 309 20 q 260 33 283 20 q 237 57 242 43 q 230 131 230 75 l 230 357 l 574 357 l 574 131 q 560 47 574 64 q 494 20 539 20 l 468 20 l 468 0 l 785 0 l 785 20 l 758 20 q 708 33 732 20 q 686 57 691 43 q 679 131 679 75 l 679 609 q 685 681 679 663 q 709 707 691 699 q 758 720 732 720 l 785 720 l 785 741 l 468 741 l 468 720 l 494 720 q 544 707 520 720 q 567 684 562 697 q 574 609 574 665 l 574 397 l 230 397 "},"I":{"ha":372,"x_min":28,"x_max":345,"o":"m 345 20 l 318 20 q 269 33 292 20 q 245 57 251 43 q 239 131 239 75 l 239 609 q 252 693 239 676 q 318 720 273 720 l 345 720 l 345 741 l 28 741 l 28 720 l 54 720 q 104 707 80 720 q 127 684 121 697 q 134 609 134 665 l 134 131 q 121 47 134 64 q 54 20 100 20 l 28 20 l 28 0 l 345 0 l 345 20 "},"J":{"ha":435,"x_min":23,"x_max":429,"o":"m 111 720 l 138 720 q 188 707 164 720 q 211 684 205 697 q 218 609 218 665 l 218 104 q 205 40 218 58 q 178 22 192 22 q 145 52 158 22 q 110 113 124 101 q 79 124 96 124 q 37 107 55 124 q 23 66 23 94 q 53 8 23 34 q 133 -17 82 -17 q 241 22 197 -17 q 304 112 286 60 q 323 248 323 164 l 323 609 q 336 693 323 676 q 401 720 357 720 l 429 720 l 429 741 l 111 741 l 111 720 "},"K":{"ha":808,"x_min":18,"x_max":817,"o":"m 334 410 l 447 523 q 558 635 546 624 q 628 690 600 673 q 676 713 656 707 q 720 720 696 720 l 720 741 l 448 741 l 448 720 l 465 720 q 503 711 492 720 q 515 688 515 701 q 500 650 515 672 q 304 452 466 601 q 229 382 240 393 l 229 609 q 236 681 229 664 q 259 707 242 699 q 309 720 283 720 l 334 720 l 334 741 l 18 741 l 18 720 l 45 720 q 95 707 71 720 q 117 684 112 697 q 125 609 125 665 l 125 131 q 111 47 125 64 q 45 20 91 20 l 18 20 l 18 0 l 334 0 l 334 20 l 309 20 q 259 33 283 20 q 237 57 242 43 q 229 131 229 75 l 229 370 l 485 117 q 519 78 514 88 q 524 55 524 68 q 510 31 524 41 q 465 20 496 20 l 465 0 l 817 0 l 817 20 q 722 48 769 24 q 607 139 674 72 l 334 410 "},"L":{"ha":683,"x_min":22,"x_max":659,"o":"m 641 205 q 584 104 612 136 q 521 59 555 72 q 401 47 487 47 l 348 47 q 262 52 276 47 q 242 69 249 58 q 234 132 234 86 l 234 597 q 242 680 234 663 q 275 709 251 698 q 357 720 298 721 l 357 741 l 22 741 l 22 720 l 50 720 q 113 696 92 720 q 129 609 129 679 l 129 132 q 117 51 129 68 q 50 20 97 20 l 22 20 l 22 0 l 595 0 l 659 201 l 641 205 "},"M":{"ha":994,"x_min":18,"x_max":970,"o":"m 458 0 l 475 0 l 761 623 l 761 128 q 749 49 761 66 q 682 20 730 20 l 656 20 l 656 0 l 970 0 l 970 20 l 945 20 q 881 43 901 20 q 866 128 866 60 l 866 612 q 878 692 866 674 q 945 720 897 720 l 970 720 l 970 741 l 761 741 l 497 161 l 228 741 l 18 741 l 18 720 q 84 709 64 720 q 113 683 105 699 q 123 612 123 661 l 123 128 q 111 49 123 66 q 45 20 92 20 l 18 20 l 18 0 l 276 0 l 276 20 l 250 20 q 186 43 206 20 q 172 128 172 60 l 172 623 l 458 0 "},"N":{"ha":808,"x_min":-15,"x_max":791,"o":"m -15 741 l -15 720 q 33 715 18 720 q 82 693 66 705 q 131 643 99 681 l 131 128 q 119 49 131 66 q 52 20 100 20 l 26 20 l 26 0 l 284 0 l 284 20 l 258 20 q 194 43 214 20 q 179 128 179 60 l 179 584 l 667 -12 l 687 -12 l 687 612 q 699 692 687 674 q 766 720 718 720 l 791 720 l 791 741 l 534 741 l 534 720 l 559 720 q 623 697 604 720 q 639 612 639 680 l 639 185 l 186 741 l -15 741 "},"O":{"ha":808,"x_min":39,"x_max":764,"o":"m 409 758 q 159 661 264 758 q 39 373 39 549 q 143 92 39 200 q 400 -17 248 -17 q 658 94 551 -17 q 764 374 764 205 q 659 648 764 538 q 409 758 553 758 m 399 718 q 564 643 505 718 q 640 359 640 550 q 571 103 640 184 q 399 22 503 22 q 242 96 301 22 q 164 375 164 194 q 239 644 164 552 q 399 718 299 718 "},"P":{"ha":622,"x_min":18,"x_max":583,"o":"m 229 347 q 296 335 264 339 q 354 332 327 332 q 523 388 463 332 q 583 536 583 445 q 543 651 583 602 q 447 720 504 699 q 290 741 389 741 l 18 741 l 18 720 l 46 720 q 110 696 88 720 q 125 609 125 679 l 125 131 q 113 51 125 68 q 46 20 94 20 l 18 20 l 18 0 l 336 0 l 336 20 l 307 20 q 245 44 265 20 q 229 131 229 61 l 229 347 m 229 378 l 229 686 q 301 696 273 696 q 382 675 347 696 q 438 614 418 655 q 458 525 458 572 q 417 411 458 455 q 319 367 376 367 q 281 370 303 367 q 229 378 258 372 "},"Q":{"ha":808,"x_min":39,"x_max":765,"o":"m 492 -8 q 689 131 614 28 q 765 370 765 234 q 659 647 765 537 q 408 758 553 758 q 147 648 254 758 q 39 372 39 538 q 76 189 39 267 q 180 59 113 112 q 304 -8 225 24 q 436 -112 359 -63 q 599 -189 513 -161 q 760 -219 684 -216 l 760 -201 q 613 -150 677 -195 q 492 -8 548 -104 m 401 715 q 517 682 465 715 q 600 579 568 649 q 640 356 640 488 q 566 95 640 183 q 401 20 503 20 q 242 95 302 20 q 164 372 164 192 q 241 644 164 555 q 401 715 301 715 "},"R":{"ha":746,"x_min":19,"x_max":755,"o":"m 755 0 l 755 20 q 657 51 695 26 q 567 148 620 75 l 414 360 q 552 431 508 381 q 597 550 597 481 q 558 660 597 614 q 463 723 519 706 q 289 741 407 741 l 19 741 l 19 720 l 47 720 q 111 696 89 720 q 125 609 125 679 l 125 131 q 114 51 125 68 q 47 20 94 20 l 19 20 l 19 0 l 336 0 l 336 20 l 307 20 q 245 44 266 20 q 230 131 230 61 l 230 346 q 247 346 239 346 q 262 345 255 345 q 307 346 279 345 l 558 0 l 755 0 m 230 380 l 230 688 q 315 699 284 699 q 431 655 387 699 q 474 543 474 612 q 420 426 474 472 q 260 380 366 380 q 248 380 256 380 q 230 380 240 380 "},"S":{"ha":622,"x_min":70,"x_max":562,"o":"m 513 758 l 492 758 q 478 723 487 732 q 455 715 469 715 q 412 728 442 715 q 287 758 346 758 q 131 700 192 758 q 70 562 70 642 q 91 478 70 517 q 152 408 111 440 q 287 323 192 376 q 403 254 382 270 q 450 202 435 230 q 465 147 465 174 q 425 62 465 98 q 317 26 385 26 q 209 52 258 26 q 135 118 159 78 q 97 237 111 157 l 77 237 l 77 -17 l 97 -17 q 109 17 101 9 q 130 25 117 25 q 198 8 144 25 q 268 -12 251 -9 q 329 -17 296 -17 q 496 44 431 -17 q 562 189 562 105 q 541 274 562 233 q 483 344 521 314 q 341 429 445 374 q 180 538 214 497 q 157 600 157 566 q 194 679 157 644 q 288 713 231 713 q 385 688 338 713 q 457 618 432 662 q 492 501 483 575 l 513 501 l 513 758 "},"T":{"ha":683,"x_min":34,"x_max":655,"o":"m 647 741 l 43 741 l 34 567 l 55 567 q 79 647 58 617 q 127 686 99 676 q 201 694 149 694 l 290 694 l 290 128 q 278 49 290 66 q 212 20 258 20 l 185 20 l 185 0 l 499 0 l 499 20 l 473 20 q 410 43 430 20 q 395 128 395 60 l 395 694 l 499 694 q 573 679 545 694 q 618 632 601 664 q 634 567 629 612 l 655 567 l 647 741 "},"U":{"ha":808,"x_min":6,"x_max":795,"o":"m 533 720 l 562 720 q 625 696 604 720 q 640 609 640 679 l 640 309 q 618 142 640 192 q 540 61 597 93 q 410 29 483 29 q 315 50 354 29 q 255 101 276 70 q 226 188 234 132 q 218 287 218 243 l 218 609 q 232 691 218 671 q 298 720 252 720 l 326 720 l 326 741 l 6 741 l 6 720 l 34 720 q 95 699 76 720 q 113 609 113 677 l 113 320 q 131 138 113 186 q 220 24 157 66 q 404 -18 283 -18 q 580 26 515 -18 q 667 132 645 71 q 689 304 689 193 l 689 605 q 701 684 689 667 q 768 720 724 720 l 795 720 l 795 741 l 533 741 l 533 720 "},"V":{"ha":808,"x_min":9,"x_max":793,"o":"m 793 741 l 566 741 l 566 720 q 575 718 572 719 q 628 698 612 713 q 644 668 644 684 q 618 580 644 643 l 444 151 l 256 585 q 231 671 231 643 q 246 703 231 690 q 312 720 261 715 l 312 741 l 9 741 l 9 720 q 63 708 43 718 q 97 682 83 699 q 127 621 106 671 l 405 -17 l 425 -17 l 683 613 q 734 695 705 668 q 793 720 755 713 l 793 741 "},"W":{"ha":1055,"x_min":15,"x_max":1046,"o":"m 1046 741 l 825 741 l 825 720 q 880 713 859 720 q 900 697 892 708 q 907 673 907 686 q 883 580 907 648 l 743 172 l 601 574 q 576 671 576 644 q 590 707 576 694 q 635 720 604 720 l 654 720 l 654 741 l 366 741 l 366 720 q 399 717 389 720 q 427 703 413 713 q 444 685 437 696 q 469 637 458 665 l 487 587 l 509 525 l 386 172 l 240 587 q 216 675 216 656 q 232 707 216 694 q 276 720 247 720 l 289 720 l 289 741 l 15 741 l 15 720 q 66 710 47 720 q 96 679 85 700 q 127 597 102 667 l 347 -17 l 366 -17 l 534 456 l 703 -17 l 724 -17 l 931 580 q 965 671 954 652 q 1000 710 981 699 q 1046 720 1018 720 l 1046 741 "},"X":{"ha":808,"x_min":8,"x_max":794,"o":"m 456 410 l 604 597 q 673 676 648 655 q 726 710 697 698 q 777 720 746 718 l 777 741 l 515 741 l 515 720 q 567 715 554 720 q 587 699 579 710 q 594 679 594 690 q 589 656 594 667 q 561 616 584 646 l 429 450 l 315 619 q 290 678 290 658 q 306 706 290 693 q 366 720 321 718 l 366 741 l 23 741 l 23 720 q 119 691 77 718 q 220 578 160 665 l 366 364 l 191 144 q 121 70 151 94 q 56 32 90 46 q 8 20 36 23 l 8 0 l 271 0 l 271 20 q 215 33 229 22 q 200 62 200 45 q 205 84 200 74 q 234 127 210 95 l 389 326 l 515 136 q 545 87 541 96 q 550 62 550 75 q 543 42 550 52 q 524 26 535 32 q 477 20 508 21 l 477 0 l 794 0 l 794 20 q 713 49 745 23 q 615 173 682 75 l 456 410 "},"Y":{"ha":808,"x_min":10,"x_max":791,"o":"m 533 741 l 533 720 q 577 713 562 720 q 600 694 592 707 q 608 667 608 682 q 575 591 608 642 l 430 363 l 275 601 q 242 672 242 652 q 263 708 242 696 q 311 720 285 720 l 327 720 l 327 741 l 10 741 l 10 720 q 42 715 31 720 q 95 682 83 696 q 144 614 108 668 l 347 304 l 347 128 q 335 49 347 66 q 269 20 315 20 l 242 20 l 242 0 l 557 0 l 557 20 l 533 20 q 467 43 488 20 q 452 128 452 60 l 452 314 l 631 595 q 686 672 663 648 q 735 708 708 695 q 777 720 763 720 l 791 720 l 791 741 l 533 741 "},"Z":{"ha":683,"x_min":14,"x_max":652,"o":"m 643 741 l 96 741 l 80 555 l 101 555 q 126 646 113 622 q 167 683 140 671 q 252 696 193 696 l 489 696 l 14 20 l 14 0 l 617 0 l 652 196 l 634 199 q 568 75 605 106 q 460 45 530 45 l 157 45 l 643 741 "},"a":{"ha":496,"x_min":40,"x_max":494,"o":"m 318 72 q 335 9 319 27 q 377 -9 351 -9 q 494 72 433 -9 l 494 102 q 450 63 461 70 q 435 59 444 59 q 420 64 427 59 q 411 86 414 70 q 408 174 408 102 l 408 343 q 399 439 408 416 q 351 492 383 475 q 242 515 309 515 q 107 475 155 515 q 59 389 59 436 q 72 351 59 365 q 105 336 85 336 q 138 350 125 336 q 151 389 151 363 l 150 420 q 171 463 150 444 q 225 481 191 481 q 294 454 271 481 q 318 351 318 426 l 318 332 q 134 252 189 284 q 56 182 79 219 q 40 119 40 155 q 74 25 40 60 q 159 -10 107 -10 q 222 3 192 -10 q 318 72 241 13 m 318 108 q 209 53 250 53 q 155 79 178 53 q 132 144 132 105 q 150 201 132 175 q 212 252 169 228 q 318 298 236 265 l 318 108 "},"b":{"ha":559,"x_min":-3,"x_max":520,"o":"m 172 414 l 172 777 l 147 777 l -3 715 l 5 696 q 43 705 28 705 q 65 697 56 705 q 78 671 74 690 q 82 566 82 651 l 82 48 q 174 0 129 16 q 262 -16 219 -16 q 432 55 356 -16 q 520 269 520 136 q 463 449 520 383 q 329 515 406 515 q 172 414 245 515 m 172 379 q 228 422 205 412 q 286 437 256 437 q 383 386 340 437 q 426 238 426 334 q 383 79 426 134 q 290 24 340 24 q 230 38 259 24 q 172 80 200 52 l 172 379 "},"c":{"ha":496,"x_min":38,"x_max":460,"o":"m 460 190 l 444 197 q 385 106 416 132 q 290 70 343 70 q 171 138 214 70 q 127 296 127 207 q 171 438 127 385 q 259 478 204 478 q 312 462 292 478 q 334 413 331 445 q 346 369 337 380 q 395 349 363 349 q 432 361 418 349 q 446 395 446 374 q 398 476 446 437 q 277 515 351 515 q 108 441 178 515 q 38 250 38 368 q 101 56 38 127 q 250 -16 165 -16 q 380 38 321 -16 q 460 190 439 91 "},"d":{"ha":559,"x_min":37,"x_max":562,"o":"m 388 56 l 388 -16 l 413 -16 l 562 46 l 555 66 q 517 56 531 56 q 495 64 505 56 q 482 91 486 71 q 478 198 478 111 l 478 777 l 454 777 l 304 715 l 312 696 q 349 705 335 705 q 371 697 363 705 q 384 671 380 690 q 388 566 388 651 l 388 473 q 279 515 345 515 q 105 426 172 515 q 37 229 37 337 q 98 53 37 122 q 241 -16 159 -16 q 316 1 281 -16 q 388 56 351 18 m 388 94 q 292 45 342 45 q 185 103 233 45 q 137 273 137 162 q 186 438 137 382 q 273 481 224 481 q 325 466 298 481 q 369 420 352 450 q 388 352 385 389 l 388 94 "},"e":{"ha":496,"x_min":41,"x_max":465,"o":"m 119 312 l 465 312 q 411 460 465 405 q 273 515 357 515 q 107 444 173 515 q 41 243 41 372 q 105 55 41 125 q 260 -16 170 -16 q 398 46 343 -16 q 465 182 453 108 l 448 193 q 387 101 423 127 q 301 74 351 74 q 173 137 228 74 q 119 312 119 200 m 119 343 q 161 441 125 406 q 242 477 197 477 q 298 459 271 477 q 339 411 326 441 q 351 343 348 391 l 119 343 "},"f":{"ha":372,"x_min":43,"x_max":486,"o":"m 231 460 l 359 460 l 359 500 l 231 500 l 231 536 q 238 681 231 653 q 263 723 245 709 q 306 736 281 736 q 343 726 326 736 q 380 686 360 715 q 415 647 401 656 q 441 637 429 637 q 472 652 458 637 q 486 683 486 667 q 454 738 486 713 q 349 775 406 775 q 238 743 287 775 q 164 660 189 711 q 140 533 140 608 l 140 500 l 43 500 l 43 460 l 140 460 l 140 132 q 134 60 140 79 q 109 31 127 41 q 68 20 91 20 l 46 20 l 46 0 l 345 0 l 345 20 l 300 20 q 245 43 266 20 q 231 132 231 62 l 231 460 "},"g":{"ha":559,"x_min":33,"x_max":539,"o":"m 169 182 q 97 110 113 136 q 81 65 81 84 q 93 35 81 48 q 133 4 105 21 q 77 -55 81 -50 q 39 -111 49 -91 q 33 -137 33 -124 q 74 -194 33 -167 q 252 -241 147 -241 q 475 -161 389 -241 q 532 -46 532 -108 q 502 30 532 -1 q 421 67 472 60 q 275 75 388 72 q 199 79 214 77 q 163 91 172 83 q 155 109 155 100 q 163 136 155 120 q 195 172 172 151 q 271 161 234 161 q 415 211 361 161 q 469 330 469 260 q 438 431 469 391 l 503 431 q 530 432 526 431 q 536 437 534 434 q 539 456 539 442 q 536 474 539 469 q 530 479 534 477 q 503 480 526 480 l 397 480 q 273 515 345 515 q 130 461 186 515 q 74 334 74 408 q 98 245 74 285 q 169 182 123 205 m 264 488 q 335 452 307 488 q 373 317 373 404 q 346 219 373 250 q 278 188 319 188 q 205 224 234 188 q 169 357 169 271 q 196 456 169 424 q 264 488 223 488 m 163 0 q 352 -13 229 -9 q 465 -26 436 -15 q 492 -67 492 -39 q 446 -141 492 -106 q 301 -176 399 -176 q 143 -142 197 -176 q 111 -96 111 -122 q 124 -52 111 -76 q 163 0 138 -28 "},"h":{"ha":559,"x_min":7,"x_max":552,"o":"m 182 777 l 157 777 l 7 715 l 15 696 q 52 705 41 705 q 74 697 66 705 q 87 671 83 690 q 91 566 91 651 l 91 113 q 84 51 91 66 q 67 30 78 35 q 15 20 48 20 l 15 0 l 262 0 l 262 20 q 209 28 224 20 q 188 49 193 37 q 182 113 182 62 l 182 377 q 251 435 222 420 q 307 449 280 449 q 352 436 333 449 q 379 397 370 423 q 387 290 387 372 l 387 113 q 385 62 387 71 q 366 30 380 41 q 318 20 353 20 l 307 20 l 307 0 l 552 0 l 552 20 q 504 27 517 20 q 486 48 491 35 q 477 113 477 66 l 477 290 q 467 418 477 382 q 422 491 452 468 q 349 515 391 515 q 278 496 313 515 q 182 410 242 477 l 182 777 "},"i":{"ha":311,"x_min":33,"x_max":283,"o":"m 162 777 q 122 760 138 777 q 106 721 106 744 q 123 682 106 699 q 162 665 139 665 q 201 682 185 665 q 217 721 217 699 q 201 760 217 744 q 162 777 185 777 m 208 515 l 183 515 l 33 454 l 41 434 q 77 442 62 442 q 100 435 92 442 q 112 411 108 429 q 117 306 117 387 l 117 113 q 110 50 117 66 q 90 27 102 34 q 41 20 77 20 l 41 0 l 283 0 l 283 20 q 234 27 248 20 q 214 51 221 35 q 208 113 208 66 l 208 515 "},"j":{"ha":311,"x_min":-85,"x_max":218,"o":"m 161 777 q 122 761 138 777 q 106 721 106 744 q 122 681 106 698 q 161 665 138 665 q 201 681 185 665 q 218 721 218 698 q 201 761 218 744 q 161 777 185 777 m 209 515 l 185 515 l 35 454 l 42 434 q 79 442 64 442 q 102 435 94 442 q 113 410 110 429 q 119 304 119 387 l 119 -52 q 113 -154 119 -130 q 94 -188 106 -178 q 68 -198 81 -198 q 24 -174 50 -198 q -12 -147 -3 -151 q -41 -140 -26 -140 q -72 -153 -59 -140 q -85 -186 -85 -167 q -62 -223 -85 -205 q 12 -241 -38 -241 q 154 -179 100 -241 q 209 12 209 -117 l 209 515 "},"k":{"ha":559,"x_min":9,"x_max":566,"o":"m 183 777 l 158 777 l 9 715 l 18 696 q 53 705 41 705 q 76 698 67 705 q 89 671 85 690 q 92 565 92 652 l 92 110 q 84 47 92 66 q 66 29 78 35 q 9 20 47 20 l 9 0 l 264 0 l 264 20 q 209 27 222 20 q 190 48 197 33 q 183 113 183 64 l 183 279 l 336 83 q 358 42 358 55 q 351 26 358 32 q 323 20 343 20 l 323 0 l 566 0 l 566 20 q 518 25 532 20 q 472 58 498 33 q 400 144 454 77 l 272 306 l 400 424 q 465 469 435 456 q 540 483 495 481 l 540 500 l 323 500 l 323 483 q 352 474 343 481 q 361 455 361 466 q 357 441 361 448 q 310 395 351 432 l 183 279 l 183 777 "},"l":{"ha":311,"x_min":33,"x_max":288,"o":"m 207 777 l 182 777 l 33 715 l 43 696 q 79 705 64 705 q 100 697 92 705 q 112 671 109 690 q 116 567 116 652 l 116 113 q 109 50 116 66 q 90 27 102 34 q 43 20 77 20 l 43 0 l 288 0 l 288 20 q 235 27 249 20 q 214 51 220 35 q 207 113 207 66 l 207 777 "},"m":{"ha":869,"x_min":9,"x_max":865,"o":"m 183 408 l 183 515 l 160 515 l 9 454 l 18 434 q 54 442 39 442 q 77 435 68 442 q 88 410 85 429 q 94 304 94 387 l 94 113 q 86 51 94 66 q 65 27 79 35 q 18 20 52 20 l 18 0 l 264 0 l 264 20 q 211 27 224 20 q 190 49 197 35 q 183 113 183 64 l 183 381 q 254 435 208 411 q 312 451 282 451 q 379 416 355 451 q 397 328 397 389 l 397 113 q 394 59 397 68 q 372 30 388 39 q 315 20 357 20 l 315 0 l 568 0 l 568 20 q 514 28 530 20 q 493 49 498 37 q 487 113 487 62 l 487 351 l 486 375 l 487 381 q 557 435 528 420 q 616 450 587 450 q 684 414 663 450 q 699 328 699 389 l 699 113 q 696 60 699 69 q 679 32 691 41 q 629 20 661 20 l 618 20 l 618 0 l 865 0 l 865 20 q 817 28 831 20 q 796 49 802 37 q 789 113 789 66 l 789 328 q 777 427 789 396 q 729 494 760 474 q 658 515 698 515 q 578 494 617 515 q 483 408 539 474 q 438 488 472 460 q 357 515 404 515 q 301 503 329 515 q 248 471 273 492 q 183 408 238 463 "},"n":{"ha":559,"x_min":7,"x_max":554,"o":"m 180 409 l 180 515 l 157 515 l 7 454 l 15 434 q 52 442 36 442 q 74 435 66 442 q 87 408 83 428 q 91 298 91 389 l 91 113 q 77 39 91 58 q 26 20 64 20 l 15 20 l 15 0 l 262 0 l 262 20 q 208 27 221 20 q 186 50 195 35 q 180 113 180 62 l 180 376 q 310 448 245 448 q 370 417 352 448 q 388 318 388 386 l 388 113 q 385 62 388 70 q 366 30 380 41 q 317 20 352 20 l 307 20 l 307 0 l 554 0 l 554 20 q 505 27 518 20 q 486 49 492 35 q 477 113 477 66 l 477 326 q 466 427 477 394 q 419 494 448 474 q 349 515 389 515 q 180 409 269 515 "},"o":{"ha":559,"x_min":38,"x_max":520,"o":"m 279 515 q 161 482 217 515 q 72 382 106 450 q 38 245 38 314 q 94 75 38 151 q 273 -16 161 -16 q 399 20 343 -16 q 488 123 456 55 q 520 259 520 192 q 462 429 520 355 q 279 515 393 515 m 262 479 q 361 427 323 479 q 418 217 418 351 q 384 67 418 111 q 297 24 350 24 q 182 103 226 24 q 139 291 139 182 q 157 402 139 359 q 204 462 175 445 q 262 479 234 479 "},"p":{"ha":559,"x_min":-4,"x_max":521,"o":"m -1 450 l 5 433 q 39 441 26 441 q 64 434 55 441 q 78 414 74 427 q 83 353 83 401 l 83 -120 q 77 -188 83 -175 q 61 -208 71 -201 q 9 -219 40 -220 l -4 -219 l -4 -239 l 258 -239 l 258 -219 q 202 -211 217 -219 q 180 -189 186 -203 q 174 -123 174 -175 l 174 29 q 222 -4 201 4 q 292 -16 252 -16 q 446 54 385 -16 q 521 268 521 138 q 459 456 521 384 q 334 515 409 515 q 251 488 290 515 q 174 396 212 462 l 174 513 l 153 513 l -1 450 m 174 363 q 239 422 219 413 q 290 435 264 435 q 374 393 338 435 q 424 217 424 332 q 379 60 424 116 q 291 18 346 18 q 216 42 245 18 q 178 97 186 66 q 174 177 174 116 l 174 363 "},"q":{"ha":559,"x_min":37,"x_max":559,"o":"m 477 515 l 459 515 q 399 480 430 495 q 352 506 378 497 q 294 515 326 515 q 113 435 188 515 q 37 228 37 355 q 94 51 37 117 q 224 -16 151 -16 q 301 6 264 -16 q 388 87 338 28 l 388 -128 q 381 -189 388 -173 q 363 -210 374 -204 q 317 -219 348 -219 l 307 -219 l 307 -239 l 559 -239 l 559 -219 q 505 -211 519 -219 q 484 -190 491 -203 q 477 -128 477 -176 l 477 515 m 388 121 q 338 76 363 90 q 281 62 313 62 q 173 114 218 62 q 129 267 129 167 q 173 425 129 373 q 277 477 216 477 q 339 460 312 477 q 377 420 366 444 q 388 356 388 397 l 388 121 "},"r":{"ha":372,"x_min":7,"x_max":379,"o":"m 181 515 l 158 515 l 7 454 l 13 434 q 51 442 34 442 q 75 435 65 442 q 87 410 84 427 q 91 307 91 393 l 91 113 q 88 60 91 68 q 69 32 83 41 q 13 20 51 20 l 13 0 l 269 0 l 269 20 q 217 30 235 20 q 192 54 199 39 q 181 117 181 75 l 181 357 q 232 430 208 408 q 254 441 243 441 q 288 422 264 441 q 332 404 312 404 q 365 418 351 404 q 379 454 379 433 q 360 496 379 478 q 310 515 340 515 q 181 402 244 515 l 181 515 "},"s":{"ha":435,"x_min":55,"x_max":396,"o":"m 358 515 l 340 515 q 329 498 334 502 q 315 494 323 494 q 278 503 306 494 q 206 515 236 515 q 97 473 139 515 q 55 370 55 432 q 79 292 55 323 q 183 220 104 260 q 288 156 262 181 q 315 92 315 130 q 291 39 315 61 q 230 17 267 17 q 133 56 176 17 q 75 171 90 94 l 57 171 l 57 -7 l 75 -7 q 94 7 82 7 q 124 1 106 7 q 229 -16 183 -16 q 344 26 292 -16 q 396 136 396 68 q 285 279 396 225 l 205 318 q 136 366 153 343 q 119 418 119 387 q 142 463 119 442 q 204 483 166 483 q 287 454 254 483 q 340 345 319 425 l 358 345 l 358 515 "},"t":{"ha":311,"x_min":11,"x_max":312,"o":"m 180 665 l 163 665 q 128 589 141 609 q 72 520 104 549 q 11 480 41 492 l 11 462 l 90 462 l 90 125 q 102 45 90 71 q 137 6 113 20 q 186 -8 161 -8 q 258 19 223 -8 q 312 100 293 46 l 291 100 q 264 66 281 77 q 230 55 248 55 q 194 72 208 55 q 180 138 180 89 l 180 462 l 297 462 l 297 500 l 180 500 l 180 665 "},"u":{"ha":559,"x_min":1,"x_max":557,"o":"m 473 500 l 303 500 l 303 480 q 368 464 352 479 q 383 406 383 449 l 383 123 q 313 66 342 81 q 259 52 283 52 q 201 74 225 52 q 176 165 176 96 l 176 500 l 1 500 l 1 480 q 56 473 41 480 q 78 452 71 466 q 85 403 85 438 l 85 180 q 98 72 85 110 q 141 9 110 33 q 214 -16 172 -16 q 285 3 251 -16 q 383 91 319 21 l 383 -16 l 408 -16 l 557 46 l 550 66 q 511 56 528 56 q 491 64 500 56 q 477 91 481 71 q 473 197 473 111 l 473 500 "},"v":{"ha":559,"x_min":9,"x_max":549,"o":"m 9 500 l 9 480 q 46 471 37 475 q 74 449 63 462 q 96 407 85 436 l 275 -16 l 298 -16 l 475 414 q 509 469 490 452 q 549 480 520 477 l 549 500 l 385 500 l 385 480 q 423 477 414 480 q 438 466 433 474 q 443 453 443 460 q 430 407 443 437 l 313 120 l 197 396 q 186 441 186 422 q 197 470 186 459 q 229 480 208 480 l 245 480 l 245 500 l 9 500 "},"w":{"ha":808,"x_min":7,"x_max":797,"o":"m 7 500 l 7 480 q 55 459 40 473 q 86 405 71 445 l 247 -16 l 267 -16 l 413 304 l 538 -16 l 560 -16 l 727 416 q 797 480 749 473 l 797 500 l 640 500 l 640 480 q 681 471 671 479 q 692 452 692 463 q 681 405 692 435 l 575 128 l 462 416 q 458 438 458 427 q 469 466 458 457 q 524 480 485 478 l 524 500 l 286 500 l 286 480 q 331 471 319 478 q 366 425 352 458 l 393 351 l 286 117 l 179 405 q 170 446 170 429 q 179 469 170 461 q 217 480 188 477 l 217 500 l 7 500 "},"x":{"ha":559,"x_min":15,"x_max":545,"o":"m 15 500 l 15 480 q 70 465 48 480 q 133 391 92 450 l 228 254 l 123 114 q 53 33 74 49 q 18 20 38 22 l 18 0 l 182 0 l 182 20 q 145 32 157 21 q 133 55 133 42 q 170 114 133 64 l 250 221 l 323 114 q 358 51 358 63 q 348 31 358 38 q 309 20 334 20 l 309 0 l 545 0 l 545 20 q 494 35 514 21 q 429 114 475 48 l 304 293 l 373 385 q 446 465 419 446 q 492 480 466 478 l 492 500 l 323 500 l 323 480 q 353 472 344 480 q 363 452 363 464 q 323 385 363 438 l 282 328 l 247 385 q 229 412 235 403 q 210 452 210 439 q 219 472 210 465 q 250 480 228 480 l 250 500 l 15 500 "},"y":{"ha":559,"x_min":7,"x_max":553,"o":"m 7 500 l 7 480 q 47 465 35 473 q 69 439 56 458 q 96 397 87 414 l 275 20 l 239 -67 q 200 -133 220 -116 q 165 -150 181 -150 q 138 -141 159 -150 q 88 -130 106 -130 q 47 -143 62 -130 q 32 -180 32 -157 q 53 -223 32 -204 q 106 -241 74 -241 q 198 -204 150 -241 q 275 -94 245 -167 l 479 405 q 497 446 492 439 q 522 471 511 465 q 553 480 532 477 l 553 500 l 390 500 l 390 480 q 422 476 413 480 q 436 467 432 473 q 440 452 440 462 q 431 408 440 430 l 319 132 l 197 384 q 179 443 179 421 q 191 469 179 458 q 228 480 203 480 l 239 480 l 239 500 l 7 500 "},"z":{"ha":496,"x_min":22,"x_max":478,"o":"m 469 153 l 451 153 q 436 80 445 97 q 403 46 424 56 q 326 37 382 37 l 143 37 l 478 480 l 478 500 l 59 500 l 56 361 l 77 361 q 94 429 80 401 q 121 455 105 448 q 191 462 138 462 l 354 462 l 22 20 l 22 0 l 463 0 l 469 153 "},"€":{"ha":559,"x_min":-13,"x_max":539,"o":"m 463 402 l 475 445 l 153 445 q 203 629 164 557 q 340 720 254 720 q 504 545 490 720 l 525 545 l 525 707 q 340 755 433 755 q 134 659 214 755 q 46 445 64 574 l 0 445 l -13 402 l 41 402 q 41 366 41 382 l 41 357 l 0 357 l -13 315 l 43 315 q 109 91 53 176 q 304 -13 178 -13 q 454 39 391 -13 q 539 144 492 71 l 522 155 q 448 71 477 93 q 326 33 399 33 q 195 122 243 33 q 149 315 153 199 l 436 315 l 449 357 l 147 357 q 149 402 147 379 l 463 402 "},"‚":{"ha":372,"x_min":111,"x_max":273,"o":"m 111 -186 q 234 -110 195 -158 q 273 -5 273 -62 q 245 78 273 46 q 181 109 218 109 q 132 90 152 109 q 111 44 111 71 q 127 0 111 16 q 170 -16 142 -16 q 190 -10 180 -16 q 216 1 210 1 q 224 -4 220 1 q 229 -22 229 -12 q 198 -105 229 -66 q 111 -162 167 -144 l 111 -186 "},"ƒ":{"ha":559,"x_min":1,"x_max":545,"o":"m 375 477 q 410 673 395 607 q 435 719 416 701 q 467 732 450 732 q 481 728 476 732 q 486 718 486 724 q 480 703 486 713 q 474 684 474 693 q 484 664 474 673 q 508 654 494 654 q 534 665 524 654 q 545 696 545 677 q 525 739 545 721 q 471 758 505 758 q 391 725 427 758 q 314 576 354 692 q 281 503 296 522 q 258 486 272 491 q 190 477 244 481 l 182 441 l 279 441 q 212 161 215 180 q 164 -66 168 -54 q 132 -162 147 -136 q 100 -197 116 -188 q 79 -203 90 -203 q 70 -199 73 -203 q 66 -191 66 -195 q 71 -180 66 -187 q 79 -160 79 -172 q 68 -139 79 -149 q 43 -130 58 -130 q 14 -143 26 -130 q 1 -178 1 -157 q 19 -219 1 -202 q 68 -235 37 -235 q 162 -190 116 -235 q 274 55 222 -131 q 368 441 340 295 l 463 441 l 472 477 l 375 477 "},"„":{"ha":496,"x_min":37,"x_max":465,"o":"m 63 -172 q 166 -105 130 -153 q 203 -1 203 -58 q 174 78 203 47 q 109 109 144 109 q 58 90 79 109 q 37 43 37 70 q 53 4 37 20 q 92 -13 69 -13 q 116 -8 104 -13 q 134 -4 128 -4 q 147 -12 141 -4 q 153 -35 153 -19 q 135 -93 153 -68 q 63 -150 118 -119 l 63 -172 m 323 -172 q 428 -103 392 -150 q 465 -1 465 -56 q 435 77 465 45 q 368 109 406 109 q 319 90 339 109 q 298 45 298 71 q 315 4 298 21 q 354 -13 332 -13 q 376 -8 363 -13 q 395 -4 388 -4 q 408 -11 401 -4 q 413 -38 413 -18 q 392 -97 413 -70 q 323 -150 371 -125 l 323 -172 "},"†":{"ha":559,"x_min":55,"x_max":504,"o":"m 286 -230 q 304 161 294 63 q 340 359 315 260 q 301 410 313 382 q 286 489 289 438 q 320 485 309 488 q 357 471 332 482 q 448 446 418 446 q 488 461 472 446 q 504 498 504 476 q 488 536 504 521 q 446 551 472 551 q 421 548 433 551 q 358 525 412 546 q 286 508 325 511 q 308 594 288 547 q 332 662 327 641 q 337 695 337 679 q 319 745 337 725 q 277 766 300 766 q 234 746 252 766 q 216 695 216 726 q 245 589 216 659 q 262 542 258 559 q 266 508 265 530 q 194 525 227 511 q 136 549 142 547 q 111 552 125 552 q 71 536 87 552 q 55 498 55 521 q 70 461 55 475 q 111 446 85 446 q 194 470 136 446 q 266 489 231 486 q 251 411 262 437 q 211 359 239 384 q 248 153 237 262 q 266 -230 264 8 l 286 -230 "},"‡":{"ha":559,"x_min":76,"x_max":483,"o":"m 290 533 q 324 528 313 531 q 363 513 335 526 q 432 495 406 495 q 469 509 455 495 q 483 544 483 522 q 469 578 483 564 q 434 591 456 591 q 366 573 407 591 q 324 558 334 560 q 290 553 313 555 q 309 636 292 597 q 329 686 326 675 q 332 713 332 696 q 317 761 332 745 q 279 777 302 777 q 240 760 256 777 q 224 715 224 743 q 226 691 224 701 q 239 659 227 687 q 263 588 257 610 q 267 553 267 577 q 237 558 246 555 q 195 572 222 562 q 123 591 149 591 q 89 578 102 591 q 76 545 76 564 q 90 510 76 524 q 124 496 103 496 q 188 511 151 496 q 235 529 226 526 q 267 533 245 531 q 252 477 262 495 q 215 440 241 460 q 250 382 240 412 q 268 271 268 335 q 251 158 268 208 q 215 93 240 126 q 252 54 242 71 q 267 4 262 37 q 233 7 244 5 q 191 22 218 11 q 130 40 151 40 q 92 26 106 40 q 77 -10 77 12 q 91 -45 77 -32 q 127 -58 104 -58 q 189 -40 147 -58 q 229 -24 215 -28 q 267 -20 243 -21 q 250 -93 264 -58 q 229 -155 233 -141 q 225 -182 225 -170 q 241 -224 225 -208 q 280 -241 257 -241 q 319 -225 304 -241 q 335 -184 335 -209 q 308 -94 335 -155 q 296 -64 299 -75 q 290 -20 294 -54 q 323 -24 312 -21 q 363 -38 338 -28 q 433 -58 410 -58 q 469 -44 455 -58 q 483 -8 483 -30 q 469 26 483 13 q 433 40 455 40 q 359 21 406 40 q 320 6 330 9 q 290 0 311 3 q 304 53 294 35 q 340 93 315 71 q 301 172 312 135 q 290 264 290 210 q 301 361 290 323 q 340 440 313 400 q 303 479 313 462 q 290 533 294 497 "},"ˆ":{"ha":372,"x_min":33,"x_max":340,"o":"m 136 756 l 33 575 l 49 575 l 174 692 l 323 575 l 340 575 l 237 756 l 136 756 "},"‰":{"ha":1118,"x_min":35,"x_max":1082,"o":"m 666 758 l 617 758 l 87 -30 l 136 -30 l 666 758 m 193 758 q 115 734 152 758 q 57 662 78 710 q 35 558 35 614 q 57 454 35 500 q 117 384 79 408 q 195 359 155 359 q 305 412 258 359 q 351 557 351 465 q 330 661 351 614 q 272 733 309 708 q 193 758 235 758 m 191 728 q 237 700 218 728 q 264 562 264 660 q 237 416 264 458 q 194 387 219 387 q 149 414 167 387 q 123 555 123 454 q 136 672 123 630 q 163 720 145 704 q 191 728 174 728 m 562 368 q 485 344 524 368 q 425 273 446 321 q 403 168 403 225 q 451 23 403 77 q 560 -30 498 -30 q 637 -5 599 -30 q 697 65 676 19 q 718 170 718 111 q 697 272 718 225 q 638 343 675 319 q 562 368 601 368 m 559 338 q 604 311 586 338 q 631 165 631 268 q 604 27 631 68 q 559 0 586 0 q 515 26 533 0 q 490 164 490 66 q 500 278 490 244 q 530 328 511 312 q 559 338 543 338 m 923 368 q 849 345 889 368 q 788 275 809 322 q 768 164 768 228 q 789 63 768 109 q 847 -6 810 18 q 924 -30 884 -30 q 1003 -5 964 -30 q 1062 64 1042 20 q 1082 175 1082 109 q 1061 275 1082 230 q 1000 344 1040 320 q 923 368 960 368 m 923 338 q 968 311 949 338 q 994 180 994 273 q 984 62 994 98 q 954 10 973 26 q 925 0 942 0 q 880 27 898 0 q 855 166 855 66 q 880 313 855 273 q 923 338 896 338 "},"Š":{"ha":622,"x_min":70,"x_max":562,"o":"m 513 758 l 492 758 q 478 723 487 732 q 455 715 469 715 q 412 728 442 715 q 287 758 346 758 q 131 700 192 758 q 70 562 70 642 q 91 478 70 517 q 152 408 111 440 q 287 323 192 376 q 403 254 382 270 q 450 202 435 230 q 465 147 465 174 q 425 62 465 98 q 317 26 385 26 q 209 52 258 26 q 135 118 159 78 q 97 237 111 157 l 77 237 l 77 -17 l 97 -17 q 109 17 101 9 q 130 25 117 25 q 198 8 144 25 q 268 -12 251 -9 q 329 -17 296 -17 q 496 44 431 -17 q 562 189 562 105 q 541 274 562 233 q 483 344 521 314 q 341 429 445 374 q 180 538 214 497 q 157 600 157 566 q 194 679 157 644 q 288 713 231 713 q 385 688 338 713 q 457 618 432 662 q 492 501 483 575 l 513 501 l 513 758 m 359 798 l 463 979 l 446 979 l 321 863 l 172 979 l 155 979 l 258 798 l 359 798 "},"‹":{"ha":372,"x_min":65,"x_max":307,"o":"m 307 -4 l 174 254 l 307 510 l 276 510 l 65 254 l 276 -4 l 307 -4 "},"Œ":{"ha":994,"x_min":41,"x_max":962,"o":"m 603 700 l 743 700 q 821 693 802 700 q 863 659 849 681 q 886 578 873 642 l 903 578 l 897 741 l 639 741 q 493 743 570 741 q 387 747 399 747 q 118 617 210 747 q 41 369 41 510 q 85 175 41 264 q 207 38 130 85 q 375 -9 283 -9 q 454 -5 395 -9 q 545 -1 539 -1 q 639 0 562 0 l 903 0 l 962 186 l 941 186 q 870 81 911 118 q 817 48 842 56 q 725 41 791 41 l 668 41 q 626 46 634 41 q 608 66 614 53 q 603 123 603 79 l 603 368 l 703 368 q 789 346 766 368 q 817 257 812 324 l 838 257 l 838 515 l 817 515 q 792 434 818 460 q 703 408 766 408 l 603 408 l 603 700 m 498 569 l 498 186 q 488 83 498 108 q 454 44 479 58 q 387 30 429 30 q 263 75 315 30 q 190 200 212 121 q 167 365 167 280 q 193 550 167 468 q 270 672 218 632 q 389 712 321 712 q 458 696 431 712 q 488 662 477 685 q 498 569 498 640 "},"Ž":{"ha":683,"x_min":14,"x_max":652,"o":"m 643 741 l 96 741 l 80 555 l 101 555 q 126 646 113 622 q 167 683 140 671 q 252 696 193 696 l 489 696 l 14 20 l 14 0 l 617 0 l 652 196 l 634 199 q 568 75 605 106 q 460 45 530 45 l 157 45 l 643 741 m 401 798 l 505 979 l 488 979 l 363 863 l 214 979 l 197 979 l 300 798 l 401 798 "},"˜":{"ha":372,"x_min":12,"x_max":361,"o":"m 29 599 q 45 654 39 645 q 80 673 58 673 q 104 669 92 673 q 150 640 116 664 q 257 597 214 597 q 308 613 283 597 q 347 660 334 630 q 361 741 361 690 l 344 741 q 323 679 336 694 q 292 665 309 665 q 225 694 270 665 q 155 733 180 724 q 115 741 137 741 q 43 707 72 741 q 12 599 14 673 l 29 599 "},"™":{"ha":1096,"x_min":16,"x_max":1077,"o":"m 28 741 l 16 631 l 35 631 q 65 690 43 673 q 138 707 87 707 l 180 707 l 180 391 q 171 334 180 346 q 125 319 161 323 l 125 300 l 330 300 l 330 319 q 283 333 294 321 q 272 391 272 346 l 272 707 l 313 707 q 390 689 367 707 q 418 631 413 670 l 437 631 l 425 741 l 28 741 m 631 741 l 475 741 l 475 720 q 516 714 505 720 q 532 698 528 709 q 536 646 536 687 l 536 391 q 532 342 536 353 q 516 325 527 330 q 475 319 505 319 l 475 300 l 642 300 l 642 319 l 623 319 q 591 326 601 319 q 576 343 581 332 q 572 391 572 354 l 572 654 l 740 300 l 758 300 l 925 659 l 925 391 q 920 343 925 355 q 903 326 914 332 q 860 319 892 320 l 860 300 l 1077 300 l 1077 319 q 1027 333 1038 321 q 1017 391 1017 345 l 1017 646 q 1021 696 1017 684 q 1036 714 1026 709 q 1077 720 1046 720 l 1077 741 l 925 741 l 780 428 l 631 741 "},"š":{"ha":435,"x_min":55,"x_max":396,"o":"m 358 515 l 340 515 q 329 498 334 502 q 315 494 323 494 q 278 503 306 494 q 206 515 236 515 q 97 473 139 515 q 55 370 55 432 q 79 292 55 323 q 183 220 104 260 q 288 156 262 181 q 315 92 315 130 q 291 39 315 61 q 230 17 267 17 q 133 56 176 17 q 75 171 90 94 l 57 171 l 57 -7 l 75 -7 q 94 7 82 7 q 124 1 106 7 q 229 -16 183 -16 q 344 26 292 -16 q 396 136 396 68 q 285 279 396 225 l 205 318 q 136 366 153 343 q 119 418 119 387 q 142 463 119 442 q 204 483 166 483 q 287 454 254 483 q 340 345 319 425 l 358 345 l 358 515 m 268 575 l 372 756 l 355 756 l 230 640 l 81 756 l 64 756 l 168 575 l 268 575 "},"›":{"ha":372,"x_min":63,"x_max":309,"o":"m 63 510 l 195 252 l 63 -4 l 94 -4 l 309 252 l 94 510 l 63 510 "},"œ":{"ha":808,"x_min":37,"x_max":770,"o":"m 471 313 l 770 313 q 723 461 770 408 q 592 515 673 515 q 506 495 541 515 q 438 429 470 475 q 369 491 412 467 q 267 515 326 515 q 104 441 172 515 q 37 242 37 367 q 102 55 37 125 q 264 -16 168 -16 q 361 7 317 -16 q 438 73 404 29 q 494 10 457 36 q 585 -16 532 -16 q 702 32 653 -16 q 770 184 751 79 l 752 194 q 699 102 732 130 q 622 75 665 75 q 543 102 578 75 q 488 185 507 130 q 470 292 470 241 q 471 313 470 299 m 248 485 q 354 409 317 485 q 391 206 391 334 q 358 64 391 104 q 278 24 326 24 q 195 73 228 24 q 138 294 138 153 q 159 421 138 376 q 201 470 174 456 q 248 485 228 485 m 471 349 q 503 446 475 413 q 567 479 530 479 q 616 463 593 479 q 650 421 640 448 q 663 349 663 387 l 471 349 "},"ž":{"ha":496,"x_min":22,"x_max":478,"o":"m 469 153 l 451 153 q 436 80 445 97 q 403 46 424 56 q 326 37 382 37 l 143 37 l 478 480 l 478 500 l 59 500 l 56 361 l 77 361 q 94 429 80 401 q 121 455 105 448 q 191 462 138 462 l 354 462 l 22 20 l 22 0 l 463 0 l 469 153 m 307 575 l 411 756 l 394 756 l 269 640 l 120 756 l 103 756 l 207 575 l 307 575 "},"Ÿ":{"ha":808,"x_min":10,"x_max":791,"o":"m 533 741 l 533 720 q 577 713 562 720 q 600 694 592 707 q 608 667 608 682 q 575 591 608 642 l 430 363 l 275 601 q 242 672 242 652 q 263 708 242 696 q 311 720 285 720 l 327 720 l 327 741 l 10 741 l 10 720 q 42 715 31 720 q 95 682 83 696 q 144 614 108 668 l 347 304 l 347 128 q 335 49 347 66 q 269 20 315 20 l 242 20 l 242 0 l 557 0 l 557 20 l 533 20 q 467 43 488 20 q 452 128 452 60 l 452 314 l 631 595 q 686 672 663 648 q 735 708 708 695 q 777 720 763 720 l 791 720 l 791 741 l 533 741 m 511 932 q 469 915 486 932 q 451 873 451 898 q 469 831 451 848 q 511 814 486 814 q 552 831 535 814 q 570 873 570 848 q 552 915 570 898 q 511 932 535 932 m 318 932 q 276 915 294 932 q 259 873 259 898 q 276 831 259 848 q 319 814 294 814 q 360 831 342 814 q 378 873 378 848 q 360 915 378 898 q 318 932 343 932 "}," ":{"ha":279,"x_min":0,"x_max":0,"o":""},"¡":{"ha":372,"x_min":125,"x_max":248,"o":"m 186 532 q 144 514 161 532 q 127 471 127 496 q 144 429 127 446 q 186 411 161 411 q 230 429 212 411 q 248 471 248 446 q 230 514 248 496 q 186 532 212 532 m 176 321 l 127 -122 q 125 -158 125 -145 q 143 -221 125 -200 q 186 -241 161 -241 q 230 -220 212 -241 q 248 -165 248 -199 q 245 -122 248 -151 l 197 321 l 176 321 "},"£":{"ha":559,"x_min":33,"x_max":533,"o":"m 395 359 l 395 412 l 254 412 q 248 471 252 430 q 242 572 242 533 q 270 692 242 658 q 341 726 298 726 q 389 710 372 726 q 407 663 405 695 q 416 620 410 630 q 450 600 429 600 q 479 613 466 600 q 492 644 492 627 q 458 719 492 682 q 354 755 423 755 q 253 726 300 755 q 179 642 205 697 q 153 520 153 587 q 159 412 153 493 l 54 412 l 54 359 l 159 359 q 171 180 171 228 q 171 163 171 173 q 170 138 170 153 q 144 141 155 140 q 123 142 132 142 q 58 118 83 142 q 33 58 33 94 q 52 6 33 24 q 97 -13 70 -13 q 152 9 126 -13 q 199 74 177 31 q 310 0 279 14 q 376 -13 340 -13 q 477 32 432 -13 q 533 165 522 77 l 514 170 q 472 104 500 125 q 399 83 444 83 q 343 90 371 83 q 220 127 328 93 q 247 228 239 184 q 254 323 254 271 q 254 359 254 334 l 395 359 m 163 94 q 135 35 153 52 q 100 18 118 18 q 75 30 85 18 q 64 61 64 41 q 78 96 64 83 q 116 109 92 109 q 139 105 127 109 q 163 94 151 102 "},"¥":{"ha":559,"x_min":1,"x_max":559,"o":"m 326 232 l 326 321 l 330 330 l 559 330 l 559 370 l 347 370 l 464 635 q 511 707 488 688 q 559 720 526 720 l 559 741 l 370 741 l 370 720 q 385 718 379 718 q 419 709 412 715 q 431 686 431 698 q 419 646 431 673 l 303 370 l 186 654 q 176 686 176 677 q 190 707 176 697 q 242 720 203 717 l 242 741 l 1 741 l 1 720 q 51 704 32 719 q 91 641 71 688 l 207 370 l 1 370 l 1 330 l 224 330 l 233 311 l 233 232 l 1 232 l 1 192 l 233 192 l 233 133 q 231 68 233 78 q 212 37 225 47 q 155 22 194 22 l 138 22 l 138 0 l 419 0 l 419 22 l 397 22 q 351 35 371 22 q 332 55 337 43 q 326 133 326 72 l 326 192 l 559 192 l 559 232 l 326 232 "},"¦":{"ha":224,"x_min":88,"x_max":133,"o":"m 133 777 l 88 777 l 88 371 l 133 371 l 133 777 m 133 164 l 88 164 l 88 -241 l 133 -241 l 133 164 "},"¨":{"ha":372,"x_min":31,"x_max":342,"o":"m 283 730 q 241 712 258 730 q 223 671 223 695 q 241 629 223 646 q 283 612 258 612 q 325 629 307 612 q 342 671 342 646 q 325 712 342 695 q 283 730 307 730 m 90 730 q 48 712 66 730 q 31 671 31 695 q 48 629 31 646 q 91 612 66 612 q 132 629 115 612 q 150 671 150 646 q 133 712 150 695 q 90 730 115 730 "},"©":{"ha":850,"x_min":38,"x_max":812,"o":"m 425 758 q 235 707 328 758 q 90 564 142 657 q 38 370 38 471 q 89 178 38 270 q 232 34 140 85 q 425 -17 324 -17 q 617 34 525 -17 q 761 178 710 85 q 812 370 812 270 q 760 564 812 471 q 615 707 708 657 q 425 758 522 758 m 425 724 q 599 678 514 724 q 731 547 684 632 q 779 370 779 463 q 732 195 779 279 q 601 63 685 111 q 425 16 517 16 q 249 63 333 16 q 118 195 165 111 q 71 370 71 279 q 119 547 71 463 q 251 678 167 632 q 425 724 336 724 m 616 619 l 595 619 q 583 599 589 604 q 568 595 576 595 q 547 599 562 595 q 489 616 505 613 q 446 620 472 620 q 251 546 328 620 q 175 367 175 472 q 247 195 175 266 q 427 125 318 125 q 637 235 561 125 l 616 245 q 446 157 553 157 q 315 212 365 157 q 265 382 265 267 q 276 465 265 426 q 304 527 287 503 q 361 576 326 558 q 441 595 396 595 q 544 563 500 595 q 606 466 587 531 l 627 466 l 616 619 "},"ª":{"ha":309,"x_min":-3,"x_max":307,"o":"m 186 644 q 67 590 96 607 q 9 539 25 564 q -3 497 -3 522 q 18 451 -3 471 q 68 430 39 430 q 122 443 92 430 q 186 479 151 455 q 201 438 191 450 q 225 427 212 427 q 253 433 239 427 q 307 468 267 439 l 307 494 q 275 477 283 477 q 268 481 272 477 q 262 492 264 485 q 261 525 261 496 l 261 644 q 254 704 261 686 q 219 739 246 722 q 142 755 192 755 q 45 731 76 755 q 14 677 14 707 q 23 654 14 663 q 45 645 32 645 q 67 656 58 645 q 77 692 77 667 q 89 729 77 717 q 127 741 102 741 q 171 722 157 741 q 186 644 186 704 m 186 623 l 186 500 q 149 482 165 488 q 121 476 133 476 q 86 490 100 476 q 73 523 73 505 q 96 575 73 549 q 186 623 120 602 "},"«":{"ha":559,"x_min":35,"x_max":524,"o":"m 277 -4 l 144 254 l 277 510 l 246 510 l 35 254 l 246 -4 l 277 -4 m 524 -4 l 391 254 l 524 510 l 492 510 l 277 254 l 492 -4 l 524 -4 "},"­":{"ha":372,"x_min":45,"x_max":328,"o":"m 45 292 l 45 210 l 328 210 l 328 292 l 45 292 "},"®":{"ha":850,"x_min":38,"x_max":812,"o":"m 425 758 q 235 707 328 758 q 90 564 142 657 q 38 370 38 471 q 89 178 38 270 q 232 34 140 85 q 425 -17 324 -17 q 617 34 525 -17 q 761 178 710 85 q 812 370 812 270 q 760 564 812 471 q 615 707 708 657 q 425 758 522 758 m 425 724 q 599 678 514 724 q 731 547 684 632 q 779 370 779 463 q 732 195 779 279 q 601 63 685 111 q 425 16 517 16 q 249 63 333 16 q 118 195 165 111 q 71 370 71 279 q 119 547 71 463 q 251 678 167 632 q 425 724 336 724 m 211 608 l 211 589 q 245 582 235 589 q 259 562 256 575 q 261 515 261 555 l 261 229 q 257 178 261 187 q 241 160 252 167 q 204 154 231 154 l 204 136 l 405 136 l 405 154 q 356 162 368 154 q 340 189 343 170 l 340 357 l 382 357 l 542 136 l 642 136 l 642 154 q 614 162 624 155 q 576 202 597 173 l 463 365 q 556 413 528 382 q 584 486 584 444 q 542 572 584 536 q 421 608 500 608 l 211 608 m 340 380 l 340 575 q 386 584 366 584 q 465 554 434 584 q 496 480 496 524 q 480 428 496 451 q 434 393 464 406 q 340 380 405 380 "},"¯":{"ha":559,"x_min":-9,"x_max":569,"o":"m 569 798 l 569 844 l -9 844 l -9 798 l 569 798 "},"±":{"ha":614,"x_min":4,"x_max":593,"o":"m 4 77 l 593 77 l 593 121 l 320 121 l 320 349 l 593 349 l 593 394 l 320 394 l 320 665 l 276 665 l 276 394 l 4 394 l 4 349 l 276 349 l 276 121 l 4 121 l 4 77 "},"²":{"ha":335,"x_min":11,"x_max":314,"o":"m 314 446 l 290 446 q 263 421 279 428 q 200 415 248 415 l 98 415 q 259 576 218 512 q 286 653 286 617 q 249 724 286 692 q 155 755 213 755 q 65 725 100 755 q 23 642 31 695 l 47 642 q 83 690 60 673 q 138 706 106 706 q 195 683 172 706 q 217 627 217 661 q 190 549 217 589 q 11 378 146 483 l 11 363 l 281 363 l 314 446 "},"³":{"ha":335,"x_min":24,"x_max":286,"o":"m 30 671 l 51 662 q 131 710 85 710 q 179 693 161 710 q 197 650 197 676 q 169 591 197 616 q 98 565 140 565 l 98 550 l 114 550 q 172 537 140 550 q 210 506 195 528 q 224 459 224 484 q 202 409 224 430 q 150 387 180 387 q 100 400 130 387 q 56 413 71 413 q 33 406 42 413 q 24 389 24 398 q 38 368 24 376 q 104 354 58 354 q 239 395 192 354 q 286 492 286 435 q 266 550 286 524 q 206 591 245 576 q 264 675 264 638 q 235 730 264 705 q 155 755 205 755 q 74 730 109 755 q 30 671 50 711 "},"´":{"ha":372,"x_min":129,"x_max":309,"o":"m 309 759 l 186 759 l 129 570 l 147 570 l 309 759 "},"µ":{"ha":644,"x_min":73,"x_max":597,"o":"m 107 500 l 107 104 q 108 63 108 66 q 101 -35 108 21 q 89 -92 100 -48 q 73 -182 73 -157 q 87 -225 73 -210 q 121 -241 100 -241 q 157 -224 141 -241 q 172 -181 172 -208 q 165 -125 172 -158 q 146 6 146 -37 q 147 31 146 14 q 181 -4 166 5 q 231 -16 203 -16 q 314 8 273 -16 q 403 88 355 33 q 424 16 408 40 q 489 -16 446 -16 q 563 15 533 -16 q 597 111 592 45 l 574 111 q 554 56 568 73 q 530 43 545 43 q 510 51 519 43 q 497 71 501 58 q 493 143 493 88 l 493 500 l 403 500 l 403 125 q 274 52 338 52 q 233 65 252 52 q 206 101 214 79 q 197 209 197 130 l 197 500 l 107 500 "},"¸":{"ha":372,"x_min":102,"x_max":271,"o":"m 197 9 l 136 -88 q 151 -87 145 -87 q 182 -99 170 -87 q 195 -127 195 -111 q 175 -170 195 -151 q 128 -188 156 -188 q 102 -186 117 -188 l 102 -209 q 153 -213 133 -213 q 238 -183 205 -213 q 271 -114 271 -153 q 254 -64 271 -85 q 203 -35 237 -43 l 230 9 l 197 9 "},"¹":{"ha":335,"x_min":74,"x_max":260,"o":"m 74 708 l 83 693 q 119 704 109 704 q 130 700 126 704 q 136 688 134 696 q 138 637 138 675 l 138 433 q 136 393 138 399 q 127 384 133 387 q 83 380 118 380 l 83 363 l 260 363 l 260 380 q 217 385 226 380 q 209 392 212 387 q 205 433 205 399 l 205 755 l 186 755 l 74 708 "},"º":{"ha":347,"x_min":16,"x_max":334,"o":"m 177 755 q 61 709 106 755 q 16 587 16 662 q 60 474 16 519 q 170 430 105 430 q 285 479 237 430 q 334 595 334 528 q 289 709 334 663 q 177 755 245 755 m 161 732 q 220 699 195 732 q 258 559 258 644 q 238 482 258 506 q 186 458 217 458 q 130 488 152 458 q 93 629 93 543 q 113 708 93 683 q 161 732 133 732 "},"»":{"ha":559,"x_min":35,"x_max":524,"o":"m 281 510 l 415 252 l 281 -4 l 313 -4 l 524 252 l 313 510 l 281 510 m 35 510 l 168 252 l 35 -4 l 66 -4 l 281 252 l 66 510 l 35 510 "},"¼":{"ha":838,"x_min":73,"x_max":819,"o":"m 73 708 l 82 693 q 119 704 108 704 q 129 700 125 704 q 135 688 133 696 q 138 637 138 675 l 138 433 q 135 393 138 399 q 125 384 132 387 q 82 380 117 380 l 82 363 l 259 363 l 259 380 q 216 385 225 380 q 208 392 210 387 q 204 433 204 399 l 204 755 l 185 755 l 73 708 m 705 755 l 656 755 l 146 -29 l 195 -29 l 705 755 m 819 122 l 760 122 l 760 372 l 715 372 l 509 118 l 509 78 l 696 78 l 696 -22 l 760 -22 l 760 78 l 819 78 l 819 122 m 696 122 l 555 122 l 696 295 l 696 122 "},"½":{"ha":838,"x_min":73,"x_max":816,"o":"m 73 708 l 82 693 q 119 704 108 704 q 129 700 125 704 q 135 688 133 696 q 138 637 138 675 l 138 433 q 135 393 138 399 q 125 384 132 387 q 82 380 117 380 l 82 363 l 259 363 l 259 380 q 216 385 225 380 q 208 392 210 387 q 204 433 204 399 l 204 755 l 185 755 l 73 708 m 692 755 l 644 755 l 133 -29 l 182 -29 l 692 755 m 816 62 l 791 62 q 764 37 780 43 q 702 31 749 31 l 600 31 q 761 192 720 128 q 787 269 787 233 q 751 340 787 308 q 656 372 715 372 q 567 341 602 372 q 525 258 532 311 l 549 258 q 585 306 562 290 q 640 322 608 322 q 696 299 673 322 q 719 243 719 277 q 692 165 719 205 q 513 -5 648 100 l 513 -22 l 783 -22 l 816 62 "},"¾":{"ha":838,"x_min":23,"x_max":819,"o":"m 697 755 l 650 755 l 140 -29 l 189 -29 l 697 755 m 29 671 l 50 662 q 130 710 83 710 q 178 693 160 710 q 196 650 196 676 q 167 591 196 616 q 96 565 138 565 l 96 550 q 192 525 161 551 q 223 459 223 498 q 201 409 223 430 q 149 387 180 387 q 99 400 128 387 q 55 413 71 413 q 32 406 41 413 q 23 389 23 398 q 37 368 23 376 q 103 354 58 354 q 238 395 191 354 q 284 492 284 435 q 264 550 284 524 q 205 591 245 576 q 262 675 262 638 q 234 730 262 705 q 155 755 205 755 q 73 730 108 755 q 29 671 49 711 m 819 122 l 760 122 l 760 372 l 715 372 l 509 118 l 509 78 l 697 78 l 697 -22 l 760 -22 l 760 78 l 819 78 l 819 122 m 697 122 l 555 122 l 697 295 l 697 122 "},"¿":{"ha":496,"x_min":49,"x_max":450,"o":"m 247 532 q 204 515 222 532 q 186 472 186 497 q 204 429 186 446 q 247 411 222 411 q 290 429 272 411 q 307 472 307 446 q 290 515 307 497 q 247 532 272 532 m 241 342 q 221 240 237 277 q 146 136 205 203 q 64 15 88 68 q 49 -68 49 -23 q 103 -190 49 -139 q 251 -241 158 -241 q 396 -194 343 -241 q 450 -83 450 -146 q 431 -23 450 -45 q 389 0 412 0 q 358 -13 371 0 q 345 -44 345 -26 q 362 -91 345 -62 q 379 -137 379 -120 q 352 -186 379 -164 q 277 -209 324 -209 q 184 -170 220 -209 q 148 -58 148 -130 q 193 100 148 5 q 249 234 238 195 q 262 342 259 274 l 241 342 "},"À":{"ha":808,"x_min":9,"x_max":795,"o":"m 511 248 l 556 141 q 578 66 578 90 q 563 35 578 47 q 503 20 547 22 l 503 0 l 795 0 l 795 20 q 724 45 749 23 q 668 141 699 67 l 410 758 l 391 758 l 130 148 q 68 41 96 68 q 9 20 55 28 l 9 0 l 242 0 l 242 20 q 172 37 189 24 q 156 66 156 50 q 175 131 156 88 l 225 248 l 511 248 m 496 288 l 242 288 l 371 587 l 496 288 m 280 981 l 441 793 l 460 793 l 402 981 l 280 981 "},"Á":{"ha":808,"x_min":9,"x_max":795,"o":"m 511 248 l 556 141 q 578 66 578 90 q 563 35 578 47 q 503 20 547 22 l 503 0 l 795 0 l 795 20 q 724 45 749 23 q 668 141 699 67 l 410 758 l 391 758 l 130 148 q 68 41 96 68 q 9 20 55 28 l 9 0 l 242 0 l 242 20 q 172 37 189 24 q 156 66 156 50 q 175 131 156 88 l 225 248 l 511 248 m 496 288 l 242 288 l 371 587 l 496 288 m 524 981 l 401 981 l 344 793 l 362 793 l 524 981 "},"Â":{"ha":808,"x_min":9,"x_max":795,"o":"m 511 248 l 556 141 q 578 66 578 90 q 563 35 578 47 q 503 20 547 22 l 503 0 l 795 0 l 795 20 q 724 45 749 23 q 668 141 699 67 l 410 758 l 391 758 l 130 148 q 68 41 96 68 q 9 20 55 28 l 9 0 l 242 0 l 242 20 q 172 37 189 24 q 156 66 156 50 q 175 131 156 88 l 225 248 l 511 248 m 496 288 l 242 288 l 371 587 l 496 288 m 351 979 l 248 798 l 264 798 l 389 914 l 538 798 l 555 798 l 452 979 l 351 979 "},"Ã":{"ha":808,"x_min":9,"x_max":795,"o":"m 511 248 l 556 141 q 578 66 578 90 q 563 35 578 47 q 503 20 547 22 l 503 0 l 795 0 l 795 20 q 724 45 749 23 q 668 141 699 67 l 410 758 l 391 758 l 130 148 q 68 41 96 68 q 9 20 55 28 l 9 0 l 242 0 l 242 20 q 172 37 189 24 q 156 66 156 50 q 175 131 156 88 l 225 248 l 511 248 m 496 288 l 242 288 l 371 587 l 496 288 m 245 800 q 260 854 254 846 q 296 874 273 874 q 319 869 307 874 q 366 841 332 865 q 473 798 430 798 q 524 814 498 798 q 563 861 549 831 q 576 941 576 890 l 559 941 q 538 880 552 895 q 508 865 525 865 q 441 895 486 865 q 371 934 396 924 q 330 941 353 941 q 259 908 288 941 q 228 800 230 874 l 245 800 "},"Ä":{"ha":808,"x_min":9,"x_max":795,"o":"m 511 248 l 556 141 q 578 66 578 90 q 563 35 578 47 q 503 20 547 22 l 503 0 l 795 0 l 795 20 q 724 45 749 23 q 668 141 699 67 l 410 758 l 391 758 l 130 148 q 68 41 96 68 q 9 20 55 28 l 9 0 l 242 0 l 242 20 q 172 37 189 24 q 156 66 156 50 q 175 131 156 88 l 225 248 l 511 248 m 496 288 l 242 288 l 371 587 l 496 288 m 497 932 q 455 915 473 932 q 437 873 437 898 q 455 831 437 848 q 497 814 473 814 q 539 831 522 814 q 556 873 556 848 q 539 915 556 898 q 497 932 522 932 m 304 932 q 263 915 280 932 q 245 873 245 898 q 263 831 245 848 q 305 814 280 814 q 347 831 329 814 q 364 873 364 848 q 347 915 364 898 q 304 932 330 932 "},"Å":{"ha":808,"x_min":9,"x_max":795,"o":"m 511 248 l 556 141 q 578 66 578 90 q 563 35 578 47 q 503 20 547 22 l 503 0 l 795 0 l 795 20 q 724 45 749 23 q 668 141 699 67 l 410 758 l 391 758 l 130 148 q 68 41 96 68 q 9 20 55 28 l 9 0 l 242 0 l 242 20 q 172 37 189 24 q 156 66 156 50 q 175 131 156 88 l 225 248 l 511 248 m 496 288 l 242 288 l 371 587 l 496 288 m 399 928 q 325 898 355 928 q 295 825 295 867 q 326 750 295 781 q 399 720 356 720 q 473 750 443 720 q 504 825 504 781 q 473 898 504 867 q 399 928 443 928 m 399 891 q 447 872 427 891 q 466 825 466 852 q 447 777 466 797 q 399 758 427 758 q 352 777 371 758 q 332 825 332 797 q 352 872 332 852 q 399 891 371 891 "},"Æ":{"ha":994,"x_min":-13,"x_max":963,"o":"m 561 700 l 741 700 q 816 694 800 700 q 858 663 844 684 q 886 578 878 634 l 904 578 l 896 741 l 290 741 l 290 720 q 369 703 351 717 q 384 676 384 693 q 342 570 384 648 l 117 150 q 65 66 85 92 q 28 31 45 41 q -13 20 11 21 l -13 0 l 220 0 l 220 20 q 150 37 167 24 q 134 65 134 50 q 172 159 134 87 l 239 287 l 456 287 l 456 130 q 443 47 456 64 q 376 20 421 20 l 349 20 l 349 0 l 904 0 l 963 186 l 942 186 q 877 88 917 125 q 815 51 847 60 q 723 41 783 41 l 623 41 q 580 47 592 41 q 565 63 568 54 q 561 122 561 73 l 561 368 l 701 368 q 764 361 751 368 q 802 331 791 350 q 819 258 813 312 l 839 258 l 839 515 l 819 515 q 789 431 815 454 q 701 408 764 408 l 561 408 l 561 700 m 456 700 l 456 326 l 261 326 l 456 700 "},"Ç":{"ha":746,"x_min":41,"x_max":707,"o":"m 673 758 l 654 758 q 634 716 648 731 q 608 706 623 706 q 575 718 598 706 q 417 758 497 758 q 227 706 314 758 q 90 562 140 655 q 41 359 41 469 q 116 119 41 221 q 401 -17 217 -17 q 577 29 503 -17 q 707 174 651 75 l 690 184 q 569 62 624 93 q 441 31 514 31 q 294 71 359 31 q 197 183 229 110 q 165 357 165 257 q 199 561 165 479 q 293 681 233 643 q 426 718 352 718 q 577 668 514 718 q 673 505 640 618 l 690 505 l 673 758 m 381 9 l 320 -88 q 334 -87 329 -87 q 366 -99 353 -87 q 378 -127 378 -111 q 359 -170 378 -151 q 312 -188 340 -188 q 286 -186 301 -188 l 286 -209 q 337 -213 317 -213 q 422 -183 389 -213 q 454 -114 454 -153 q 437 -64 454 -85 q 387 -35 420 -43 l 414 9 l 381 9 "},"È":{"ha":683,"x_min":23,"x_max":657,"o":"m 234 700 l 437 700 q 514 692 492 700 q 555 659 541 680 q 581 578 569 637 l 602 578 l 593 741 l 23 741 l 23 720 l 49 720 q 115 699 95 720 q 129 612 129 682 l 129 130 q 122 59 129 77 q 99 33 116 41 q 49 20 75 20 l 23 20 l 23 0 l 593 0 l 657 186 l 635 186 q 566 83 600 117 q 511 49 540 58 q 420 41 483 41 l 295 41 q 253 47 264 41 q 238 63 242 53 q 234 123 234 74 l 234 368 l 396 368 q 465 357 443 368 q 497 326 488 346 q 513 257 505 311 l 533 257 l 533 515 l 513 515 q 481 427 509 452 q 396 408 460 408 l 234 408 l 234 700 m 222 981 l 382 793 l 401 793 l 344 981 l 222 981 "},"É":{"ha":683,"x_min":23,"x_max":657,"o":"m 234 700 l 437 700 q 514 692 492 700 q 555 659 541 680 q 581 578 569 637 l 602 578 l 593 741 l 23 741 l 23 720 l 49 720 q 115 699 95 720 q 129 612 129 682 l 129 130 q 122 59 129 77 q 99 33 116 41 q 49 20 75 20 l 23 20 l 23 0 l 593 0 l 657 186 l 635 186 q 566 83 600 117 q 511 49 540 58 q 420 41 483 41 l 295 41 q 253 47 264 41 q 238 63 242 53 q 234 123 234 74 l 234 368 l 396 368 q 465 357 443 368 q 497 326 488 346 q 513 257 505 311 l 533 257 l 533 515 l 513 515 q 481 427 509 452 q 396 408 460 408 l 234 408 l 234 700 m 466 981 l 344 981 l 286 793 l 304 793 l 466 981 "},"Ê":{"ha":683,"x_min":23,"x_max":657,"o":"m 234 700 l 437 700 q 514 692 492 700 q 555 659 541 680 q 581 578 569 637 l 602 578 l 593 741 l 23 741 l 23 720 l 49 720 q 115 699 95 720 q 129 612 129 682 l 129 130 q 122 59 129 77 q 99 33 116 41 q 49 20 75 20 l 23 20 l 23 0 l 593 0 l 657 186 l 635 186 q 566 83 600 117 q 511 49 540 58 q 420 41 483 41 l 295 41 q 253 47 264 41 q 238 63 242 53 q 234 123 234 74 l 234 368 l 396 368 q 465 357 443 368 q 497 326 488 346 q 513 257 505 311 l 533 257 l 533 515 l 513 515 q 481 427 509 452 q 396 408 460 408 l 234 408 l 234 700 m 293 979 l 190 798 l 206 798 l 332 914 l 481 798 l 498 798 l 394 979 l 293 979 "},"Ë":{"ha":683,"x_min":23,"x_max":657,"o":"m 234 700 l 437 700 q 514 692 492 700 q 555 659 541 680 q 581 578 569 637 l 602 578 l 593 741 l 23 741 l 23 720 l 49 720 q 115 699 95 720 q 129 612 129 682 l 129 130 q 122 59 129 77 q 99 33 116 41 q 49 20 75 20 l 23 20 l 23 0 l 593 0 l 657 186 l 635 186 q 566 83 600 117 q 511 49 540 58 q 420 41 483 41 l 295 41 q 253 47 264 41 q 238 63 242 53 q 234 123 234 74 l 234 368 l 396 368 q 465 357 443 368 q 497 326 488 346 q 513 257 505 311 l 533 257 l 533 515 l 513 515 q 481 427 509 452 q 396 408 460 408 l 234 408 l 234 700 m 439 932 q 397 915 415 932 q 380 873 380 898 q 397 831 380 848 q 439 814 415 814 q 481 831 464 814 q 498 873 498 848 q 481 915 498 898 q 439 932 464 932 m 247 932 q 205 915 222 932 q 188 873 188 898 q 205 831 188 848 q 248 814 222 814 q 289 831 271 814 q 307 873 307 848 q 289 915 307 898 q 247 932 272 932 "},"Ì":{"ha":372,"x_min":28,"x_max":345,"o":"m 345 20 l 318 20 q 269 33 292 20 q 245 57 251 43 q 239 131 239 75 l 239 609 q 252 693 239 676 q 318 720 273 720 l 345 720 l 345 741 l 28 741 l 28 720 l 54 720 q 104 707 80 720 q 127 684 121 697 q 134 609 134 665 l 134 131 q 121 47 134 64 q 54 20 100 20 l 28 20 l 28 0 l 345 0 l 345 20 m 65 981 l 226 793 l 245 793 l 187 981 l 65 981 "},"Í":{"ha":372,"x_min":28,"x_max":345,"o":"m 345 20 l 318 20 q 269 33 292 20 q 245 57 251 43 q 239 131 239 75 l 239 609 q 252 693 239 676 q 318 720 273 720 l 345 720 l 345 741 l 28 741 l 28 720 l 54 720 q 104 707 80 720 q 127 684 121 697 q 134 609 134 665 l 134 131 q 121 47 134 64 q 54 20 100 20 l 28 20 l 28 0 l 345 0 l 345 20 m 309 981 l 186 981 l 129 793 l 147 793 l 309 981 "},"Î":{"ha":372,"x_min":28,"x_max":345,"o":"m 345 20 l 318 20 q 269 33 292 20 q 245 57 251 43 q 239 131 239 75 l 239 609 q 252 693 239 676 q 318 720 273 720 l 345 720 l 345 741 l 28 741 l 28 720 l 54 720 q 104 707 80 720 q 127 684 121 697 q 134 609 134 665 l 134 131 q 121 47 134 64 q 54 20 100 20 l 28 20 l 28 0 l 345 0 l 345 20 m 136 979 l 33 798 l 49 798 l 174 914 l 323 798 l 340 798 l 237 979 l 136 979 "},"Ï":{"ha":372,"x_min":28,"x_max":345,"o":"m 345 20 l 318 20 q 269 33 292 20 q 245 57 251 43 q 239 131 239 75 l 239 609 q 252 693 239 676 q 318 720 273 720 l 345 720 l 345 741 l 28 741 l 28 720 l 54 720 q 104 707 80 720 q 127 684 121 697 q 134 609 134 665 l 134 131 q 121 47 134 64 q 54 20 100 20 l 28 20 l 28 0 l 345 0 l 345 20 m 283 932 q 241 915 258 932 q 223 873 223 898 q 241 831 223 848 q 283 814 258 814 q 325 831 307 814 q 342 873 342 848 q 325 915 342 898 q 283 932 307 932 m 90 932 q 48 915 66 932 q 31 873 31 898 q 48 831 31 848 q 91 814 66 814 q 132 831 115 814 q 150 873 150 848 q 133 915 150 898 q 90 932 115 932 "},"Ð":{"ha":808,"x_min":19,"x_max":764,"o":"m 19 0 l 349 0 q 664 109 564 0 q 764 375 764 218 q 711 576 764 490 q 575 701 657 662 q 321 741 492 741 l 19 741 l 19 720 l 47 720 q 111 696 89 720 q 125 609 125 679 l 125 410 l 19 410 l 19 370 l 125 370 l 125 131 q 114 51 125 68 q 47 20 94 20 l 19 20 l 19 0 m 231 55 l 231 370 l 446 370 l 446 410 l 231 410 l 231 684 q 343 700 294 700 q 557 611 473 700 q 640 370 640 523 q 557 128 640 217 q 347 39 473 39 q 231 55 300 39 "},"Ñ":{"ha":808,"x_min":-15,"x_max":791,"o":"m -15 741 l -15 720 q 33 715 18 720 q 82 693 66 705 q 131 643 99 681 l 131 128 q 119 49 131 66 q 52 20 100 20 l 26 20 l 26 0 l 284 0 l 284 20 l 258 20 q 194 43 214 20 q 179 128 179 60 l 179 584 l 667 -12 l 687 -12 l 687 612 q 699 692 687 674 q 766 720 718 720 l 791 720 l 791 741 l 534 741 l 534 720 l 559 720 q 623 697 604 720 q 639 612 639 680 l 639 185 l 186 741 l -15 741 m 244 800 q 260 854 254 846 q 295 874 273 874 q 319 869 307 874 q 365 841 331 865 q 472 798 429 798 q 523 814 498 798 q 562 861 549 831 q 576 941 576 890 l 559 941 q 538 880 551 895 q 507 865 524 865 q 440 895 485 865 q 370 934 395 924 q 330 941 352 941 q 258 908 287 941 q 227 800 229 874 l 244 800 "},"Ò":{"ha":808,"x_min":39,"x_max":764,"o":"m 409 758 q 159 661 264 758 q 39 373 39 549 q 143 92 39 200 q 400 -17 248 -17 q 658 94 551 -17 q 764 374 764 205 q 659 648 764 538 q 409 758 553 758 m 399 718 q 564 643 505 718 q 640 359 640 550 q 571 103 640 184 q 399 22 503 22 q 242 96 301 22 q 164 375 164 194 q 239 644 164 552 q 399 718 299 718 m 279 981 l 439 793 l 458 793 l 401 981 l 279 981 "},"Ó":{"ha":808,"x_min":39,"x_max":764,"o":"m 409 758 q 159 661 264 758 q 39 373 39 549 q 143 92 39 200 q 400 -17 248 -17 q 658 94 551 -17 q 764 374 764 205 q 659 648 764 538 q 409 758 553 758 m 399 718 q 564 643 505 718 q 640 359 640 550 q 571 103 640 184 q 399 22 503 22 q 242 96 301 22 q 164 375 164 194 q 239 644 164 552 q 399 718 299 718 m 523 981 l 401 981 l 343 793 l 361 793 l 523 981 "},"Ô":{"ha":808,"x_min":39,"x_max":764,"o":"m 409 758 q 159 661 264 758 q 39 373 39 549 q 143 92 39 200 q 400 -17 248 -17 q 658 94 551 -17 q 764 374 764 205 q 659 648 764 538 q 409 758 553 758 m 399 718 q 564 643 505 718 q 640 359 640 550 q 571 103 640 184 q 399 22 503 22 q 242 96 301 22 q 164 375 164 194 q 239 644 164 552 q 399 718 299 718 m 350 979 l 247 798 l 263 798 l 389 914 l 538 798 l 555 798 l 451 979 l 350 979 "},"Õ":{"ha":808,"x_min":39,"x_max":764,"o":"m 409 758 q 159 661 264 758 q 39 373 39 549 q 143 92 39 200 q 400 -17 248 -17 q 658 94 551 -17 q 764 374 764 205 q 659 648 764 538 q 409 758 553 758 m 399 718 q 564 643 505 718 q 640 359 640 550 q 571 103 640 184 q 399 22 503 22 q 242 96 301 22 q 164 375 164 194 q 239 644 164 552 q 399 718 299 718 m 243 800 q 259 854 253 846 q 294 874 272 874 q 318 869 306 874 q 364 841 330 865 q 471 798 429 798 q 523 814 497 798 q 562 861 548 831 q 575 941 575 890 l 558 941 q 537 880 551 895 q 507 865 524 865 q 439 895 484 865 q 370 934 395 924 q 329 941 351 941 q 257 908 286 941 q 227 800 229 874 l 243 800 "},"Ö":{"ha":808,"x_min":39,"x_max":764,"o":"m 409 758 q 159 661 264 758 q 39 373 39 549 q 143 92 39 200 q 400 -17 248 -17 q 658 94 551 -17 q 764 374 764 205 q 659 648 764 538 q 409 758 553 758 m 399 718 q 564 643 505 718 q 640 359 640 550 q 571 103 640 184 q 399 22 503 22 q 242 96 301 22 q 164 375 164 194 q 239 644 164 552 q 399 718 299 718 m 496 932 q 454 915 472 932 q 437 873 437 898 q 454 831 437 848 q 496 814 472 814 q 538 831 521 814 q 555 873 555 848 q 538 915 555 898 q 496 932 521 932 m 304 932 q 262 915 279 932 q 245 873 245 898 q 262 831 245 848 q 304 814 279 814 q 346 831 328 814 q 363 873 363 848 q 346 915 363 898 q 304 932 329 932 "},"Ø":{"ha":808,"x_min":40,"x_max":765,"o":"m 626 676 q 405 758 528 758 q 147 648 254 758 q 40 378 40 538 q 150 90 40 203 l 77 0 l 110 -26 l 180 61 q 288 3 226 24 q 406 -17 350 -17 q 631 72 529 -17 q 765 375 765 188 q 739 524 765 460 q 656 649 713 587 l 729 741 l 698 764 l 626 676 m 581 620 l 205 158 q 165 380 165 254 q 185 537 165 467 q 248 654 205 606 q 321 707 281 690 q 401 718 351 718 q 581 620 517 718 m 601 581 q 629 483 621 525 q 639 358 639 425 q 616 194 639 260 q 561 93 593 129 q 492 40 529 57 q 399 22 456 22 q 290 53 339 22 q 227 119 256 74 l 601 581 "},"Ù":{"ha":808,"x_min":6,"x_max":795,"o":"m 533 720 l 562 720 q 625 696 604 720 q 640 609 640 679 l 640 309 q 618 142 640 192 q 540 61 597 93 q 410 29 483 29 q 315 50 354 29 q 255 101 276 70 q 226 188 234 132 q 218 287 218 243 l 218 609 q 232 691 218 671 q 298 720 252 720 l 326 720 l 326 741 l 6 741 l 6 720 l 34 720 q 95 699 76 720 q 113 609 113 677 l 113 320 q 131 138 113 186 q 220 24 157 66 q 404 -18 283 -18 q 580 26 515 -18 q 667 132 645 71 q 689 304 689 193 l 689 605 q 701 684 689 667 q 768 720 724 720 l 795 720 l 795 741 l 533 741 l 533 720 m 307 981 l 467 793 l 486 793 l 429 981 l 307 981 "},"Ú":{"ha":808,"x_min":6,"x_max":795,"o":"m 533 720 l 562 720 q 625 696 604 720 q 640 609 640 679 l 640 309 q 618 142 640 192 q 540 61 597 93 q 410 29 483 29 q 315 50 354 29 q 255 101 276 70 q 226 188 234 132 q 218 287 218 243 l 218 609 q 232 691 218 671 q 298 720 252 720 l 326 720 l 326 741 l 6 741 l 6 720 l 34 720 q 95 699 76 720 q 113 609 113 677 l 113 320 q 131 138 113 186 q 220 24 157 66 q 404 -18 283 -18 q 580 26 515 -18 q 667 132 645 71 q 689 304 689 193 l 689 605 q 701 684 689 667 q 768 720 724 720 l 795 720 l 795 741 l 533 741 l 533 720 m 524 981 l 402 981 l 345 793 l 363 793 l 524 981 "},"Û":{"ha":808,"x_min":6,"x_max":795,"o":"m 533 720 l 562 720 q 625 696 604 720 q 640 609 640 679 l 640 309 q 618 142 640 192 q 540 61 597 93 q 410 29 483 29 q 315 50 354 29 q 255 101 276 70 q 226 188 234 132 q 218 287 218 243 l 218 609 q 232 691 218 671 q 298 720 252 720 l 326 720 l 326 741 l 6 741 l 6 720 l 34 720 q 95 699 76 720 q 113 609 113 677 l 113 320 q 131 138 113 186 q 220 24 157 66 q 404 -18 283 -18 q 580 26 515 -18 q 667 132 645 71 q 689 304 689 193 l 689 605 q 701 684 689 667 q 768 720 724 720 l 795 720 l 795 741 l 533 741 l 533 720 m 377 979 l 274 798 l 290 798 l 416 914 l 565 798 l 582 798 l 478 979 l 377 979 "},"Ü":{"ha":808,"x_min":6,"x_max":795,"o":"m 533 720 l 562 720 q 625 696 604 720 q 640 609 640 679 l 640 309 q 618 142 640 192 q 540 61 597 93 q 410 29 483 29 q 315 50 354 29 q 255 101 276 70 q 226 188 234 132 q 218 287 218 243 l 218 609 q 232 691 218 671 q 298 720 252 720 l 326 720 l 326 741 l 6 741 l 6 720 l 34 720 q 95 699 76 720 q 113 609 113 677 l 113 320 q 131 138 113 186 q 220 24 157 66 q 404 -18 283 -18 q 580 26 515 -18 q 667 132 645 71 q 689 304 689 193 l 689 605 q 701 684 689 667 q 768 720 724 720 l 795 720 l 795 741 l 533 741 l 533 720 m 524 932 q 482 915 500 932 q 465 873 465 898 q 482 831 465 848 q 524 814 500 814 q 566 831 549 814 q 583 873 583 848 q 566 915 583 898 q 524 932 549 932 m 332 932 q 290 915 307 932 q 273 873 273 898 q 290 831 273 848 q 332 814 307 814 q 374 831 356 814 q 391 873 391 848 q 374 915 391 898 q 332 932 357 932 "},"Ý":{"ha":808,"x_min":10,"x_max":791,"o":"m 533 741 l 533 720 q 577 713 562 720 q 600 694 592 707 q 608 667 608 682 q 575 591 608 642 l 430 363 l 275 601 q 242 672 242 652 q 263 708 242 696 q 311 720 285 720 l 327 720 l 327 741 l 10 741 l 10 720 q 42 715 31 720 q 95 682 83 696 q 144 614 108 668 l 347 304 l 347 128 q 335 49 347 66 q 269 20 315 20 l 242 20 l 242 0 l 557 0 l 557 20 l 533 20 q 467 43 488 20 q 452 128 452 60 l 452 314 l 631 595 q 686 672 663 648 q 735 708 708 695 q 777 720 763 720 l 791 720 l 791 741 l 533 741 m 544 981 l 422 981 l 364 793 l 382 793 l 544 981 "},"Þ":{"ha":622,"x_min":20,"x_max":578,"o":"m 229 572 l 229 608 q 237 681 229 662 q 262 707 245 700 q 313 720 290 720 l 335 720 l 335 741 l 20 741 l 20 720 l 41 720 q 92 708 71 720 q 118 682 112 696 q 124 605 124 667 l 124 131 q 113 51 124 66 q 41 20 91 20 l 20 20 l 20 0 l 335 0 l 335 20 l 313 20 q 248 41 267 20 q 229 133 229 62 l 229 166 l 267 166 q 372 169 352 166 q 460 191 426 176 q 520 232 494 206 q 563 293 547 258 q 578 371 578 329 q 554 464 578 422 q 490 530 529 505 q 392 566 451 555 q 270 572 351 572 l 229 572 m 229 530 l 256 530 q 330 525 309 530 q 392 499 364 518 q 436 445 419 479 q 453 370 453 410 q 430 279 453 318 q 357 220 406 241 q 254 205 320 205 l 229 205 l 229 530 "},"ß":{"ha":559,"x_min":19,"x_max":523,"o":"m 19 0 l 182 0 l 182 566 q 210 706 182 671 q 281 741 237 741 q 358 708 329 741 q 387 602 387 675 q 357 488 387 522 q 269 454 327 454 l 269 422 q 390 351 350 417 q 430 170 430 284 q 402 52 430 91 q 349 24 381 24 q 326 31 334 24 q 318 49 318 39 q 321 68 318 55 q 323 85 323 77 q 312 117 323 105 q 279 129 300 129 q 247 117 259 129 q 235 81 235 104 q 264 19 235 45 q 340 -7 292 -7 q 473 64 424 -7 q 523 231 523 136 q 485 372 523 318 q 374 448 448 427 q 449 500 427 471 q 478 599 478 541 q 426 726 478 676 q 286 777 374 777 q 142 720 193 777 q 91 528 91 663 l 91 123 q 85 56 91 71 q 66 31 80 40 q 19 20 52 22 l 19 0 "},"à":{"ha":496,"x_min":40,"x_max":494,"o":"m 318 72 q 335 9 319 27 q 377 -9 351 -9 q 494 72 433 -9 l 494 102 q 450 63 461 70 q 435 59 444 59 q 420 64 427 59 q 411 86 414 70 q 408 174 408 102 l 408 343 q 399 439 408 416 q 351 492 383 475 q 242 515 309 515 q 107 475 155 515 q 59 389 59 436 q 72 351 59 365 q 105 336 85 336 q 138 350 125 336 q 151 389 151 363 l 150 420 q 171 463 150 444 q 225 481 191 481 q 294 454 271 481 q 318 351 318 426 l 318 332 q 134 252 189 284 q 56 182 79 219 q 40 119 40 155 q 74 25 40 60 q 159 -10 107 -10 q 222 3 192 -10 q 318 72 241 13 m 318 108 q 209 53 250 53 q 155 79 178 53 q 132 144 132 105 q 150 201 132 175 q 212 252 169 228 q 318 298 236 265 l 318 108 m 142 759 l 302 570 l 321 570 l 264 759 l 142 759 "},"á":{"ha":496,"x_min":40,"x_max":494,"o":"m 318 72 q 335 9 319 27 q 377 -9 351 -9 q 494 72 433 -9 l 494 102 q 450 63 461 70 q 435 59 444 59 q 420 64 427 59 q 411 86 414 70 q 408 174 408 102 l 408 343 q 399 439 408 416 q 351 492 383 475 q 242 515 309 515 q 107 475 155 515 q 59 389 59 436 q 72 351 59 365 q 105 336 85 336 q 138 350 125 336 q 151 389 151 363 l 150 420 q 171 463 150 444 q 225 481 191 481 q 294 454 271 481 q 318 351 318 426 l 318 332 q 134 252 189 284 q 56 182 79 219 q 40 119 40 155 q 74 25 40 60 q 159 -10 107 -10 q 222 3 192 -10 q 318 72 241 13 m 318 108 q 209 53 250 53 q 155 79 178 53 q 132 144 132 105 q 150 201 132 175 q 212 252 169 228 q 318 298 236 265 l 318 108 m 372 759 l 250 759 l 193 570 l 211 570 l 372 759 "},"â":{"ha":496,"x_min":40,"x_max":494,"o":"m 318 72 q 335 9 319 27 q 377 -9 351 -9 q 494 72 433 -9 l 494 102 q 450 63 461 70 q 435 59 444 59 q 420 64 427 59 q 411 86 414 70 q 408 174 408 102 l 408 343 q 399 439 408 416 q 351 492 383 475 q 242 515 309 515 q 107 475 155 515 q 59 389 59 436 q 72 351 59 365 q 105 336 85 336 q 138 350 125 336 q 151 389 151 363 l 150 420 q 171 463 150 444 q 225 481 191 481 q 294 454 271 481 q 318 351 318 426 l 318 332 q 134 252 189 284 q 56 182 79 219 q 40 119 40 155 q 74 25 40 60 q 159 -10 107 -10 q 222 3 192 -10 q 318 72 241 13 m 318 108 q 209 53 250 53 q 155 79 178 53 q 132 144 132 105 q 150 201 132 175 q 212 252 169 228 q 318 298 236 265 l 318 108 m 199 756 l 96 575 l 113 575 l 238 692 l 387 575 l 404 575 l 300 756 l 199 756 "},"ã":{"ha":496,"x_min":40,"x_max":494,"o":"m 318 72 q 335 9 319 27 q 377 -9 351 -9 q 494 72 433 -9 l 494 102 q 450 63 461 70 q 435 59 444 59 q 420 64 427 59 q 411 86 414 70 q 408 174 408 102 l 408 343 q 399 439 408 416 q 351 492 383 475 q 242 515 309 515 q 107 475 155 515 q 59 389 59 436 q 72 351 59 365 q 105 336 85 336 q 138 350 125 336 q 151 389 151 363 l 150 420 q 171 463 150 444 q 225 481 191 481 q 294 454 271 481 q 318 351 318 426 l 318 332 q 134 252 189 284 q 56 182 79 219 q 40 119 40 155 q 74 25 40 60 q 159 -10 107 -10 q 222 3 192 -10 q 318 72 241 13 m 318 108 q 209 53 250 53 q 155 79 178 53 q 132 144 132 105 q 150 201 132 175 q 212 252 169 228 q 318 298 236 265 l 318 108 m 93 599 q 109 654 102 645 q 144 673 121 673 q 168 669 155 673 q 214 640 180 664 q 321 597 278 597 q 372 613 347 597 q 411 660 397 630 q 425 741 425 690 l 408 741 q 387 679 400 694 q 356 665 373 665 q 289 694 334 665 q 219 733 244 724 q 178 741 201 741 q 107 707 136 741 q 76 599 78 673 l 93 599 "},"ä":{"ha":496,"x_min":40,"x_max":494,"o":"m 318 72 q 335 9 319 27 q 377 -9 351 -9 q 494 72 433 -9 l 494 102 q 450 63 461 70 q 435 59 444 59 q 420 64 427 59 q 411 86 414 70 q 408 174 408 102 l 408 343 q 399 439 408 416 q 351 492 383 475 q 242 515 309 515 q 107 475 155 515 q 59 389 59 436 q 72 351 59 365 q 105 336 85 336 q 138 350 125 336 q 151 389 151 363 l 150 420 q 171 463 150 444 q 225 481 191 481 q 294 454 271 481 q 318 351 318 426 l 318 332 q 134 252 189 284 q 56 182 79 219 q 40 119 40 155 q 74 25 40 60 q 159 -10 107 -10 q 222 3 192 -10 q 318 72 241 13 m 318 108 q 209 53 250 53 q 155 79 178 53 q 132 144 132 105 q 150 201 132 175 q 212 252 169 228 q 318 298 236 265 l 318 108 m 346 730 q 304 712 321 730 q 286 671 286 695 q 304 629 286 646 q 346 612 321 612 q 388 629 370 612 q 405 671 405 646 q 388 712 405 695 q 346 730 370 730 m 153 730 q 112 712 129 730 q 94 671 94 695 q 112 629 94 646 q 154 612 129 612 q 195 629 178 612 q 213 671 213 646 q 196 712 213 695 q 153 730 178 730 "},"å":{"ha":496,"x_min":40,"x_max":494,"o":"m 318 72 q 335 9 319 27 q 377 -9 351 -9 q 494 72 433 -9 l 494 102 q 450 63 461 70 q 435 59 444 59 q 420 64 427 59 q 411 86 414 70 q 408 174 408 102 l 408 343 q 399 439 408 416 q 351 492 383 475 q 242 515 309 515 q 107 475 155 515 q 59 389 59 436 q 72 351 59 365 q 105 336 85 336 q 138 350 125 336 q 151 389 151 363 l 150 420 q 171 463 150 444 q 225 481 191 481 q 294 454 271 481 q 318 351 318 426 l 318 332 q 134 252 189 284 q 56 182 79 219 q 40 119 40 155 q 74 25 40 60 q 159 -10 107 -10 q 222 3 192 -10 q 318 72 241 13 m 318 108 q 209 53 250 53 q 155 79 178 53 q 132 144 132 105 q 150 201 132 175 q 212 252 169 228 q 318 298 236 265 l 318 108 m 250 779 q 176 748 206 779 q 146 675 146 718 q 176 600 146 631 q 250 570 207 570 q 324 600 294 570 q 355 675 355 631 q 324 748 355 718 q 250 779 294 779 m 250 741 q 297 722 278 741 q 317 675 317 703 q 297 627 317 647 q 250 608 278 608 q 202 627 222 608 q 183 675 183 647 q 202 722 183 703 q 250 741 222 741 "},"æ":{"ha":746,"x_min":40,"x_max":712,"o":"m 401 309 l 712 309 q 663 463 712 410 q 534 515 613 515 q 443 496 481 515 q 388 448 414 481 q 342 496 376 477 q 240 515 308 515 q 140 496 183 515 q 77 448 97 476 q 58 391 58 419 q 74 351 58 369 q 106 339 85 339 q 131 346 121 339 q 145 367 141 353 q 150 427 150 380 q 171 466 150 448 q 227 484 191 484 q 286 459 264 484 q 307 376 307 435 l 307 326 q 157 259 242 303 q 64 191 87 224 q 40 110 40 157 q 75 21 40 58 q 161 -16 111 -16 q 221 -7 192 -16 q 276 17 250 2 q 318 49 287 23 q 349 72 342 67 q 409 10 389 23 q 510 -16 451 -16 q 627 27 581 -16 q 712 175 692 86 l 694 186 q 636 100 663 121 q 540 66 593 66 q 439 113 479 66 q 400 269 400 159 q 401 309 400 281 m 401 345 q 432 443 401 408 q 506 477 463 477 q 578 445 550 477 q 607 345 606 414 l 401 345 m 333 100 q 264 55 288 66 q 220 43 241 43 q 157 71 183 43 q 132 141 132 98 q 172 220 132 189 q 307 290 234 267 l 307 242 q 314 164 307 204 q 333 100 321 125 "},"ç":{"ha":496,"x_min":38,"x_max":460,"o":"m 460 190 l 444 197 q 385 106 416 132 q 290 70 343 70 q 171 138 214 70 q 127 296 127 207 q 171 438 127 385 q 259 478 204 478 q 312 462 292 478 q 334 413 331 445 q 346 369 337 380 q 395 349 363 349 q 432 361 418 349 q 446 395 446 374 q 398 476 446 437 q 277 515 351 515 q 108 441 178 515 q 38 250 38 368 q 101 56 38 127 q 250 -16 165 -16 q 380 38 321 -16 q 460 190 439 91 m 257 9 l 196 -88 q 210 -87 205 -87 q 242 -99 229 -87 q 254 -127 254 -111 q 235 -170 254 -151 q 188 -188 216 -188 q 162 -186 177 -188 l 162 -209 q 213 -213 193 -213 q 298 -183 265 -213 q 330 -114 330 -153 q 313 -64 330 -85 q 262 -35 296 -43 l 290 9 l 257 9 "},"è":{"ha":496,"x_min":41,"x_max":465,"o":"m 119 312 l 465 312 q 411 460 465 405 q 273 515 357 515 q 107 444 173 515 q 41 243 41 372 q 105 55 41 125 q 260 -16 170 -16 q 398 46 343 -16 q 465 182 453 108 l 448 193 q 387 101 423 127 q 301 74 351 74 q 173 137 228 74 q 119 312 119 200 m 119 343 q 161 441 125 406 q 242 477 197 477 q 298 459 271 477 q 339 411 326 441 q 351 343 348 391 l 119 343 m 155 759 l 316 570 l 335 570 l 277 759 l 155 759 "},"é":{"ha":496,"x_min":41,"x_max":465,"o":"m 119 312 l 465 312 q 411 460 465 405 q 273 515 357 515 q 107 444 173 515 q 41 243 41 372 q 105 55 41 125 q 260 -16 170 -16 q 398 46 343 -16 q 465 182 453 108 l 448 193 q 387 101 423 127 q 301 74 351 74 q 173 137 228 74 q 119 312 119 200 m 119 343 q 161 441 125 406 q 242 477 197 477 q 298 459 271 477 q 339 411 326 441 q 351 343 348 391 l 119 343 m 380 759 l 258 759 l 200 570 l 218 570 l 380 759 "},"ê":{"ha":496,"x_min":41,"x_max":465,"o":"m 119 312 l 465 312 q 411 460 465 405 q 273 515 357 515 q 107 444 173 515 q 41 243 41 372 q 105 55 41 125 q 260 -16 170 -16 q 398 46 343 -16 q 465 182 453 108 l 448 193 q 387 101 423 127 q 301 74 351 74 q 173 137 228 74 q 119 312 119 200 m 119 343 q 161 441 125 406 q 242 477 197 477 q 298 459 271 477 q 339 411 326 441 q 351 343 348 391 l 119 343 m 220 756 l 117 575 l 133 575 l 258 692 l 408 575 l 425 575 l 321 756 l 220 756 "},"ë":{"ha":496,"x_min":41,"x_max":465,"o":"m 119 312 l 465 312 q 411 460 465 405 q 273 515 357 515 q 107 444 173 515 q 41 243 41 372 q 105 55 41 125 q 260 -16 170 -16 q 398 46 343 -16 q 465 182 453 108 l 448 193 q 387 101 423 127 q 301 74 351 74 q 173 137 228 74 q 119 312 119 200 m 119 343 q 161 441 125 406 q 242 477 197 477 q 298 459 271 477 q 339 411 326 441 q 351 343 348 391 l 119 343 m 366 730 q 324 712 342 730 q 307 671 307 695 q 324 629 307 646 q 366 612 342 612 q 408 629 391 612 q 425 671 425 646 q 408 712 425 695 q 366 730 391 730 m 174 730 q 132 712 149 730 q 115 671 115 695 q 132 629 115 646 q 174 612 149 612 q 216 629 198 612 q 233 671 233 646 q 216 712 233 695 q 174 730 199 730 "},"ì":{"ha":311,"x_min":33,"x_max":283,"o":"m 207 515 l 183 515 l 33 454 l 41 434 q 77 442 62 442 q 100 435 92 442 q 112 411 108 429 q 117 306 117 387 l 117 113 q 110 50 117 66 q 90 27 102 34 q 41 20 77 20 l 41 0 l 283 0 l 283 20 q 234 27 248 20 q 214 51 221 35 q 207 113 207 66 l 207 515 m 43 759 l 203 570 l 222 570 l 165 759 l 43 759 "},"í":{"ha":311,"x_min":33,"x_max":283,"o":"m 207 515 l 183 515 l 33 454 l 41 434 q 77 442 62 442 q 100 435 92 442 q 112 411 108 429 q 117 306 117 387 l 117 113 q 110 50 117 66 q 90 27 102 34 q 41 20 77 20 l 41 0 l 283 0 l 283 20 q 234 27 248 20 q 214 51 221 35 q 207 113 207 66 l 207 515 m 273 759 l 151 759 l 93 570 l 111 570 l 273 759 "},"î":{"ha":311,"x_min":7,"x_max":315,"o":"m 207 515 l 183 515 l 33 454 l 41 434 q 77 442 62 442 q 100 435 92 442 q 112 411 108 429 q 117 306 117 387 l 117 113 q 110 50 117 66 q 90 27 102 34 q 41 20 77 20 l 41 0 l 283 0 l 283 20 q 234 27 248 20 q 214 51 221 35 q 207 113 207 66 l 207 515 m 111 756 l 7 575 l 24 575 l 149 692 l 298 575 l 315 575 l 212 756 l 111 756 "},"ï":{"ha":311,"x_min":2,"x_max":313,"o":"m 207 515 l 183 515 l 33 454 l 41 434 q 77 442 62 442 q 100 435 92 442 q 112 411 108 429 q 117 306 117 387 l 117 113 q 110 50 117 66 q 90 27 102 34 q 41 20 77 20 l 41 0 l 283 0 l 283 20 q 234 27 248 20 q 214 51 221 35 q 207 113 207 66 l 207 515 m 254 730 q 212 712 229 730 q 194 671 194 695 q 212 629 194 646 q 254 612 229 612 q 295 629 278 612 q 313 671 313 646 q 295 712 313 695 q 254 730 278 730 m 61 730 q 19 712 37 730 q 2 671 2 695 q 19 629 2 646 q 62 612 37 612 q 103 629 85 612 q 121 671 121 646 q 103 712 121 695 q 61 730 86 730 "},"ð":{"ha":559,"x_min":37,"x_max":518,"o":"m 256 638 q 359 478 315 568 q 315 503 332 498 q 267 511 293 511 q 113 440 177 511 q 37 241 37 356 q 106 57 37 130 q 273 -16 175 -16 q 398 20 342 -16 q 487 119 455 56 q 518 259 518 183 q 465 468 518 359 q 309 667 412 576 l 433 738 l 415 768 l 279 692 q 144 777 210 743 l 130 753 q 178 718 159 733 q 232 667 196 703 l 105 595 l 121 564 l 256 638 m 262 477 q 374 403 331 477 q 417 205 417 329 q 383 66 417 109 q 298 23 349 23 q 220 53 258 23 q 160 146 182 83 q 138 283 138 209 q 174 433 138 389 q 262 477 209 477 "},"ñ":{"ha":559,"x_min":7,"x_max":554,"o":"m 180 409 l 180 515 l 157 515 l 7 454 l 15 434 q 52 442 36 442 q 74 435 66 442 q 87 408 83 428 q 91 298 91 389 l 91 113 q 77 39 91 58 q 26 20 64 20 l 15 20 l 15 0 l 262 0 l 262 20 q 208 27 221 20 q 186 50 195 35 q 180 113 180 62 l 180 376 q 310 448 245 448 q 370 417 352 448 q 388 318 388 386 l 388 113 q 385 62 388 70 q 366 30 380 41 q 317 20 352 20 l 307 20 l 307 0 l 554 0 l 554 20 q 505 27 518 20 q 486 49 492 35 q 477 113 477 66 l 477 326 q 466 427 477 394 q 419 494 448 474 q 349 515 389 515 q 180 409 269 515 m 123 599 q 138 654 132 645 q 174 673 151 673 q 197 669 185 673 q 243 640 210 664 q 351 597 308 597 q 402 613 376 597 q 441 660 427 630 q 454 741 454 690 l 437 741 q 416 679 430 694 q 386 665 403 665 q 319 694 363 665 q 249 733 274 724 q 208 741 231 741 q 137 707 165 741 q 106 599 108 673 l 123 599 "},"ò":{"ha":559,"x_min":38,"x_max":520,"o":"m 279 515 q 161 482 217 515 q 72 382 106 450 q 38 245 38 314 q 94 75 38 151 q 273 -16 161 -16 q 399 20 343 -16 q 488 123 456 55 q 520 259 520 192 q 462 429 520 355 q 279 515 393 515 m 262 479 q 361 427 323 479 q 418 217 418 351 q 384 67 418 111 q 297 24 350 24 q 182 103 226 24 q 139 291 139 182 q 157 402 139 359 q 204 462 175 445 q 262 479 234 479 m 164 759 l 325 570 l 344 570 l 286 759 l 164 759 "},"ó":{"ha":559,"x_min":38,"x_max":520,"o":"m 279 515 q 161 482 217 515 q 72 382 106 450 q 38 245 38 314 q 94 75 38 151 q 273 -16 161 -16 q 399 20 343 -16 q 488 123 456 55 q 520 259 520 192 q 462 429 520 355 q 279 515 393 515 m 262 479 q 361 427 323 479 q 418 217 418 351 q 384 67 418 111 q 297 24 350 24 q 182 103 226 24 q 139 291 139 182 q 157 402 139 359 q 204 462 175 445 q 262 479 234 479 m 395 759 l 273 759 l 215 570 l 233 570 l 395 759 "},"ô":{"ha":559,"x_min":38,"x_max":520,"o":"m 279 515 q 161 482 217 515 q 72 382 106 450 q 38 245 38 314 q 94 75 38 151 q 273 -16 161 -16 q 399 20 343 -16 q 488 123 456 55 q 520 259 520 192 q 462 429 520 355 q 279 515 393 515 m 262 479 q 361 427 323 479 q 418 217 418 351 q 384 67 418 111 q 297 24 350 24 q 182 103 226 24 q 139 291 139 182 q 157 402 139 359 q 204 462 175 445 q 262 479 234 479 m 235 756 l 132 575 l 149 575 l 274 692 l 423 575 l 440 575 l 336 756 l 235 756 "},"õ":{"ha":559,"x_min":38,"x_max":520,"o":"m 279 515 q 161 482 217 515 q 72 382 106 450 q 38 245 38 314 q 94 75 38 151 q 273 -16 161 -16 q 399 20 343 -16 q 488 123 456 55 q 520 259 520 192 q 462 429 520 355 q 279 515 393 515 m 262 479 q 361 427 323 479 q 418 217 418 351 q 384 67 418 111 q 297 24 350 24 q 182 103 226 24 q 139 291 139 182 q 157 402 139 359 q 204 462 175 445 q 262 479 234 479 m 122 599 q 138 654 132 645 q 173 673 151 673 q 197 669 184 673 q 243 640 209 664 q 350 597 307 597 q 401 613 376 597 q 440 660 427 630 q 454 741 454 690 l 437 741 q 416 679 429 694 q 385 665 402 665 q 318 694 363 665 q 248 733 273 724 q 208 741 230 741 q 136 707 165 741 q 105 599 107 673 l 122 599 "},"ö":{"ha":559,"x_min":38,"x_max":520,"o":"m 279 515 q 161 482 217 515 q 72 382 106 450 q 38 245 38 314 q 94 75 38 151 q 273 -16 161 -16 q 399 20 343 -16 q 488 123 456 55 q 520 259 520 192 q 462 429 520 355 q 279 515 393 515 m 262 479 q 361 427 323 479 q 418 217 418 351 q 384 67 418 111 q 297 24 350 24 q 182 103 226 24 q 139 291 139 182 q 157 402 139 359 q 204 462 175 445 q 262 479 234 479 m 375 730 q 333 712 351 730 q 315 671 315 695 q 333 629 315 646 q 375 612 351 612 q 417 629 399 612 q 434 671 434 646 q 417 712 434 695 q 375 730 399 730 m 182 730 q 141 712 158 730 q 123 671 123 695 q 141 629 123 646 q 183 612 158 612 q 224 629 207 612 q 242 671 242 646 q 225 712 242 695 q 182 730 208 730 "},"ø":{"ha":559,"x_min":21,"x_max":538,"o":"m 440 454 q 365 500 401 486 q 284 515 329 515 q 162 480 218 515 q 74 379 106 446 q 41 248 41 313 q 56 157 41 205 q 98 74 71 108 l 21 -13 l 47 -37 l 121 47 q 196 -1 161 13 q 277 -16 231 -16 q 402 20 347 -16 q 490 124 458 55 q 522 258 522 193 q 464 428 522 354 l 538 511 l 513 534 l 440 454 m 385 393 l 163 147 q 142 290 142 222 q 177 435 142 391 q 267 479 213 479 q 330 460 302 479 q 385 393 357 441 m 399 357 q 421 220 421 286 q 387 67 421 111 q 298 24 353 24 q 234 42 261 24 q 180 111 208 61 l 399 357 "},"ù":{"ha":559,"x_min":1,"x_max":557,"o":"m 473 500 l 303 500 l 303 480 q 368 464 352 479 q 383 406 383 449 l 383 123 q 313 66 342 81 q 259 52 283 52 q 201 74 225 52 q 176 165 176 96 l 176 500 l 1 500 l 1 480 q 56 473 41 480 q 78 452 71 466 q 85 403 85 438 l 85 180 q 98 72 85 110 q 141 9 110 33 q 214 -16 172 -16 q 285 3 251 -16 q 383 91 319 21 l 383 -16 l 408 -16 l 557 46 l 550 66 q 511 56 528 56 q 491 64 500 56 q 477 91 481 71 q 473 197 473 111 l 473 500 m 168 759 l 328 570 l 347 570 l 290 759 l 168 759 "},"ú":{"ha":559,"x_min":1,"x_max":557,"o":"m 473 500 l 303 500 l 303 480 q 368 464 352 479 q 383 406 383 449 l 383 123 q 313 66 342 81 q 259 52 283 52 q 201 74 225 52 q 176 165 176 96 l 176 500 l 1 500 l 1 480 q 56 473 41 480 q 78 452 71 466 q 85 403 85 438 l 85 180 q 98 72 85 110 q 141 9 110 33 q 214 -16 172 -16 q 285 3 251 -16 q 383 91 319 21 l 383 -16 l 408 -16 l 557 46 l 550 66 q 511 56 528 56 q 491 64 500 56 q 477 91 481 71 q 473 197 473 111 l 473 500 m 382 759 l 260 759 l 202 570 l 220 570 l 382 759 "},"û":{"ha":559,"x_min":1,"x_max":557,"o":"m 473 500 l 303 500 l 303 480 q 368 464 352 479 q 383 406 383 449 l 383 123 q 313 66 342 81 q 259 52 283 52 q 201 74 225 52 q 176 165 176 96 l 176 500 l 1 500 l 1 480 q 56 473 41 480 q 78 452 71 466 q 85 403 85 438 l 85 180 q 98 72 85 110 q 141 9 110 33 q 214 -16 172 -16 q 285 3 251 -16 q 383 91 319 21 l 383 -16 l 408 -16 l 557 46 l 550 66 q 511 56 528 56 q 491 64 500 56 q 477 91 481 71 q 473 197 473 111 l 473 500 m 231 756 l 127 575 l 144 575 l 269 692 l 418 575 l 435 575 l 332 756 l 231 756 "},"ü":{"ha":559,"x_min":1,"x_max":557,"o":"m 473 500 l 303 500 l 303 480 q 368 464 352 479 q 383 406 383 449 l 383 123 q 313 66 342 81 q 259 52 283 52 q 201 74 225 52 q 176 165 176 96 l 176 500 l 1 500 l 1 480 q 56 473 41 480 q 78 452 71 466 q 85 403 85 438 l 85 180 q 98 72 85 110 q 141 9 110 33 q 214 -16 172 -16 q 285 3 251 -16 q 383 91 319 21 l 383 -16 l 408 -16 l 557 46 l 550 66 q 511 56 528 56 q 491 64 500 56 q 477 91 481 71 q 473 197 473 111 l 473 500 m 375 730 q 333 712 351 730 q 315 671 315 695 q 333 629 315 646 q 375 612 351 612 q 417 629 399 612 q 434 671 434 646 q 417 712 434 695 q 375 730 399 730 m 182 730 q 141 712 158 730 q 123 671 123 695 q 141 629 123 646 q 183 612 158 612 q 224 629 207 612 q 242 671 242 646 q 225 712 242 695 q 182 730 208 730 "},"ý":{"ha":559,"x_min":7,"x_max":553,"o":"m 7 500 l 7 480 q 47 465 35 473 q 69 439 56 458 q 96 397 87 414 l 275 20 l 239 -67 q 200 -133 220 -116 q 165 -150 181 -150 q 138 -141 159 -150 q 88 -130 106 -130 q 47 -143 62 -130 q 32 -180 32 -157 q 53 -223 32 -204 q 106 -241 74 -241 q 198 -204 150 -241 q 275 -94 245 -167 l 479 405 q 497 446 492 439 q 522 471 511 465 q 553 480 532 477 l 553 500 l 390 500 l 390 480 q 422 476 413 480 q 436 467 432 473 q 440 452 440 462 q 431 408 440 430 l 319 132 l 197 384 q 179 443 179 421 q 191 469 179 458 q 228 480 203 480 l 239 480 l 239 500 l 7 500 m 399 759 l 277 759 l 220 570 l 238 570 l 399 759 "},"þ":{"ha":559,"x_min":-4,"x_max":521,"o":"m -1 714 l 5 696 q 39 705 26 705 q 64 698 55 705 q 78 678 74 692 q 83 616 83 665 l 83 -120 q 77 -188 83 -174 q 61 -207 71 -201 q 9 -218 40 -219 l -4 -218 l -4 -239 l 258 -239 l 258 -218 q 202 -210 217 -218 q 180 -188 186 -201 q 174 -123 174 -174 l 174 29 q 222 -4 201 4 q 292 -16 252 -16 q 446 54 385 -16 q 521 268 521 138 q 459 456 521 384 q 334 515 409 515 q 251 488 290 515 q 174 396 212 462 l 174 777 l 153 777 l -1 714 m 174 363 q 239 422 219 413 q 290 435 264 435 q 374 393 338 435 q 424 217 424 332 q 379 60 424 116 q 291 18 346 18 q 216 42 245 18 q 178 97 186 66 q 174 177 174 116 l 174 363 "},"ÿ":{"ha":559,"x_min":7,"x_max":553,"o":"m 7 500 l 7 480 q 47 465 35 473 q 69 439 56 458 q 96 397 87 414 l 275 20 l 239 -67 q 200 -133 220 -116 q 165 -150 181 -150 q 138 -141 159 -150 q 88 -130 106 -130 q 47 -143 62 -130 q 32 -180 32 -157 q 53 -223 32 -204 q 106 -241 74 -241 q 198 -204 150 -241 q 275 -94 245 -167 l 479 405 q 497 446 492 439 q 522 471 511 465 q 553 480 532 477 l 553 500 l 390 500 l 390 480 q 422 476 413 480 q 436 467 432 473 q 440 452 440 462 q 431 408 440 430 l 319 132 l 197 384 q 179 443 179 421 q 191 469 179 458 q 228 480 203 480 l 239 480 l 239 500 l 7 500 m 396 730 q 354 712 372 730 q 336 671 336 695 q 354 629 336 646 q 396 612 372 612 q 438 629 420 612 q 455 671 455 646 q 438 712 455 695 q 396 730 420 730 m 203 730 q 162 712 179 730 q 144 671 144 695 q 162 629 144 646 q 204 612 179 612 q 245 629 228 612 q 263 671 263 646 q 246 712 263 695 q 203 730 229 730 "},"₨":{"ha":1166,"x_min":19,"x_max":1127,"o":"m 755 0 l 755 20 q 657 51 695 26 q 567 148 620 75 l 414 360 q 552 431 508 381 q 597 550 597 481 q 558 660 597 614 q 463 723 519 706 q 289 741 407 741 l 19 741 l 19 720 l 47 720 q 111 696 89 720 q 125 609 125 679 l 125 131 q 114 51 125 68 q 47 20 94 20 l 19 20 l 19 0 l 336 0 l 336 20 l 307 20 q 245 44 266 20 q 230 131 230 61 l 230 346 q 247 346 239 346 q 262 345 255 345 q 307 346 279 345 l 558 0 l 755 0 m 230 380 l 230 688 q 315 699 284 699 q 431 655 387 699 q 474 543 474 612 q 420 426 474 472 q 260 380 366 380 q 248 380 256 380 q 230 380 240 380 m 1089 515 l 1072 515 q 1060 498 1065 502 q 1046 494 1055 494 q 1009 503 1037 494 q 937 515 967 515 q 828 473 870 515 q 786 370 786 432 q 810 292 786 323 q 914 220 835 260 q 1019 156 993 181 q 1046 92 1046 130 q 1022 39 1046 61 q 961 17 998 17 q 864 56 907 17 q 806 171 821 94 l 788 171 l 788 -7 l 806 -7 q 825 7 813 7 q 855 1 837 7 q 960 -16 914 -16 q 1075 26 1023 -16 q 1127 136 1127 68 q 1016 279 1127 225 l 937 318 q 867 366 884 343 q 850 418 850 387 q 873 463 850 442 q 935 483 897 483 q 1018 454 985 483 q 1072 345 1050 425 l 1089 345 l 1089 515 "},"ॻ":{"ha":856,"x_min":-4,"x_max":903,"o":"m 233 420 q 292 386 269 420 q 315 298 315 351 q 291 212 315 247 q 233 176 267 176 q 176 213 200 176 q 152 298 152 250 q 176 384 152 347 q 233 420 199 420 m 633 651 l 633 81 q 605 43 633 58 q 538 27 576 27 l 538 0 l 850 0 l 850 27 q 784 43 813 27 q 755 81 755 59 l 755 651 l 903 651 l 903 705 l -4 705 l -4 651 l 179 651 q 343 566 277 633 q 410 407 410 498 q 382 298 410 332 l 376 298 q 329 419 376 370 q 213 468 281 468 q 84 419 138 468 q 30 301 30 370 q 90 184 30 233 q 233 136 150 136 q 444 215 356 136 q 532 407 532 294 q 461 565 532 497 q 288 651 391 633 l 633 651 m 571 7 m 715 -121 l 715 -67 l 167 -67 l 167 -121 l 715 -121 "},"ॼ":{"ha":905,"x_min":-4,"x_max":952,"o":"m 682 448 l 682 81 q 654 43 682 58 q 587 27 625 27 l 587 0 l 899 0 l 899 27 q 833 43 862 27 q 804 81 804 59 l 804 651 l 952 651 l 952 705 l -4 705 l -4 651 l 682 651 l 682 489 l 275 489 l 275 448 l 302 448 q 418 399 371 448 q 465 278 465 349 q 422 172 465 216 q 316 129 379 129 q 151 227 218 129 q 72 454 83 325 l 31 454 q 125 153 31 279 q 350 27 218 27 q 518 95 448 27 q 587 258 587 162 q 551 374 587 323 q 452 448 515 425 l 682 448 m 747 -121 l 747 -67 l 199 -67 l 199 -121 l 747 -121 "},"ॾ":{"ha":766,"x_min":-4,"x_max":814,"o":"m 814 651 l 814 705 l -4 705 l -4 651 l 513 651 l 513 556 l 343 556 q 211 527 261 556 q 160 448 160 497 q 212 354 160 389 q 343 319 263 319 l 450 319 q 534 286 501 319 q 567 203 567 252 q 518 102 567 143 q 397 61 469 61 q 174 153 270 61 q 65 380 77 245 l 24 373 q 141 109 38 217 q 391 0 245 0 q 601 62 513 0 q 689 210 689 123 q 634 321 689 276 q 499 366 578 366 l 418 366 q 316 383 350 366 q 282 434 282 400 q 313 485 282 468 q 404 502 343 502 l 635 502 l 635 651 l 814 651 m 655 -121 l 655 -67 l 107 -67 l 107 -121 l 655 -121 "},"ॿ":{"ha":696,"x_min":-4,"x_max":743,"o":"m 412 156 q 333 133 373 133 q 217 183 273 133 q 161 319 161 234 q 209 461 161 421 l 412 156 m 473 488 l 473 183 l 460 176 l 250 495 q 362 525 299 525 q 473 488 420 525 m 473 149 l 473 81 q 445 43 473 58 q 378 27 416 27 l 378 0 l 690 0 l 690 27 q 624 43 653 27 q 595 81 595 59 l 595 651 l 743 651 l 743 705 l -4 705 l -4 651 l 473 651 l 473 515 q 297 570 408 570 q 114 498 189 570 q 39 326 39 427 q 115 153 39 225 q 297 81 191 81 q 473 149 391 81 m 625 -121 l 625 -67 l 77 -67 l 77 -121 l 625 -121 "},"ॱ":{"ha":391,"x_min":159,"x_max":279,"o":"m 219 616 q 261 634 243 616 q 279 676 279 652 q 261 718 279 701 q 219 736 243 736 q 177 718 195 736 q 159 676 159 701 q 177 634 159 652 q 219 616 195 616 "},"ॲ":{"ha":846,"x_min":26,"x_max":894,"o":"m 26 298 q 102 88 26 176 q 283 0 178 0 q 465 57 389 0 q 541 197 541 115 q 499 308 541 260 q 392 366 458 355 l 392 373 q 479 422 444 382 q 514 515 514 462 q 450 640 514 589 q 297 692 387 692 q 171 654 227 692 q 94 556 115 616 l 127 536 q 180 609 143 581 q 263 637 217 637 q 354 601 317 637 q 392 511 392 565 q 354 422 392 458 q 263 387 316 387 l 216 387 l 216 346 l 263 346 q 364 306 322 346 q 406 206 406 265 q 363 108 406 148 q 263 68 321 68 q 124 136 182 68 q 66 298 66 204 l 26 298 m 745 651 l 894 651 l 894 705 l 541 705 l 541 651 l 623 651 l 623 393 l 541 393 l 541 346 l 623 346 l 623 95 q 594 47 623 66 q 528 27 566 27 l 528 0 l 840 0 l 840 27 q 773 47 802 27 q 745 95 745 67 l 745 651 m 745 990 l 610 990 q 568 866 610 918 q 460 814 526 814 q 353 866 395 814 q 311 990 311 918 l 176 990 q 259 837 176 901 q 460 773 343 773 q 662 837 579 773 q 745 990 745 900 "},"ʼ":{"ha":384,"x_min":136,"x_max":302,"o":"m 161 460 q 254 517 222 482 q 302 635 302 570 q 273 712 302 681 q 208 743 244 743 q 153 722 176 743 q 136 679 136 706 q 153 638 136 654 q 191 622 170 622 q 215 627 201 622 q 231 631 225 631 q 245 622 239 631 q 251 597 251 614 q 237 547 251 568 q 161 485 217 518 l 161 460 "}}}
